<?xml version="1.0" standalone="no"?>
<!DOCTYPE svg PUBLIC "-//W3C//DTD SVG 1.1//EN" "http://www.w3.org/Graphics/SVG/1.1/DTD/svg11.dtd" >
<svg xmlns="http://www.w3.org/2000/svg" xmlns:xlink="http://www.w3.org/1999/xlink" version="1.1">
<metadata>
Created by FontForge 20201107 at Thu Feb  9 12:27:41 2023
 By Unknown
Copyright 2017 The Barlow Project Authors (https://github.com/jpt/barlow)
</metadata>
<defs>
<font id="BarlowSemiCondensed-SemiBoldItalic" horiz-adv-x="0" >
  <font-face 
    font-family="Barlow Semi Condensed SemiBold"
    font-weight="600"
    font-style="italic"
    font-stretch="semi-condensed"
    units-per-em="2048"
    panose-1="0 0 7 6 0 0 0 0 0 0"
    ascent="1638"
    descent="-410"
    x-height="1047"
    cap-height="1434"
    bbox="-981.346 -430 2159.98 2009"
    underline-thickness="102"
    underline-position="-307"
    slope="-7"
    unicode-range="U+000D-25CA"
  />
<missing-glyph horiz-adv-x="829" 
d="M-39 10q0 -10 8 -10h811q10 0 13 10l172 1413q1 4 -1.5 7.5t-7.5 3.5h-811q-10 0 -10 -11zM362 498q-23 0 -20 24l6 53q7 55 35.5 98t64.5 71.5t72 55t63.5 62.5t32.5 80q6 57 -21 91t-79 34q-56 0 -94.5 -35.5t-46.5 -93.5l-2 -25q-3 -25 -27 -22l-115 6q-10 0 -16 7
t-4 16l2 18q15 127 106 206t220 79q127 0 193.5 -75t51.5 -200q-7 -57 -29.5 -103.5t-51 -74.5t-61 -54.5t-60 -45.5t-47 -46.5t-23.5 -58.5l-4 -43q-1 -10 -9.5 -17t-17.5 -7h-119zM389 182q-42 0 -67.5 31t-20.5 76q6 43 41 73.5t76 30.5q40 0 68 -31t22 -73
q-4 -44 -39.5 -75.5t-79.5 -31.5z" />
    <glyph glyph-name="I_J.liga" unicode="IJ" horiz-adv-x="1505" 
d="M111 0q-9 0 -15.5 7.5t-5.5 17.5l170 1384q4 25 27 25h184q9 0 15.5 -7.5t5.5 -17.5l-170 -1384q-1 -10 -9.5 -17.5t-17.5 -7.5h-184zM907 -16q-192 0 -295.5 112.5t-81.5 298.5l17 119q0 10 7.5 17.5t18.5 7.5h183q10 0 16 -7t4 -18l-14 -121q-12 -93 35 -149t137 -56
q89 0 150 56.5t73 148.5l125 1016q4 25 27 25h182q10 0 16 -7t4 -18l-125 -1014q-22 -185 -154 -298t-325 -113z" />
    <glyph glyph-name="f_f_i.liga" unicode="ffi" horiz-adv-x="1720" 
d="M1591 1176q-64 0 -99.5 41.5t-27.5 107.5q7 64 53 106t109 42q64 0 99 -41.5t26 -106.5q-7 -66 -52 -107.5t-108 -41.5zM1096 1110l-6 -53q-3 -10 8 -10h166q9 0 15 -7.5t5 -17.5l-16 -131q-4 -25 -27 -25h-166q-10 0 -10 -10l-102 -831q-4 -25 -27 -25h-182
q-10 0 -16.5 7t-6.5 18l103 831q3 10 -9 10h-346q-10 0 -10 -10l-102 -831q-4 -25 -27 -25h-182q-10 0 -16.5 7t-6.5 18l103 831q3 10 -9 10h-90q-9 0 -15 7.5t-5 17.5l16 131q4 25 27 25h90q10 0 10 10l10 71q20 170 112.5 243t281.5 67h36q10 0 16.5 -7t4.5 -18l-12 -115
q-1 -10 -9.5 -17t-19.5 -7h-37q-71 -1 -103 -42t-42 -122l-6 -53q-3 -10 8 -10h346q10 0 10 10l10 71q20 170 112.5 243t281.5 67h36q10 0 16.5 -7t4.5 -18l-12 -115q-1 -10 -9.5 -17t-19.5 -7h-35q-72 -1 -104.5 -42t-42.5 -122zM1356 0q-10 0 -16.5 7t-6.5 18l123 997
q4 25 27 25h184q9 0 15.5 -7.5t5.5 -17.5l-123 -997q-4 -25 -27 -25h-182z" />
    <glyph glyph-name="f_f_l.liga" unicode="ffl" horiz-adv-x="1691" 
d="M1100 1110l-6 -53q-3 -10 8 -10h166q9 0 15 -7.5t5 -17.5l-16 -131q-4 -25 -27 -25h-166q-10 0 -10 -10l-102 -831q-4 -25 -27 -25h-182q-10 0 -16.5 7t-6.5 18l103 831q3 10 -9 10h-350q-10 0 -10 -10l-102 -831q-4 -25 -27 -25h-182q-10 0 -16.5 7t-6.5 18l103 831
q3 10 -9 10h-90q-9 0 -15 7.5t-5 17.5l16 131q4 25 27 25h90q10 0 10 10l10 71q20 170 112.5 243t281.5 67h36q10 0 16.5 -7t4.5 -18l-12 -115q-1 -10 -9.5 -17t-19.5 -7h-37q-71 -1 -103 -42t-42 -122l-6 -53q-3 -10 8 -10h350q10 0 10 10l10 71q20 170 112.5 243t281.5 67
h37q10 0 16 -7t4 -18l-14 -115q0 -10 -8 -17t-19 -7h-35q-72 -1 -104.5 -42t-42.5 -122zM1491 1409q0 10 8 17.5t19 7.5h182q10 0 16 -7t4 -18l-170 -1384q-4 -25 -26 -25h-183q-10 0 -16 7t-4 18z" />
    <glyph glyph-name="f_i.liga" unicode="fi" horiz-adv-x="1130" 
d="M1004 1178q-65 0 -100.5 40.5t-26.5 106.5q7 66 52.5 107t108.5 41q65 0 99.5 -41t25.5 -107q-7 -66 -51.5 -106.5t-107.5 -40.5zM668 1047q9 0 15 -7.5t5 -17.5l-18 -139q0 -10 -8 -17.5t-19 -7.5h-160q-9 0 -12 -10l-100 -823q-4 -25 -27 -25h-180q-10 0 -16.5 7
t-6.5 18l103 823q0 10 -11 10h-94q-10 0 -16 7t-4 18l16 139q4 25 27 25h96q10 0 10 10l6 45q23 190 112 264t282 72h41q10 0 16 -7t4 -18l-16 -141q-4 -25 -27 -25h-33q-72 -2 -106.5 -38t-44.5 -122l-4 -30q-3 -10 8 -10h162zM766 0q-9 0 -15.5 7.5t-5.5 17.5l123 997
q4 25 27 25h182q10 0 16.5 -7t6.5 -18l-123 -997q-1 -10 -9.5 -17.5t-17.5 -7.5h-184z" />
    <glyph glyph-name="f_l.liga" unicode="fl" horiz-adv-x="1099" 
d="M668 1047q9 0 15 -7.5t5 -17.5l-18 -139q0 -10 -8 -17.5t-19 -7.5h-160q-9 0 -12 -10l-100 -823q-4 -25 -27 -25h-180q-10 0 -16.5 7t-6.5 18l103 823q0 10 -11 10h-94q-10 0 -16 7t-4 18l16 139q4 25 27 25h96q10 0 10 10l6 45q23 190 112 264t282 72h41q10 0 16 -7
t4 -18l-16 -141q-4 -25 -27 -25h-33q-72 -2 -106.5 -38t-44.5 -122l-4 -30q-3 -10 8 -10h162zM752 0q-10 0 -16.5 7t-6.5 18l170 1384q1 10 9.5 17.5t19.5 7.5h182q10 0 16 -7t4 -18l-169 -1384q-4 -25 -27 -25h-182z" />
    <glyph glyph-name="g_j.liga" unicode="gj" horiz-adv-x="1415" 
d="M1296 1178q-64 0 -98.5 41t-26.5 106q7 62 55.5 103.5t106.5 41.5t96 -41.5t31 -103.5q-8 -65 -54 -106t-110 -41zM713 971q5 -5 8.5 -3.5t3.5 7.5l6 47q4 25 27 25h182q10 0 16.5 -7t6.5 -18l-119 -967q-32 -259 -194.5 -373t-438.5 -92q-21 3 -21 27l27 164q3 25 29 22
q181 -12 265 50.5t103 216.5l2 18q2 6 -2 8t-8 -4q-87 -90 -221 -90q-129 0 -209 78.5t-84 224.5q-3 71 17 221q22 170 45 234q36 140 129.5 221.5t224.5 81.5q137 0 205 -92zM1032 -35l131 1057q0 10 8 17.5t19 7.5h182q10 0 16.5 -7t4.5 -18l-129 -1055q-17 -137 -62 -220
t-135.5 -126t-235.5 -41q-12 0 -18 7t-4 18l25 151q4 25 24 25q74 0 119 47t55 137zM643 348q15 79 27 178q12 87 16 185q0 66 -37 106.5t-100 40.5t-110 -40.5t-66 -106.5q-20 -72 -35 -185q-13 -119 -10 -178q2 -64 40 -105.5t101 -41.5q66 0 112.5 41t61.5 106z" />
    <glyph glyph-name="i_j.liga" unicode="ij" horiz-adv-x="901" 
d="M342 1178q-65 0 -100.5 40.5t-26.5 106.5q7 66 53 107t109 41q65 0 99.5 -41t25.5 -107q-7 -66 -52 -106.5t-108 -40.5zM786 1176q-65 0 -100 42.5t-27 106.5q7 62 56.5 105t107.5 43q57 0 95.5 -43t31.5 -105q-8 -63 -54.5 -106t-109.5 -43zM104 0q-9 0 -15 7.5t-5 17.5
l123 997q4 25 26 25h183q22 0 22 -25l-123 -997q-1 -10 -9 -17.5t-17 -7.5h-185zM289 -420q-25 0 -21 25l19 153q3 25 26 25q100 -1 149 44t60 138l129 1057q1 10 9.5 17.5t17.5 7.5h184q9 0 15.5 -7.5t5.5 -17.5l-129 -1055q-13 -106 -38.5 -174.5t-77.5 -119.5t-137 -72.5
t-212 -20.5z" />
    <glyph glyph-name="hyphen_hyphen.liga" unicode="&#x2d;&#x2d;" horiz-adv-x="1251" 
d="M106 506q-23 0 -20 24l18 156q4 25 27 25h1088q9 0 15 -7.5t5 -17.5l-20 -156q0 -10 -8 -17t-19 -7h-1086z" />
    <glyph glyph-name=".notdef" horiz-adv-x="829" 
d="M-39 10q0 -10 8 -10h811q10 0 13 10l172 1413q1 4 -1.5 7.5t-7.5 3.5h-811q-10 0 -10 -11zM362 498q-23 0 -20 24l6 53q7 55 35.5 98t64.5 71.5t72 55t63.5 62.5t32.5 80q6 57 -21 91t-79 34q-56 0 -94.5 -35.5t-46.5 -93.5l-2 -25q-3 -25 -27 -22l-115 6q-10 0 -16 7
t-4 16l2 18q15 127 106 206t220 79q127 0 193.5 -75t51.5 -200q-7 -57 -29.5 -103.5t-51 -74.5t-61 -54.5t-60 -45.5t-47 -46.5t-23.5 -58.5l-4 -43q-1 -10 -9.5 -17t-17.5 -7h-119zM389 182q-42 0 -67.5 31t-20.5 76q6 43 41 73.5t76 30.5q40 0 68 -31t22 -73
q-4 -44 -39.5 -75.5t-79.5 -31.5z" />
    <glyph glyph-name=".null" 
 />
    <glyph glyph-name="nonmarkingreturn" horiz-adv-x="682" 
 />
    <glyph glyph-name="CR" unicode="&#xd;" horiz-adv-x="397" 
 />
    <glyph glyph-name="space" unicode=" " horiz-adv-x="397" 
 />
    <glyph glyph-name="exclam" unicode="!" horiz-adv-x="606" 
d="M254 483q-10 0 -16.5 7t-4.5 18l89 901q1 10 9 17.5t17 7.5h184q9 0 15.5 -7.5t5.5 -17.5l-135 -901q-4 -25 -27 -25h-137zM260 4q-65 0 -104 46.5t-31 111.5q7 65 60 111t114 46t102.5 -46t32.5 -111q-8 -65 -58.5 -111.5t-115.5 -46.5z" />
    <glyph glyph-name="quotedbl" unicode="&#x22;" horiz-adv-x="626" 
d="M166 977q-11 0 -17.5 7t-5.5 17l27 402q3 24 25 24h176q21 0 18 -24l-70 -402q-1 -10 -9 -17t-19 -7h-125zM498 977q-11 0 -17.5 7t-5.5 17l29 402q3 24 24 24h177q21 0 18 -24l-72 -402q-1 -10 -9 -17t-19 -7h-125z" />
    <glyph glyph-name="numbersign" unicode="#" horiz-adv-x="1275" 
d="M1243 870q-3 -24 -26 -24h-134q-11 0 -14 -10l-63 -246q0 -10 8 -10h100q10 0 16.5 -7t4.5 -18l-19 -154q-3 -24 -26 -24h-132q-11 0 -14 -10l-80 -297q-6 -23 -28 -23l-183 2q-24 0 -18 27l78 291q0 10 -6 10h-224q-12 0 -12 -10l-82 -297q-6 -23 -29 -23l-182 2
q-24 0 -18 27l78 291q0 10 -7 10h-104q-9 0 -15.5 7t-5.5 17l19 154q1 10 9.5 17.5t19.5 7.5h133q12 0 12 10l66 246q3 10 -7 10h-104q-9 0 -15.5 7t-5.5 17l21 156q0 10 8 17.5t19 7.5h133q12 0 12 10l80 297q6 22 29 22l182 -2q27 0 18 -26l-76 -291q-3 -10 7 -10h223
q12 0 12 10l78 297q5 22 29 22l184 -2q24 0 18 -26l-77 -291q0 -10 8 -10h102q10 0 16.5 -7t4.5 -18zM760 580q11 0 14 10l66 246q0 10 -6 10h-226q-12 0 -12 -10l-66 -246q0 -10 9 -10h221z" />
    <glyph glyph-name="dollar" unicode="$" horiz-adv-x="983" 
d="M918 381q-20 -163 -123.5 -267t-266.5 -124q-10 -3 -10 -13l-12 -110q-4 -25 -27 -25h-102q-10 0 -16.5 7t-6.5 18l17 113q2 8 -9 12q-143 23 -216 119.5t-54 242.5l8 74q4 25 27 25h178q10 0 16.5 -7t6.5 -18l-6 -41q-11 -88 32.5 -143.5t130.5 -55.5q84 0 137 51
t62 130q5 37 -6.5 67.5t-42 58t-61 48t-84.5 55t-91 61.5q-59 43 -97 78.5t-73 85t-47.5 110.5t-3.5 136q20 152 115 251t244 122q10 3 12 12l12 127q1 10 9.5 17.5t17.5 7.5h104q10 0 16.5 -7t4.5 -18l-19 -125q0 -8 8 -12q154 -19 231 -121t58 -258l-8 -61q-4 -25 -27 -25
h-178q-10 0 -16 7t-4 18l4 38q11 89 -32 146t-132 57q-79 0 -130.5 -45.5t-61.5 -126.5q-3 -26 0.5 -48t16 -42t25 -34.5t39.5 -34t46.5 -31.5t58 -36t63.5 -40q77 -50 127 -93.5t85.5 -94.5t47.5 -108.5t3 -129.5z" />
    <glyph glyph-name="percent" unicode="%" horiz-adv-x="1593" 
d="M489 827q-126 0 -201.5 91.5t-60.5 222.5q15 129 114 220t224 91t201 -90.5t61 -220.5t-114 -222t-224 -92zM322 0q-13 0 -17 8.5t4 20.5l905 1388q14 17 33 17h117q13 0 16.5 -8.5t-4.5 -20.5l-905 -1389q-13 -16 -33 -16h-116zM504 954q73 0 131 55t67 132t-35 130.5
t-116 53.5q-74 0 -132 -54t-67 -130q-9 -78 35.5 -132.5t116.5 -54.5zM1130 -18q-126 0 -202.5 91t-61.5 222q15 129 115 220t225 91t201 -90.5t61 -220.5t-114 -221.5t-224 -91.5zM1145 109q73 0 130 54.5t66 131.5q9 76 -34.5 130t-114.5 54q-74 0 -132 -54t-67 -130
q-9 -78 35.5 -132t116.5 -54z" />
    <glyph glyph-name="ampersand" unicode="&#x26;" horiz-adv-x="1267" 
d="M1137 31q7 -12 0.5 -21.5t-21.5 -9.5h-201q-14 0 -28 14l-64 90q-5 7 -14 2q-174 -124 -379 -124q-175 0 -272 90t-76 262q9 72 36.5 134.5t70.5 113t88 87.5t104 76q8 8 4 15q-85 134 -107.5 199.5t-13.5 136.5q20 160 130.5 257t273.5 97t255.5 -97.5t73.5 -254.5
q-16 -127 -94 -217t-205 -168q-10 -6 -4 -15q90 -130 146 -215q11 -16 28 -45q8 -8 15 0q58 63 125 158q14 20 32 8l125 -80q18 -15 4 -32q-92 -134 -178 -226q-6 -6 0 -14q20 -30 69.5 -104.5t76.5 -116.5zM645 1233q-60 0 -102 -38.5t-49 -102.5q-5 -38 10.5 -79.5
t73.5 -131.5q3 -8 12 -2q78 52 123.5 103.5t52.5 113.5t-26.5 99.5t-94.5 37.5zM494 186q93 8 204 84q11 8 4 15l-84 123q-21 30 -58.5 86t-55.5 81q-6 9 -15 3q-74 -54 -118 -107.5t-54 -118.5q-12 -80 34.5 -126.5t142.5 -39.5z" />
    <glyph glyph-name="quotesingle" unicode="'" horiz-adv-x="303" 
d="M164 983q-11 0 -17.5 7.5t-5.5 17.5l29 399q3 25 27 25h186q21 0 18 -25l-71 -399q-1 -10 -9.5 -17.5t-19.5 -7.5h-137z" />
    <glyph glyph-name="parenleft" unicode="(" horiz-adv-x="591" 
d="M184 -197q-18 0 -26 17q-81 156 -115 375t-2 481q32 265 121.5 487.5t210.5 376.5q8 16 28 16h177q14 0 18 -8t-4 -20q-102 -167 -182 -384.5t-111 -467.5q-23 -171 -12.5 -335t35 -284t63.5 -225q4 -12 -2.5 -20.5t-20.5 -8.5h-178z" />
    <glyph glyph-name="parenright" unicode=")" horiz-adv-x="591" 
d="M309 -180q-9 -17 -28 -17h-181q-12 0 -16.5 8.5t4.5 20.5q236 390 291 844q58 467 -84 852q-4 12 2 20t18 8h179q18 0 26 -16q82 -154 115.5 -376.5t1.5 -487.5q-32 -263 -120 -482t-208 -374z" />
    <glyph glyph-name="asterisk" unicode="*" horiz-adv-x="755" 
d="M393 807q-23 0 -20 24l24 201q0 12 -12 6l-182 -104q-23 -13 -33 10l-33 82q-7 20 13 33l190 104q9 6 2 13l-166 100q-15 12 -4 35l53 82q14 24 35 10l158 -105q4 -3 8 -1t4 8l25 198q4 25 26 25h88q10 0 16.5 -7t4.5 -18l-27 -198q0 -13 12 -7l183 105q23 13 33 -10
l34 -82q10 -20 -12 -35l-190 -100q-10 -6 0 -13l163 -104q18 -14 2 -33l-53 -84q-17 -24 -35 -10l-157 106q-5 3 -9 1.5t-4 -7.5l-22 -201q-1 -10 -9.5 -17t-17.5 -7h-88z" />
    <glyph glyph-name="plus" unicode="+" horiz-adv-x="923" 
d="M893 729q9 0 15 -7t5 -17l-18 -142q-2 -11 -9.5 -17.5t-17.5 -6.5h-278q-10 0 -10 -11l-35 -284q-4 -25 -27 -25h-137q-10 0 -16.5 7t-4.5 18l35 284q0 11 -10 11h-274q-23 0 -23 24l18 142q2 11 9.5 17.5t17.5 6.5h277q10 0 10 10l37 289q4 25 26 25h138q9 0 15 -7.5
t5 -17.5l-35 -289q-3 -10 8 -10h279z" />
    <glyph glyph-name="comma" unicode="," horiz-adv-x="460" 
d="M43 -186q-24 0 -18 26l114 459q6 23 29 23h160q27 0 18 -27l-164 -461q-9 -20 -30 -20h-109z" />
    <glyph glyph-name="hyphen" unicode="-" horiz-adv-x="722" 
d="M106 514q-10 0 -16 7t-4 18l18 155q1 10 9.5 17.5t17.5 7.5h559q10 0 16.5 -7t4.5 -18l-19 -155q-4 -25 -26 -25h-560z" />
    <glyph glyph-name="period" unicode="." horiz-adv-x="512" 
d="M213 -2q-67 0 -106 45.5t-31 112.5q9 63 61.5 109t112.5 46q61 0 102.5 -46t34.5 -109q-7 -66 -58 -112t-116 -46z" />
    <glyph glyph-name="slash" unicode="/" horiz-adv-x="768" 
d="M29 0q-12 0 -16.5 8t1.5 21l615 1384q11 21 28 21h183q27 0 14 -29l-614 -1385q-10 -20 -29 -20h-182z" />
    <glyph glyph-name="zero" unicode="0" horiz-adv-x="991" 
d="M453 -23q-188 0 -286 115.5t-75 308.5l78 631q25 192 150.5 307t312.5 115q189 0 287 -115t75 -307l-77 -631q-25 -194 -151.5 -309t-313.5 -115zM477 184q84 0 140.5 55t68.5 148l80 655q11 94 -32 149.5t-126 55.5q-82 0 -138.5 -55.5t-68.5 -149.5l-79 -655
q-11 -92 31 -147.5t124 -55.5z" />
    <glyph glyph-name="one" unicode="1" horiz-adv-x="602" 
d="M383 1427q14 7 31 7h190q10 0 16.5 -7t6.5 -18l-170 -1384q-1 -10 -9.5 -17.5t-17.5 -7.5h-184q-10 0 -16.5 7t-4.5 18l144 1171q1 4 -2.5 7t-8.5 1l-176 -49q-12 -3 -19 3t-5 18l16 135q3 18 23 28z" />
    <glyph glyph-name="two" unicode="2" horiz-adv-x="968" 
d="M66 0q-10 0 -16.5 7t-4.5 18l18 157q3 15 15 31q273 292 463 520q173 205 190 328q9 85 -30.5 134.5t-114.5 49.5q-74 0 -126 -49.5t-61 -130.5l-8 -68q-1 -10 -9 -17t-17 -7h-187q-9 0 -15 7t-5 17l12 88q28 165 151 265t293 100q181 0 276 -108.5t73 -278.5
q-23 -184 -207 -404q-41 -51 -95 -113.5t-89 -101.5t-107.5 -119.5t-97.5 -107.5q-5 -5 -3.5 -8.5t7.5 -3.5h493q9 0 15.5 -7.5t5.5 -17.5l-21 -155q0 -10 -7.5 -17.5t-18.5 -7.5h-772z" />
    <glyph glyph-name="three" unicode="3" horiz-adv-x="985" 
d="M911 645q13 -91 0 -192q-12 -102 -51 -193q-47 -128 -159 -202t-261 -74q-155 0 -252 83.5t-108 221.5q-9 68 -2 139q1 12 9 18.5t17 6.5h187q10 0 15.5 -7t4.5 -18q-4 -64 -2 -92q8 -68 48.5 -108t109.5 -40q65 0 114.5 37t73.5 101q24 65 31 141q12 97 4 151
q-11 64 -51 100t-104 36q-32 0 -76 -23q-20 -13 -31 4l-78 105q-17 17 4 34l353 343q9 12 -5 12h-479q-22 0 -22 24l20 156q4 25 27 25h749q9 0 15.5 -7.5t5.5 -17.5l-21 -162q-3 -20 -16 -30l-295 -304q-6 -9 4 -12q94 -17 151.5 -86.5t69.5 -169.5z" />
    <glyph glyph-name="four" unicode="4" horiz-adv-x="1028" 
d="M971 588q9 0 15 -7.5t5 -17.5l-20 -164q-2 -11 -9.5 -17.5t-17.5 -6.5h-72q-10 0 -10 -10l-43 -340q-4 -25 -26 -25h-183q-10 0 -16 7t-4 18l41 340q0 10 -8 10h-537q-23 0 -20 24l16 133q0 7 8 31l430 852q6 19 29 19h194q30 0 17 -29l-402 -805q-6 -12 7 -12h284
q10 0 10 10l33 264q4 25 27 25h182q10 0 16.5 -7t4.5 -18l-31 -264q-3 -10 8 -10h72z" />
    <glyph glyph-name="five" unicode="5" horiz-adv-x="950" 
d="M877 723q41 -110 22 -274q-15 -141 -80 -246q-57 -105 -154 -161t-223 -56q-147 0 -237 76.5t-105 216.5q-4 27 -4 81q0 25 27 25h184q20 0 23 -23v-24l6 -29q9 -58 43 -88.5t90 -30.5q58 0 103 36.5t67 101.5q19 52 29 118q7 82 0 129q-6 60 -42 91.5t-96 31.5
q-115 0 -168 -100q-6 -20 -26 -20h-191q-11 0 -17 7t-5 17l100 807q4 25 27 25h711q10 0 16 -7t4 -18l-18 -156q-2 -11 -9.5 -17.5t-17.5 -6.5h-496q-10 0 -10 -10l-47 -381q-1 -4 0.5 -6t4.5 -1.5t7 3.5q86 71 213 71q213 0 269 -182z" />
    <glyph glyph-name="six" unicode="6" horiz-adv-x="952" 
d="M883 680q33 -103 18 -231q-14 -111 -61 -207q-49 -124 -151 -190t-243 -66q-137 0 -222 65t-107 189q-1 2 -1 6t-1 6q-24 77 -9 188l76 645q22 165 142 265t294 100q168 0 261 -99t73 -261l-6 -48q-3 -24 -26 -24h-183q-23 0 -20 24l2 27q9 76 -26.5 124t-98.5 48
q-71 0 -121 -48.5t-59 -127.5l-29 -221q0 -6 3.5 -8t8.5 2q79 73 195 73q118 0 193.5 -61.5t97.5 -169.5zM635 317q27 73 35 138q9 82 -6 151q-22 109 -129 109t-158 -111q-28 -56 -39 -153q-10 -80 -2 -138q18 -123 135 -123q115 0 164 127z" />
    <glyph glyph-name="seven" unicode="7" horiz-adv-x="874" 
d="M193 0q-12 0 -16.5 8t1.5 21l531 1188q3 12 -9 12h-348q-9 0 -12 -10l-10 -82q-4 -25 -27 -25h-141q-10 0 -16.5 7t-4.5 18l35 272q1 10 9.5 17.5t19.5 7.5h751q10 0 16.5 -7t4.5 -18l-19 -164q-4 -17 -8 -31l-532 -1194q-10 -20 -29 -20h-196z" />
    <glyph glyph-name="eight" unicode="8" horiz-adv-x="960" 
d="M870 625q32 -93 17 -215q-13 -111 -66 -205q-58 -103 -159 -162t-228 -59q-122 0 -207.5 58t-120.5 165q-26 89 -14 205q14 114 66 209q47 81 123 129q11 5 2 14q-60 44 -86 113q-32 86 -21 192q15 123 76 207q59 87 154.5 134.5t211.5 47.5q122 0 208 -50t122 -148
q31 -84 17 -193q-12 -107 -66 -186q-49 -71 -117 -115q-11 -8 -2 -14q64 -45 90 -127zM436 1157q-29 -50 -35 -113q-9 -64 11 -118q28 -90 129 -90q102 0 159 96q27 42 37 115q6 65 -8 110q-33 98 -135 98q-103 0 -158 -98zM618 291q33 60 44 139q6 67 -7 123
q-11 54 -45.5 83.5t-89.5 29.5q-105 0 -158 -113q-28 -58 -34 -125q-10 -69 4 -135q28 -107 131 -107q99 0 155 105z" />
    <glyph glyph-name="nine" unicode="9" horiz-adv-x="944" 
d="M934 993l-76 -645q-22 -165 -142 -264.5t-294 -99.5q-168 0 -261 99t-73 261l6 47q4 25 27 25h182q10 0 16.5 -7t4.5 -18l-2 -26q-9 -77 25.5 -124.5t98.5 -47.5q71 0 121.5 48.5t59.5 127.5l28 221q0 6 -3.5 8t-8.5 -2q-80 -74 -194 -74q-118 0 -193.5 62t-97.5 170
q-35 95 -19 231q15 117 62 207q49 124 150.5 190t242.5 66q137 0 222.5 -65t107.5 -189q1 -2 1 -5.5t1 -4.5q23 -77 8 -191zM664 829q26 53 38 154q11 83 3 137q-18 123 -136 123q-114 0 -163 -127q-26 -62 -35 -137q-10 -89 4 -152q25 -108 131 -108q108 0 158 110z" />
    <glyph glyph-name="colon" unicode=":" horiz-adv-x="604" 
d="M348 688q-65 0 -104 46.5t-31 113.5q7 64 60 110t114 46q60 0 102 -46.5t35 -109.5q-9 -67 -60 -113.5t-116 -46.5zM266 12q-67 0 -105.5 46t-29.5 112q7 64 60 110t114 46q58 0 100 -46.5t35 -109.5q-7 -66 -58 -112t-116 -46z" />
    <glyph glyph-name="semicolon" unicode=";" horiz-adv-x="528" 
d="M307 666q-65 0 -104 46t-31 113q9 63 61.5 109.5t112.5 46.5q61 0 102.5 -46t34.5 -110q-9 -67 -59 -113t-117 -46zM84 -182q-11 0 -17.5 7t-3.5 19l101 449q3 22 26 22h160q26 0 17 -26l-146 -449q-6 -22 -28 -22h-109z" />
    <glyph glyph-name="less" unicode="&#x3c;" horiz-adv-x="923" 
d="M840 117q-3 -14 -12 -20.5t-19 -0.5l-717 363q-17 10 -14 28l20 166q3 20 21 29l807 362q12 6 19 0t5 -20l-22 -176q0 -18 -21 -29l-575 -244q-14 -6 -2 -12l516 -241q17 -9 14 -29z" />
    <glyph glyph-name="equal" unicode="=" horiz-adv-x="923" 
d="M135 743q-10 0 -16 7t-4 18l16 141q1 10 9.5 17.5t17.5 7.5h760q10 0 16 -7t4 -18l-16 -141q-1 -10 -9.5 -17.5t-19.5 -7.5h-758zM86 344q-10 0 -16 7t-4 18l16 141q1 10 9.5 17.5t17.5 7.5h759q10 0 16.5 -7t4.5 -18l-17 -141q-1 -10 -9 -17.5t-17 -7.5h-760z" />
    <glyph glyph-name="greater" unicode="&#x3e;" horiz-adv-x="923" 
d="M59 96q-12 -6 -19 0.5t-5 20.5l20 176q3 19 23 29l575 241q11 6 2 12l-516 244q-17 9 -14 29l20 176q2 14 11.5 20t19.5 0l717 -362q14 -8 14 -29l-20 -166q-3 -18 -23 -28z" />
    <glyph glyph-name="question" unicode="?" horiz-adv-x="905" 
d="M344 438q-10 0 -16 7t-4 18l10 84q7 57 29.5 104.5t54 80.5t68.5 63t73.5 57.5t68 56.5t53.5 68t28 84q9 79 -30.5 127.5t-111.5 48.5q-79 0 -132 -51t-62 -131l-6 -43q-3 -23 -27 -23l-182 8q-10 0 -16.5 8t-4.5 19l4 31q22 178 149 288.5t310 110.5q177 0 270.5 -105.5
t71.5 -279.5q-9 -69 -33.5 -127t-57 -96.5t-69.5 -71t-74 -59.5t-68 -53t-52.5 -59t-26.5 -71l-8 -69q-4 -25 -27 -25h-182zM391 -2q-60 0 -95.5 42.5t-27.5 104.5q7 61 55 104.5t107 43.5q56 0 94.5 -43.5t32.5 -104.5q-7 -61 -56.5 -104t-109.5 -43z" />
    <glyph glyph-name="at" unicode="@" horiz-adv-x="1566" 
d="M989 1315q199 0 336.5 -90t185 -248.5t-1.5 -374.5q-50 -198 -159 -308t-258 -110q-134 0 -195 86q-5 5 -12 0q-78 -84 -201 -84q-102 0 -158 58t-49 157q2 39 31 166q21 92 47 152q38 105 111.5 163t167.5 58q84 0 131 -53q5 -5 8.5 -3.5t3.5 7.5l4 14q6 23 27 23h108
q27 0 21 -27l-99 -387q-19 -80 6 -128t86 -48q70 0 127 70.5t86 191.5q65 260 -43 412.5t-342 152.5q-152 0 -292 -74t-245 -215.5t-145 -324.5q-39 -179 -0.5 -306t137 -196t236.5 -69q91 0 171.5 23.5t133.5 59.5q23 13 33 -6l43 -80q11 -21 -8 -34q-78 -53 -189 -86
t-227 -33q-183 0 -311.5 93.5t-174.5 258t1 389.5q50 222 183.5 394.5t312.5 264t372 91.5zM721 324q44 0 79 28.5t54 75.5q21 53 39 133q19 85 27 135q8 45 -15 74t-67 29q-43 0 -80 -29t-56 -74q-26 -75 -38 -137q-27 -106 -27 -131q-5 -48 17.5 -76t66.5 -28z" />
    <glyph glyph-name="A" unicode="A" horiz-adv-x="1124" 
d="M815 0q-24 0 -27 20l-22 220q0 8 -8 8h-410q-7 0 -10 -8l-80 -220q-6 -20 -29 -20h-190q-25 0 -16 27l530 1386q9 21 31 21h227q24 0 27 -21l190 -1386q3 -27 -22 -27h-191zM412 446q-3 -12 8 -12h311q13 0 10 12l-73 664q-2 6 -7 6t-6 -6z" />
    <glyph glyph-name="B" unicode="B" horiz-adv-x="1077" 
d="M1001 397q-21 -191 -149.5 -294t-316.5 -103h-424q-9 0 -15.5 7.5t-5.5 17.5l170 1384q4 25 27 25h399q201 0 301.5 -97.5t77.5 -289.5q-27 -212 -199 -299q-11 -7 -2 -13q163 -99 137 -338zM479 1229q-9 0 -12 -10l-47 -381q0 -11 10 -11h184q94 0 153 52.5t71 146.5
q11 96 -35 149.5t-139 53.5h-185zM551 207q93 0 152 57.5t71 159.5q14 101 -32 160t-138 59h-196q-10 0 -13 -10l-51 -416q0 -10 8 -10h199z" />
    <glyph glyph-name="C" unicode="C" horiz-adv-x="1058" 
d="M494 -16q-197 0 -303.5 119t-81.5 315l73 602q25 195 159 312.5t331 117.5q198 0 304 -115t83 -307l-2 -12q-1 -10 -9.5 -18.5t-17.5 -8.5l-186 -8q-10 0 -16.5 7t-4.5 18l2 24q12 97 -37 156t-141 59q-94 0 -157.5 -59t-75.5 -156l-76 -629q-12 -96 37.5 -154.5
t142.5 -58.5q92 0 156 59t76 154l2 27q3 23 26 23l185 -9q11 0 16 -4.5t4 -11.5l-2 -16q-23 -193 -156.5 -309.5t-330.5 -116.5z" />
    <glyph glyph-name="D" unicode="D" horiz-adv-x="1083" 
d="M111 0q-9 0 -15.5 7.5t-5.5 17.5l170 1384q4 25 27 25h411q192 0 295 -111t80 -295l-76 -622q-23 -184 -153 -295t-322 -111h-411zM344 215q0 -10 8 -10l197 2q88 0 147 60.5t74 164.5l70 569q13 104 -31.5 166t-132.5 62h-197q-9 0 -12 -10z" />
    <glyph glyph-name="E" unicode="E" horiz-adv-x="1019" 
d="M1057 1253q0 -10 -8 -17t-19 -7h-551q-9 0 -12 -10l-47 -385q0 -11 8 -11h354q11 0 16.5 -7t4.5 -17l-19 -156q-4 -25 -26 -25h-355q-10 0 -10 -10l-49 -393q0 -10 8 -10h553q10 0 16.5 -7t4.5 -18l-19 -155q-4 -25 -26 -25h-770q-9 0 -15.5 7.5t-5.5 17.5l170 1384
q4 25 27 25h770q9 0 15 -7.5t5 -17.5z" />
    <glyph glyph-name="F" unicode="F" horiz-adv-x="970" 
d="M1057 1253q-1 -10 -9.5 -17t-19.5 -7h-549q-9 0 -12 -10l-47 -385q0 -11 8 -11h354q11 0 16.5 -7t4.5 -17l-19 -156q-4 -25 -26 -25h-355q-10 0 -10 -10l-71 -583q-1 -10 -9.5 -17.5t-17.5 -7.5h-184q-9 0 -15.5 7.5t-5.5 17.5l170 1384q4 25 27 25h768q9 0 15 -7.5
t5 -17.5z" />
    <glyph glyph-name="G" unicode="G" horiz-adv-x="1056" 
d="M492 -16q-196 0 -302 117.5t-81 310.5l73 610q25 193 159 310.5t329 117.5q197 0 303.5 -115t83.5 -299l-6 -47q-2 -11 -9.5 -17.5t-17.5 -6.5h-182q-11 0 -16.5 7t-4.5 17l6 47q11 92 -38.5 150.5t-143.5 58.5q-92 0 -155.5 -60.5t-75.5 -158.5l-76 -618
q-12 -98 39 -159t145 -61q91 0 152.5 55t73.5 148l20 162q0 10 -10 10h-180q-10 0 -16.5 7t-4.5 18l18 149q4 25 27 25h397q10 0 16.5 -7t4.5 -18l-39 -319q-25 -202 -157.5 -318t-331.5 -116z" />
    <glyph glyph-name="H" unicode="H" horiz-adv-x="1105" 
d="M889 1409q4 25 26 25h183q10 0 16 -7t4 -18l-170 -1384q-4 -25 -26 -25h-183q-10 0 -16 7t-4 18l72 581q0 10 -11 10h-377q-10 0 -10 -10l-71 -581q-1 -10 -9.5 -17.5t-17.5 -7.5h-184q-9 0 -15.5 7.5t-5.5 17.5l170 1384q4 25 27 25h184q9 0 15.5 -7.5t5.5 -17.5
l-72 -575q0 -11 8 -11h379q10 0 10 11z" />
    <glyph glyph-name="I" unicode="I" horiz-adv-x="483" 
d="M111 0q-9 0 -15.5 7.5t-5.5 17.5l170 1384q4 25 27 25h184q9 0 15.5 -7.5t5.5 -17.5l-170 -1384q-1 -10 -9.5 -17.5t-17.5 -7.5h-184z" />
    <glyph glyph-name="J" unicode="J" horiz-adv-x="1024" 
d="M426 -16q-194 0 -297 112.5t-80 298.5l14 119q4 25 27 25h182q10 0 16.5 -7t4.5 -18l-14 -121q-11 -93 36 -149t136 -56t151 56.5t72 148.5l125 1016q4 25 26 25h183q22 0 22 -25l-125 -1014q-23 -186 -155 -298.5t-324 -112.5z" />
    <glyph glyph-name="K" unicode="K" horiz-adv-x="1091" 
d="M111 0q-9 0 -15.5 7.5t-5.5 17.5l170 1384q4 25 27 25h184q9 0 15.5 -7.5t5.5 -17.5l-74 -590q0 -16 12 -4l481 602q10 17 29 17h201q14 0 17.5 -9.5t-5.5 -21.5l-446 -576q-3 -6 0 -14l305 -784q5 -12 -0.5 -20.5t-18.5 -8.5h-202q-21 0 -27 18l-240 611q-5 11 -14 2
l-129 -158q-6 -6 -6 -12l-53 -436q-1 -10 -9.5 -17.5t-17.5 -7.5h-184z" />
    <glyph glyph-name="L" unicode="L" horiz-adv-x="978" 
d="M111 0q-9 0 -15.5 7.5t-5.5 17.5l170 1384q4 25 27 25h184q9 0 15.5 -7.5t5.5 -17.5l-148 -1194q0 -10 8 -10h547q10 0 16.5 -7t4.5 -18l-19 -155q-4 -25 -27 -25h-763z" />
    <glyph glyph-name="M" unicode="M" horiz-adv-x="1232" 
d="M109 0q-9 0 -15.5 7.5t-5.5 17.5l170 1384q1 10 9.5 17.5t17.5 7.5h182q19 0 25 -19l190 -506q3 -9 12 0l316 506q13 19 30 19h181q10 0 16 -7t4 -18l-170 -1384q-4 -25 -27 -25h-182q-10 0 -16 7t-4 18l112 923q1 5 -1 7.5t-5 1t-6 -6.5l-233 -375q-12 -18 -31 -18h-66
q-18 0 -24 18l-144 377q-1 5 -3.5 6.5t-5 -1t-3.5 -7.5l-113 -925q-1 -10 -9 -17.5t-17 -7.5h-184z" />
    <glyph glyph-name="N" unicode="N" horiz-adv-x="1161" 
d="M111 0q-9 0 -15.5 7.5t-5.5 17.5l170 1384q4 25 27 25h184q19 0 25 -19l325 -891q1 -5 4 -6.5t5.5 1t3.5 7.5l108 883q4 25 27 25h180q10 0 16 -7t4 -18l-170 -1384q0 -10 -7.5 -17.5t-18.5 -7.5h-182q-19 0 -25 18l-328 895q-1 5 -3.5 6.5t-5 -1t-3.5 -7.5l-107 -886
q-1 -10 -9 -17.5t-17 -7.5h-182z" />
    <glyph glyph-name="O" unicode="O" horiz-adv-x="1081" 
d="M496 -18q-198 0 -304 122.5t-81 323.5l69 578q25 199 161.5 321.5t334.5 122.5q201 0 308.5 -122t82.5 -322l-72 -578q-25 -201 -161.5 -323.5t-337.5 -122.5zM522 186q96 0 163 64.5t79 167.5l74 594q12 105 -39.5 169t-147.5 64q-95 0 -160 -64t-79 -169l-72 -594
q-14 -103 36.5 -167.5t145.5 -64.5z" />
    <glyph glyph-name="P" unicode="P" horiz-adv-x="1044" 
d="M739 1436q173 0 266 -118t70 -308q-23 -187 -144 -301.5t-294 -114.5h-244q-9 0 -12 -10l-68 -559q-1 -10 -9 -17.5t-17 -7.5h-185q-9 0 -15 7.5t-5 17.5l170 1386q1 10 9.5 17.5t19.5 7.5h458zM625 784q87 0 147 60.5t72 161.5q13 102 -32 163.5t-132 61.5h-209
q-9 0 -12 -10l-51 -426q0 -11 8 -11h209z" />
    <glyph glyph-name="Q" unicode="Q" horiz-adv-x="1034" 
d="M655 1450q193 0 295.5 -124t77.5 -325l-70 -577q-20 -162 -115.5 -275.5t-240.5 -150.5q-8 -2 -10 -10l-21 -176q-1 -10 -9 -17.5t-17 -7.5h-187q-9 0 -15 7.5t-5 17.5l22 176q0 7 -8 10q-136 36 -204 149.5t-46 276.5l70 577q25 201 158 325t325 124zM727 414l74 606
q12 100 -35 162.5t-137 62.5q-88 0 -149.5 -62.5t-73.5 -162.5l-74 -606q-12 -100 34.5 -163t133.5 -63q89 0 152 63t75 163z" />
    <glyph glyph-name="R" unicode="R" horiz-adv-x="1067" 
d="M752 0q-20 0 -27 20l-143 590q-4 8 -9 8h-170q-10 0 -10 -10l-71 -583q-1 -10 -9.5 -17.5t-17.5 -7.5h-184q-9 0 -15.5 7.5t-5.5 17.5l170 1386q1 10 9.5 17.5t17.5 7.5h458q173 0 264.5 -115.5t69.5 -302.5q-17 -135 -88 -232t-180 -139q-11 -4 -8 -14l160 -604
q3 -12 -2.5 -20.5t-18.5 -8.5h-190zM479 1231q-9 0 -12 -10l-49 -408q0 -10 8 -10h209q84 0 142.5 57.5t70.5 153.5q12 99 -32 158t-128 59h-209z" />
    <glyph glyph-name="S" unicode="S" horiz-adv-x="1024" 
d="M477 -16q-197 0 -303 107t-84 284l6 53q4 25 27 25h178q10 0 16.5 -7t6.5 -18l-7 -41q-11 -87 42.5 -143t152.5 -56q91 0 148.5 50t66.5 129q4 34 -4.5 63t-22.5 50t-50 48t-65.5 45.5t-90.5 53.5q-84 48 -128.5 78.5t-100.5 85t-75.5 123t-9.5 155.5q23 177 149 279
t312 102q197 0 303.5 -111t83.5 -292l-4 -43q-1 -10 -9.5 -17.5t-19.5 -7.5h-180q-10 0 -16 7t-4 18l4 38q11 89 -38.5 146t-148.5 57q-86 0 -140 -45.5t-64 -128.5q-5 -42 4 -73.5t41 -62t71.5 -56t114.5 -66.5q139 -89 178 -120q115 -92 137 -201q10 -53 2 -115
q-22 -179 -152.5 -286t-326.5 -107z" />
    <glyph glyph-name="T" unicode="T" horiz-adv-x="1026" 
d="M1075 1434q10 0 16.5 -7t6.5 -18l-21 -158q-3 -24 -26 -24h-308q-9 0 -12 -10l-145 -1192q-1 -10 -9.5 -17.5t-17.5 -7.5h-184q-9 0 -15.5 7.5t-5.5 17.5l148 1192q0 10 -10 10h-295q-11 0 -16.5 7t-4.5 17l19 158q4 25 26 25h854z" />
    <glyph glyph-name="U" unicode="U" horiz-adv-x="1105" 
d="M510 -16q-196 0 -301 122.5t-80 323.5l119 979q1 10 9 17.5t17 7.5h185q9 0 15 -7.5t5 -17.5l-123 -991q-12 -103 37.5 -166.5t143.5 -63.5t158.5 63.5t76.5 166.5l123 991q0 10 8 17.5t19 7.5h182q10 0 16 -7t4 -18l-120 -979q-25 -201 -160.5 -323.5t-333.5 -122.5z
" />
    <glyph glyph-name="V" unicode="V" horiz-adv-x="1073" 
d="M397 0q-21 0 -24 20l-183 1387q-1 13 6.5 20t18.5 7h197q21 0 24 -21l107 -1030q1 -5 3.5 -7t5 0t3.5 7l354 1028q10 23 29 23h195q25 0 16 -27l-522 -1387q-9 -20 -31 -20h-199z" />
    <glyph glyph-name="W" unicode="W" horiz-adv-x="1521" 
d="M346 0q-21 0 -24 20l-146 1387q-1 13 6.5 20t20.5 7h190q9 0 16 -6.5t7 -16.5l73 -895q1 -4 3.5 -5.5t5.5 0.5t4 7l280 893q6 23 29 23h176q9 0 16 -6.5t7 -16.5l73 -895q0 -5 2.5 -7t5 0t3.5 7l284 895q7 23 29 23h186q11 0 17 -7t2 -20l-469 -1384q-7 -23 -29 -23h-176
q-23 0 -23 23l-71 923q-2 6 -7 6t-6 -6l-286 -923q-6 -23 -29 -23h-170z" />
    <glyph glyph-name="X" unicode="X" horiz-adv-x="1069" 
d="M43 0q-12 0 -16.5 8t2.5 21l417 682q5 7 3 12l-250 682q-4 13 2 21t18 8h193q20 0 26 -19l168 -477q3 -9 12 0l283 477q13 19 31 19h190q13 0 17.5 -8t-2.5 -21l-418 -682q-4 -6 -2 -12l250 -682q4 -13 -2 -21t-19 -8h-190q-21 0 -27 18l-166 476q-6 9 -12 0l-285 -476
q-12 -18 -30 -18h-193z" />
    <glyph glyph-name="Y" unicode="Y" horiz-adv-x="1048" 
d="M393 2q-10 0 -16 7t-4 18l67 553v12l-243 813q-3 12 2.5 20.5t17.5 8.5h195q23 0 26 -19l146 -553q6 -15 12 0l281 553q9 19 30 19h197q13 0 16.5 -8.5t-2.5 -20.5l-446 -813q-2 -6 -2 -12l-68 -553q-1 -10 -9.5 -17.5t-19.5 -7.5h-180z" />
    <glyph glyph-name="Z" unicode="Z" horiz-adv-x="954" 
d="M45 0q-9 0 -15 7.5t-5 17.5l20 170q3 15 12 30l680 992q6 12 -6 12h-534q-11 0 -16.5 7t-4.5 17l19 156q4 25 26 25h774q9 0 15.5 -7.5t5.5 -17.5l-21 -170q-3 -17 -12 -31l-680 -991q-9 -12 6 -12h535q10 0 16 -7t4 -18l-18 -155q-1 -10 -9.5 -17.5t-17.5 -7.5h-774z
" />
    <glyph glyph-name="bracketleft" unicode="[" horiz-adv-x="727" 
d="M10 -283q-9 0 -15 7.5t-5 17.5l227 1853q1 10 9.5 17.5t17.5 7.5h401q10 0 16.5 -7t6.5 -18l-21 -155q-4 -25 -26 -25h-185q-9 0 -12 -10l-180 -1471q0 -10 8 -10h188q9 0 15.5 -7t5.5 -17l-21 -158q0 -10 -7.5 -17.5t-18.5 -7.5h-404z" />
    <glyph glyph-name="backslash" unicode="\" horiz-adv-x="768" 
d="M682 29q6 -29 -20 -29h-183q-17 0 -24 20l-275 1385q-3 13 4 21t19 8h182q19 0 23 -21z" />
    <glyph glyph-name="bracketright" unicode="]" horiz-adv-x="727" 
d="M594 -258q-4 -25 -27 -25h-403q-10 0 -16.5 7t-4.5 18l19 158q1 10 9 17t17 7h189q10 0 10 10l180 1471q3 10 -8 10h-184q-10 0 -16.5 7t-4.5 18l19 155q4 25 26 25h402q10 0 16 -7t4 -18z" />
    <glyph glyph-name="asciicircum" unicode="^" horiz-adv-x="872" 
d="M125 616q-12 0 -17 8t1 21l354 768q11 21 29 21h157q19 0 23 -21l170 -768q3 -13 -4.5 -21t-18.5 -8h-147q-20 0 -23 21l-104 532q0 5 -2.5 7t-5.5 0t-5 -7l-231 -532q-11 -21 -29 -21h-147z" />
    <glyph glyph-name="underscore" unicode="_" horiz-adv-x="907" 
d="M25 0q-10 0 -16.5 7t-6.5 18l16 133q1 10 9.5 17t19.5 7h782q11 0 16.5 -7t4.5 -17l-16 -133q-4 -25 -27 -25h-782z" />
    <glyph glyph-name="grave" unicode="`" horiz-adv-x="442" 
d="M498 1206q6 -13 -1 -20.5t-20 -7.5h-143q-21 0 -27 16l-114 209q-6 12 -0.5 21.5t18.5 9.5h170q20 0 27 -17z" />
    <glyph glyph-name="a" unicode="a" horiz-adv-x="978" 
d="M729 1022q4 25 27 25h184q9 0 15.5 -7.5t5.5 -17.5l-123 -997q-4 -25 -27 -25h-182q-11 0 -17.5 7.5t-5.5 17.5l8 53q0 6 -4 8t-8 -4q-85 -98 -229 -98q-243 0 -271 311q-10 96 7 231q19 146 45 226q101 311 358 311q143 0 199 -94q5 -6 8.5 -4t3.5 8zM621 317
q32 79 45 207q17 134 4 211q-16 123 -119 123q-106 0 -160 -121q-36 -73 -53 -213q-14 -135 -2 -205q20 -131 131 -131q103 0 154 129z" />
    <glyph glyph-name="b" unicode="b" horiz-adv-x="980" 
d="M934 752q7 -81 -8 -226q-16 -126 -52 -231q-104 -311 -348 -311q-142 0 -204 98q-3 6 -7 4t-6 -8l-6 -53q-4 -25 -27 -25h-182q-22 0 -22 25l170 1384q2 11 10 18t18 7h183q10 0 16 -7t4 -18l-53 -436q-2 -6 2 -8t8 4q78 94 223 94q260 0 281 -311zM647 319q30 74 47 205
q16 133 0 213q-23 121 -129 121q-104 0 -151 -123q-29 -68 -47 -211q-17 -134 -7 -207q20 -129 123 -129q113 0 164 131z" />
    <glyph glyph-name="c" unicode="c" horiz-adv-x="948" 
d="M446 -16q-160 0 -252.5 85t-95.5 232q-5 83 13 225q14 117 43 224q39 142 153.5 227.5t272.5 85.5q153 0 247.5 -81t102.5 -212q0 -35 -2 -51q0 -23 -25 -27l-182 -18q-12 -2 -18 4t-5 18q0 23 -2 31q-2 56 -40.5 93.5t-102.5 37.5q-67 0 -115 -40.5t-65 -108.5
q-16 -63 -33 -185q-13 -122 -10 -188q0 -67 37.5 -107.5t103.5 -40.5t114 40t62 98l6 20q1 10 10.5 17.5t18.5 5.5l178 -17q24 -4 19 -26q-1 -5 -2 -11.5t-2.5 -13.5t-2.5 -10q-35 -140 -151 -223.5t-275 -83.5z" />
    <glyph glyph-name="d" unicode="d" horiz-adv-x="980" 
d="M774 1409q1 10 9.5 17.5t17.5 7.5h184q10 0 16.5 -7t4.5 -18l-170 -1384q-4 -25 -27 -25h-182q-10 0 -16.5 7t-6.5 18l8 53q0 6 -4 8t-8 -4q-85 -98 -229 -98q-243 0 -271 311q-10 101 6 231q18 141 46 226q101 311 358 311q143 0 199 -94q5 -6 8.5 -4t3.5 8zM618 317
q33 82 46 207q18 141 4 211q-16 123 -119 123q-106 0 -160 -121q-36 -73 -53 -213q-14 -135 -2 -205q20 -131 131 -131q102 0 153 129z" />
    <glyph glyph-name="e" unicode="e" horiz-adv-x="960" 
d="M485 186q120 3 183 115q10 23 30 16l144 -38q21 -7 12 -31q-52 -123 -156.5 -193.5t-248.5 -70.5q-151 0 -240 79t-100 213q-14 109 4 256q17 129 34 199q37 153 150.5 242.5t277.5 89.5q180 0 266.5 -99t80.5 -276q-2 -38 -19 -223q-3 -25 -26 -25h-535q-10 0 -10 -10
q-6 -53 -6 -92q2 -68 45 -110t114 -42zM549 858q-65 0 -110.5 -38.5t-63.5 -104.5q-17 -62 -21 -94q0 -11 8 -11h316q12 0 12 11q4 61 2 88q0 69 -37.5 109t-105.5 40z" />
    <glyph glyph-name="f" unicode="f" horiz-adv-x="661" 
d="M668 1047q9 0 15 -7.5t5 -17.5l-18 -139q0 -10 -8 -17.5t-19 -7.5h-160q-9 0 -12 -10l-100 -823q-4 -25 -27 -25h-180q-10 0 -16.5 7t-6.5 18l103 823q0 10 -11 10h-94q-10 0 -16 7t-4 18l16 139q4 25 27 25h96q10 0 10 10l6 45q23 190 112 264t282 72h41q10 0 16 -7
t4 -18l-16 -141q-4 -25 -27 -25h-33q-72 -2 -106.5 -38t-44.5 -122l-4 -30q-3 -10 8 -10h162z" />
    <glyph glyph-name="g" unicode="g" horiz-adv-x="972" 
d="M731 1022q4 25 27 25h182q10 0 16.5 -7t6.5 -18l-119 -967q-32 -259 -194.5 -373t-438.5 -92q-21 3 -21 27l27 164q3 25 29 22q181 -12 265 50.5t103 216.5l2 18q2 6 -2 8t-8 -4q-87 -90 -221 -90q-129 0 -209 78.5t-84 224.5q-3 71 17 221q22 170 45 234
q36 140 129.5 221.5t224.5 81.5q137 0 205 -92q5 -5 8.5 -3.5t3.5 7.5zM643 348q15 79 27 178q12 87 16 185q0 66 -37 106.5t-100 40.5t-110 -40.5t-66 -106.5q-20 -72 -35 -185q-13 -119 -10 -178q2 -64 40 -105.5t101 -41.5q66 0 112.5 41t61.5 106z" />
    <glyph glyph-name="h" unicode="h" horiz-adv-x="974" 
d="M659 1063q145 0 215 -94t50 -260l-84 -684q-4 -25 -27 -25h-184q-9 0 -15.5 7.5t-5.5 17.5l80 651q11 84 -24 133t-105 49q-63 0 -110 -40.5t-64 -110.5l-84 -682q-4 -25 -27 -25h-182q-22 0 -22 25l170 1384q2 11 10 18t18 7h183q10 0 16 -7t4 -18l-53 -440q-2 -6 2 -8
t8 4q92 98 231 98z" />
    <glyph glyph-name="i" unicode="i" horiz-adv-x="468" 
d="M342 1178q-65 0 -100.5 40.5t-26.5 106.5q7 66 53 107t109 41q65 0 99.5 -41t25.5 -107q-7 -66 -52 -106.5t-108 -40.5zM104 0q-9 0 -15 7.5t-5 17.5l123 997q4 25 26 25h183q22 0 22 -25l-123 -997q-1 -10 -9 -17.5t-17 -7.5h-185z" />
    <glyph glyph-name="j" unicode="j" horiz-adv-x="448" 
d="M334 1176q-65 0 -100 42.5t-27 106.5q7 62 56 105t106 43q58 0 96 -43t31 -105q-8 -63 -53.5 -106t-108.5 -43zM-164 -420q-22 0 -22 25l20 153q3 25 27 25q99 -1 148.5 44t60.5 138l129 1057q4 25 26 25h185q9 0 15 -7.5t5 -17.5l-131 -1055q-13 -106 -38.5 -174.5
t-77 -119.5t-136 -72.5t-211.5 -20.5z" />
    <glyph glyph-name="k" unicode="k" horiz-adv-x="950" 
d="M92 0q-22 0 -22 25l170 1384q2 11 10 18t18 7h183q10 0 16 -7t4 -18l-90 -733q0 -13 12 -4l312 360q15 15 32 15h201q14 0 16 -9.5t-8 -21.5l-268 -318q-4 -9 -2 -14l186 -655q3 -12 -3 -20.5t-19 -8.5h-191q-21 0 -24 20l-121 490q-3 11 -12 2l-148 -166q-4 -8 -4 -12
l-39 -309q-4 -25 -27 -25h-182z" />
    <glyph glyph-name="l" unicode="l" horiz-adv-x="438" 
d="M90 0q-22 0 -22 25l170 1384q2 11 10 18t18 7h183q10 0 16 -7t4 -18l-170 -1384q-4 -25 -27 -25h-182z" />
    <glyph glyph-name="m" unicode="m" horiz-adv-x="1484" 
d="M1184 1063q140 0 205 -94t45 -262l-84 -682q-4 -25 -27 -25h-180q-10 0 -16.5 7t-4.5 18l80 649q9 86 -24.5 135t-98.5 49q-69 0 -116.5 -49t-57.5 -133l-80 -651q-4 -25 -26 -25h-183q-10 0 -16 7t-4 18l78 649q10 85 -23 134.5t-98 49.5q-69 0 -116.5 -49t-57.5 -133
l-80 -651q-4 -25 -27 -25h-180q-22 0 -22 25l123 997q1 10 9 17.5t17 7.5h182q9 0 15.5 -7.5t5.5 -17.5l-6 -51q-1 -6 2 -7.5t8 3.5q93 96 233 96q87 0 146 -37.5t86 -107.5q7 -11 16 4q54 73 127 107t150 34z" />
    <glyph glyph-name="n" unicode="n" horiz-adv-x="974" 
d="M659 1063q145 0 215 -94t50 -260l-84 -684q-4 -25 -27 -25h-184q-9 0 -15.5 7.5t-5.5 17.5l80 651q11 84 -24 133t-105 49q-63 0 -110 -40.5t-64 -110.5l-84 -682q-4 -25 -27 -25h-182q-22 0 -22 25l123 997q1 10 9 17.5t17 7.5h184q9 0 15.5 -7.5t5.5 -17.5l-6 -53
q-2 -6 2 -8t8 4q92 98 231 98z" />
    <glyph glyph-name="o" unicode="o" horiz-adv-x="983" 
d="M451 -16q-161 0 -254.5 85.5t-98.5 235.5q-3 82 13 219q13 119 43 221q40 146 155 232t277 86q157 0 249 -85.5t97 -229.5q6 -97 -8 -222q-17 -118 -45 -221q-41 -150 -155 -235.5t-273 -85.5zM475 188q64 0 113 41.5t69 112.5q19 74 33 182q14 118 12 181
q-1 70 -40.5 111.5t-104.5 41.5q-66 0 -115 -41t-69 -112q-24 -105 -33 -181q-8 -59 -12 -182q3 -71 42 -112.5t105 -41.5z" />
    <glyph glyph-name="p" unicode="p" horiz-adv-x="989" 
d="M938 752q10 -101 -6 -232q-19 -144 -45 -225q-101 -311 -359 -311q-142 0 -198 94q-4 6 -8.5 4t-4.5 -8l-53 -436q-1 -10 -9 -17.5t-17 -7.5h-185q-10 0 -16 7t-4 18l170 1384q4 25 26 25h183q22 0 22 -25l-8 -53q0 -6 4 -8t8 4q85 98 230 98q124 0 190 -78t80 -233z
M649 309q36 73 53 213q15 139 3 205q-20 131 -132 131q-102 0 -153 -129q-32 -79 -45 -207q-18 -141 -4 -211q16 -123 118 -123q106 0 160 121z" />
    <glyph glyph-name="q" unicode="q" horiz-adv-x="989" 
d="M727 1022q1 10 9.5 17.5t17.5 7.5h184q9 0 15 -7.5t5 -17.5l-170 -1384q-1 -10 -9 -17.5t-17 -7.5h-184q-9 0 -15.5 7.5t-5.5 17.5l53 436q2 6 -2 8t-8 -4q-78 -94 -223 -94q-260 0 -281 311q-8 88 10 225q12 123 50 232q107 311 348 311q143 0 205 -98q3 -6 6.5 -4
t5.5 8zM616 311q35 82 48 211q17 131 6 207q-20 129 -123 129q-110 0 -164 -131q-30 -74 -47 -205q-16 -133 0 -213q23 -121 131 -121q102 0 149 123z" />
    <glyph glyph-name="r" unicode="r" horiz-adv-x="686" 
d="M643 1059q53 0 94 -25q12 -7 8 -30l-57 -187q-6 -24 -29 -14q-54 16 -102 6q-70 -8 -122 -64t-62 -141l-72 -579q-4 -25 -27 -25h-182q-22 0 -22 25l123 997q1 10 9 17.5t17 7.5h184q9 0 15.5 -7.5t5.5 -17.5l-12 -94q0 -17 10 -4q86 135 221 135z" />
    <glyph glyph-name="s" unicode="s" horiz-adv-x="886" 
d="M412 -12q-172 0 -265.5 79.5t-78.5 208.5l2 17q3 24 26 24h174q9 0 15.5 -4t5.5 -10l-2 -16q-6 -50 35 -85.5t110 -35.5q65 0 108.5 32.5t49.5 82.5q3 21 -4 38.5t-17.5 29t-34.5 24.5t-40.5 19.5t-51 19.5t-51.5 20q-47 16 -80 31t-73.5 42t-64 58.5t-36.5 80t-6 106.5
q18 144 128 226.5t274 82.5q168 0 258 -85.5t73 -225.5v-3q-3 -24 -26 -24h-168q-10 0 -16 4.5t-5 11.5l2 17q6 51 -32 84.5t-107 33.5q-65 0 -109 -32t-49 -80q-3 -28 6.5 -49t40.5 -39.5t52 -27t72 -26.5l7.5 -3t7 -2.5l7.5 -2.5q52 -19 84.5 -33t77 -42t68.5 -58.5
t38.5 -79t7.5 -106.5q-19 -140 -130.5 -221.5t-282.5 -81.5z" />
    <glyph glyph-name="t" unicode="t" horiz-adv-x="651" 
d="M657 891q-4 -25 -26 -25h-162q-10 0 -10 -10l-64 -512q-9 -75 16 -106t87 -31h37q10 0 16 -7t4 -18l-18 -153q-1 -10 -9 -17.5t-18 -9.5h-84q-72 0 -120.5 10.5t-86.5 37t-52 78t-5 128.5l74 600q3 10 -9 10h-92q-9 0 -15 7.5t-5 17.5l16 131q1 10 9.5 17.5t17.5 7.5h92
q10 0 10 10l29 233q1 10 9 17.5t17 7.5h177q10 0 16 -7t4 -18l-29 -233q0 -10 9 -10h161q10 0 16.5 -7t4.5 -18z" />
    <glyph glyph-name="u" unicode="u" horiz-adv-x="970" 
d="M721 1022q1 10 9.5 17.5t17.5 7.5h184q9 0 15 -7.5t5 -17.5l-123 -997q-4 -25 -26 -25h-182q-10 0 -16.5 7t-6.5 18l8 55q0 6 -4 7t-8 -5q-78 -96 -223 -96q-65 0 -119 19.5t-93 58t-56.5 102t-6.5 145.5l86 711q1 10 9.5 17.5t19.5 7.5h182q10 0 16.5 -7t4.5 -18
l-80 -651q-11 -87 22.5 -135t106.5 -48q72 0 120.5 51t57.5 136z" />
    <glyph glyph-name="v" unicode="v" horiz-adv-x="913" 
d="M313 0q-21 0 -24 20l-156 1000q-1 12 5.5 19.5t17.5 7.5h200q22 0 25 -21l74 -680q0 -5 2 -7t4.5 0t3.5 7l242 680q9 21 28 21l199 -3q27 0 18 -26l-401 -998q-10 -20 -31 -20h-207z" />
    <glyph glyph-name="w" unicode="w" horiz-adv-x="1345" 
d="M281 0q-24 0 -27 20l-123 1000q-1 13 6.5 20t18.5 7h180q9 0 15.5 -6.5t6.5 -16.5l54 -678q1 -5 3 -6.5t4.5 0t4.5 6.5l225 678q1 10 9.5 16.5t17.5 6.5h162q22 0 22 -23l62 -678q1 -5 3.5 -7t5 0t3.5 7l225 678q7 23 29 23l178 -3q27 0 18 -26l-370 -998q-9 -20 -31 -20
h-184q-20 0 -23 20l-65 615q-1 5 -4 7t-5.5 0t-3.5 -7l-209 -612q-7 -23 -28 -23h-180z" />
    <glyph glyph-name="x" unicode="x" horiz-adv-x="925" 
d="M25 0q-14 0 -18.5 8t3.5 21l338 489q2 4 2 12l-219 488q-6 13 1 21t20 8h194q23 0 29 -17l131 -297q3 -12 12 0l199 297q10 17 31 17h204q14 0 18.5 -7.5t-3.5 -21.5l-338 -488q-3 -6 0 -12l217 -489q6 -13 -1 -21t-20 -8h-196q-23 0 -29 16l-129 301q-3 10 -10 0
l-203 -301q-10 -16 -31 -16h-202z" />
    <glyph glyph-name="y" unicode="y" horiz-adv-x="886" 
d="M2 -408q-10 0 -10 25l18 147q1 10 6.5 17.5t10.5 7.5h8q108 0 159.5 40.5t90.5 164.5q5 4 2 12l-164 1012q-1 12 5 20.5t17 8.5h197q22 0 25 -21l73 -684q1 -5 3.5 -7t5.5 0t4 7l239 684q9 21 29 21h197q12 0 16.5 -8.5t-0.5 -20.5l-440 -1075q-37 -87 -67 -141
t-68 -98.5t-85 -66.5t-109.5 -33.5t-150.5 -11.5h-12z" />
    <glyph glyph-name="z" unicode="z" horiz-adv-x="819" 
d="M35 0q-9 0 -15.5 7.5t-5.5 17.5l23 174q0 10 12 30l490 590q3 4 0 8t-9 4h-383q-10 0 -16 7t-4 18l20 166q4 25 27 25h647q10 0 16.5 -7t4.5 -18l-21 -174q-3 -20 -14 -31l-498 -590q-3 -5 -1.5 -8.5t7.5 -3.5h412q10 0 16.5 -7t4.5 -18l-19 -165q-1 -10 -9.5 -17.5
t-19.5 -7.5h-665z" />
    <glyph glyph-name="braceleft" unicode="{" horiz-adv-x="663" 
d="M354 -283q-231 0 -204 246l53 432q10 86 -11 131t-77 54q-22 3 -19 24l17 141q3 24 26 27q113 15 133 180l52 422q15 122 82 184t182 62h151q10 0 16.5 -7t4.5 -18l-19 -155q-1 -10 -9 -17.5t-17 -7.5h-53q-48 0 -80 -36t-39 -101l-43 -354q-23 -186 -138 -242
q-10 -7 -2 -12q99 -57 78 -246l-45 -363q-7 -65 15.5 -101t70.5 -36h51q11 0 16.5 -7t4.5 -17l-19 -158q-4 -25 -26 -25h-152z" />
    <glyph glyph-name="bar" unicode="|" horiz-adv-x="358" 
d="M27 -164q-9 0 -15.5 7.5t-5.5 17.5l205 1671q1 10 9.5 17t19.5 7h182q23 0 20 -24l-204 -1671q-1 -10 -9.5 -17.5t-17.5 -7.5h-184z" />
    <glyph glyph-name="braceright" unicode="}" horiz-adv-x="663" 
d="M160 -283h-152q-9 0 -15 7.5t-5 17.5l20 158q2 11 9.5 17.5t17.5 6.5h51q48 0 80 36t41 101l43 363q23 188 139 246q9 6 0 12q-51 28 -70 86.5t-8 155.5l45 354q7 65 -16.5 101t-71.5 36h-51q-10 0 -16 7t-4 18l18 155q1 10 9.5 17.5t17.5 7.5h151q235 0 205 -246
l-51 -422q-20 -165 86 -180q23 -3 20 -27l-16 -141q-3 -21 -27 -24q-113 -18 -133 -185l-53 -432q-14 -122 -80.5 -184t-183.5 -62z" />
    <glyph glyph-name="asciitilde" unicode="~" horiz-adv-x="995" 
d="M686 434q-51 0 -89 16t-81 46q-32 20 -46 28.5t-42.5 18.5t-54.5 10q-84 0 -146 -76q-17 -20 -32 -8l-93 66q-15 12 -6 32q42 86 120 139.5t165 53.5q81 0 160 -53q6 -4 23.5 -15.5t25 -16t23 -13t26.5 -12t26.5 -6.5t30.5 -3q65 0 125 74q15 21 35 8l100 -72
q19 -15 7 -33q-50 -82 -123 -133t-154 -51z" />
    <glyph glyph-name="uni00A0" unicode="&#xa0;" horiz-adv-x="397" 
 />
    <glyph glyph-name="exclamdown" unicode="&#xa1;" horiz-adv-x="606" 
d="M438 1450q65 0 104 -46.5t31 -111.5q-7 -65 -60 -111t-114 -46t-101.5 46t-33.5 111q8 65 57.5 111.5t116.5 46.5zM287 946q4 25 26 25h138q10 0 16 -7t4 -18l-86 -901q-4 -25 -27 -25h-182q-22 0 -22 25z" />
    <glyph glyph-name="cent" unicode="&#xa2;" horiz-adv-x="948" 
d="M670 510l6 20q1 10 10.5 17.5t20.5 5.5l176 -16q23 -3 20 -27q-3 -7 -8 -35q-29 -119 -118 -198t-216 -101q-10 -3 -10 -12l-12 -137q0 -10 -8 -17.5t-19 -7.5h-147q-10 0 -16.5 7t-6.5 18l25 141q0 9 -9 12q-110 26 -172 106t-65 199q-6 89 12 226q14 115 43 223
q32 116 113.5 194.5t199.5 106.5q8 4 11 12l10 142q2 11 9.5 17.5t17.5 6.5h149q11 0 16.5 -7t4.5 -17l-23 -138q0 -9 8 -12q116 -23 185 -99t75 -186q0 -35 -2 -51q0 -23 -24 -26l-183 -19q-12 -1 -17 4.5t-5 18.5q0 22 -2 30q-2 56 -41 93.5t-103 37.5q-67 0 -115 -40.5
t-65 -108.5q-16 -64 -33 -184q-13 -122 -10 -189q0 -67 37.5 -107t104.5 -40q66 0 114 39.5t62 97.5z" />
    <glyph glyph-name="sterling" unicode="&#xa3;" horiz-adv-x="1114" 
d="M432 217q-3 -3 -4 -6t0.5 -4.5t5.5 -1.5h586q10 0 16 -7t4 -18l-18 -155q-4 -25 -27 -25h-823q-9 0 -15 7.5t-5 17.5l20 161q3 19 18 29q85 67 103 213l20 166q0 10 -8 10h-119q-22 0 -22 25l18 143q4 25 27 25h119q9 0 12 10l27 213q23 197 139.5 310.5t292.5 119.5
q151 4 238.5 -75.5t109.5 -233.5q3 -26 -23 -29l-176 -27q-23 -3 -26 19q-12 75 -47 109t-93 32q-160 -6 -184 -217l-29 -221q0 -10 11 -10h315q10 0 16 -7t4 -18l-18 -143q-4 -25 -27 -25h-315q-9 0 -12 -10l-19 -164q-16 -134 -92 -213z" />
    <glyph glyph-name="currency" unicode="&#xa4;" horiz-adv-x="1093" 
d="M999 621q-16 -124 -84 -220q-3 -11 0 -14l111 -131q17 -17 -4 -35l-125 -100q-19 -16 -35 0l-104 123q-5 5 -15 2q-102 -60 -219 -60q-112 0 -198 56q-10 3 -15 -2l-129 -119q-21 -17 -35 0l-100 100q-15 15 4 35l135 123q5 5 2 14q-49 104 -34 228q15 118 86 217
q4 10 0 14l-111 131q-15 19 4 35l125 100q21 17 35 0l104 -123q3 -5 13 -2q105 60 221 60q124 0 211 -66q9 -3 14 2l143 129q19 16 35 0l99 -100q14 -16 -5 -35l-153 -139q-5 -5 -2 -15q40 -98 26 -208zM352 621q-12 -95 46.5 -163.5t150.5 -68.5q93 0 167.5 68t84.5 164
q12 95 -46 163t-149 68q-94 0 -168 -68t-86 -163z" />
    <glyph glyph-name="yen" unicode="&#xa5;" horiz-adv-x="1206" 
d="M1184 1434q12 0 16.5 -8t-2.5 -21l-385 -703q-4 -12 4 -12h201q23 0 20 -24l-10 -86q-4 -25 -27 -25h-245q-10 0 -13 -10l-12 -111q-3 -10 8 -10h246q10 0 16.5 -7t4.5 -18l-11 -86q-3 -24 -26 -24h-246q-9 0 -12 -10l-31 -252q0 -10 -8 -17.5t-19 -7.5h-180q-10 0 -16 7
t-4 18l30 252q0 10 -8 10h-250q-9 0 -15 7t-5 17l10 86q1 10 9.5 17.5t19.5 7.5h248q10 0 10 10l14 111q0 10 -8 10h-250q-9 0 -15 7.5t-5 17.5l10 86q1 10 9 17t17 7h203q5 0 7 4t1 8l-209 703q-3 12 2.5 20.5t18.5 8.5h195q20 0 26 -19l146 -553q6 -15 12 0l280 553
q10 19 31 19h197z" />
    <glyph glyph-name="brokenbar" unicode="&#xa6;" horiz-adv-x="358" 
d="M147 805q-22 0 -22 24l86 703q1 10 9.5 17t19.5 7h182q23 0 20 -24l-86 -703q-3 -24 -26 -24h-183zM27 -164q-9 0 -15.5 7.5t-5.5 17.5l86 698q4 25 27 25h184q9 0 15.5 -7.5t5.5 -17.5l-86 -698q-1 -10 -9.5 -17.5t-17.5 -7.5h-184z" />
    <glyph glyph-name="section" unicode="&#xa7;" horiz-adv-x="901" 
d="M358 -422q-160 0 -244 92t-69 244l6 49q4 25 27 25h182q10 0 16.5 -7t4.5 -18l-2 -22q-9 -71 21.5 -114.5t90.5 -43.5q58 0 101 42.5t51 104.5q3 24 -2.5 45.5t-13 37.5t-27 33.5t-32.5 27.5t-42 25t-43.5 22t-48.5 22q-85 42 -135 83.5t-74 105.5q-29 71 -19 168
q14 112 78 194q61 78 138 105q13 7 2 14q-73 48 -112 123.5t-26 173.5q17 144 132 242t276 98q157 0 245.5 -96.5t69.5 -249.5l-2 -31q-1 -10 -9 -17t-17 -7h-185q-23 0 -20 20l2 18q9 69 -23.5 113.5t-89.5 44.5q-58 0 -100.5 -44t-50.5 -109q-8 -73 37.5 -118t144.5 -89
q42 -19 62.5 -29.5t54.5 -30.5t57.5 -42t40.5 -48q57 -80 43 -205q-12 -104 -72 -190q-63 -95 -143 -121q-4 -1 -5.5 -3t-0.5 -4.5t4 -4.5q155 -102 133 -291q-19 -151 -134 -244.5t-278 -93.5zM459 346q79 0 127 66q29 43 35 100q8 65 -19 111q-33 55 -104 55
q-37 0 -70.5 -20t-52.5 -52q-31 -42 -37 -96q-7 -59 12 -100q30 -64 109 -64z" />
    <glyph glyph-name="dieresis" unicode="&#xa8;" horiz-adv-x="657" 
d="M268 1186q-54 0 -84 35.5t-22 91.5q6 56 45 91.5t92 35.5q54 0 82.5 -35t21.5 -92q-6 -56 -43.5 -91.5t-91.5 -35.5zM604 1186q-55 0 -83.5 35.5t-20.5 91.5q6 57 43 92t92 35q54 0 83 -35t23 -92q-6 -56 -44.5 -91.5t-92.5 -35.5z" />
    <glyph glyph-name="copyright" unicode="&#xa9;" horiz-adv-x="1630" 
d="M772 -16q-202 0 -354.5 95.5t-225 264.5t-47.5 377q25 205 138.5 372t289.5 262t379 95q154 0 281 -56t210 -152.5t121 -231.5t19 -289q-20 -156 -91 -293t-178 -234.5t-247.5 -153.5t-294.5 -56zM788 119q166 0 309.5 78t236.5 215.5t114 308.5q20 167 -39 303
t-183.5 213.5t-289.5 77.5t-308.5 -77.5t-235.5 -213.5t-113 -303q-20 -171 38 -308.5t181.5 -215.5t289.5 -78zM823 362q-97 0 -148 55.5t-40 149.5l37 299q12 94 76 148.5t161 54.5q96 0 148.5 -54t40.5 -145q-3 -22 -27 -22l-80 -4q-11 0 -16.5 5t-3.5 11v14
q5 37 -15.5 60.5t-58.5 23.5q-39 0 -66 -23.5t-32 -60.5l-39 -317q-5 -37 17 -60.5t61 -23.5q38 0 63.5 23.5t30.5 60.5l2 6q4 25 27 25l77 -4q11 0 17.5 -3.5t5.5 -7.5v-12q-12 -90 -78 -144.5t-160 -54.5z" />
    <glyph glyph-name="ordfeminine" unicode="&#xaa;" horiz-adv-x="608" 
d="M399 1157h99q10 0 10 10l6 37q6 55 -18.5 88t-77.5 33q-37 0 -67 -18t-44 -47q-10 -24 -28 -21l-95 6q-11 0 -16 7.5t-2 19.5q22 79 95 128.5t169 49.5q115 0 176 -62.5t49 -164.5l-55 -449q-1 -10 -9.5 -17t-17.5 -7h-92q-23 0 -20 24l2 17q0 13 -12 4q-58 -58 -154 -58
q-91 0 -147 48t-44 155q14 111 91.5 164t201.5 53zM338 856q56 0 98 31t49 82l7 63q3 10 -9 10h-90q-60 0 -98.5 -24.5t-44.5 -73.5q-6 -45 18.5 -66.5t69.5 -21.5zM68 618q1 10 9 17.5t17 7.5h484q10 0 16 -7t4 -18l-10 -88q-2 -11 -9.5 -17.5t-17.5 -6.5h-483
q-11 0 -16.5 7t-4.5 17z" />
    <glyph glyph-name="guillemotleft" unicode="&#xab;" horiz-adv-x="976" 
d="M508 248q4 -13 -1.5 -21t-19.5 -8h-161q-21 0 -27 17l-156 323q-6 16 4 33l236 323q9 17 29 17h163q14 0 18 -8t-5 -21l-238 -321q-6 -6 -2 -13zM829 248q6 -13 0 -21t-20 -8h-162q-20 0 -26 17l-154 323q-9 15 2 33l236 323q11 17 30 17h162q14 0 17.5 -8t-5.5 -21
l-237 -321q-4 -8 -2 -13z" />
    <glyph glyph-name="logicalnot" unicode="&#xac;" horiz-adv-x="923" 
d="M891 727q22 0 22 -25l-18 -151l-2 -14h-2l-25 -197q-4 -25 -26 -25h-140q-10 0 -16 7t-4 18l22 186q0 11 -8 11h-583q-11 0 -17.5 7t-5.5 17l18 141q4 25 27 25h758z" />
    <glyph glyph-name="uni00AD" unicode="&#xad;" horiz-adv-x="722" 
d="M106 514q-10 0 -16 7t-4 18l18 155q1 10 9.5 17.5t17.5 7.5h559q10 0 16.5 -7t4.5 -18l-19 -155q-4 -25 -26 -25h-560z" />
    <glyph glyph-name="registered" unicode="&#xae;" horiz-adv-x="876" 
d="M578 1456q170 0 271 -115.5t79 -285.5q-22 -178 -151 -296t-300 -118q-169 0 -269.5 118t-78.5 296q22 170 151 285.5t298 115.5zM489 739q129 0 227 90.5t115 225.5q15 129 -61 217t-205 88q-128 0 -225.5 -88t-112.5 -217q-17 -135 58.5 -225.5t203.5 -90.5zM672 1122
q-6 -64 -62 -96q-7 -2 -4 -12l29 -121q3 -29 -25 -29h-37q-17 0 -24 21l-27 119q-4 8 -8 8h-12q-9 0 -13 -11l-12 -112q-1 -10 -9 -17.5t-17 -7.5h-35q-10 0 -16.5 7t-4.5 18l39 325q1 10 9.5 17.5t19.5 7.5h110q50 0 77.5 -33.5t21.5 -83.5zM520 1167q-10 0 -10 -10l-8 -72
q-3 -10 8 -10h31q20 0 33.5 13t15.5 32q3 21 -7.5 34t-29.5 13h-33z" />
    <glyph glyph-name="macron" unicode="&#xaf;" horiz-adv-x="671" 
d="M219 1198q-10 0 -16 7t-4 18l12 114q1 10 9.5 17.5t19.5 7.5h446q10 0 16.5 -7t4.5 -18l-15 -114q-4 -25 -26 -25h-447z" />
    <glyph glyph-name="degree" unicode="&#xb0;" horiz-adv-x="731" 
d="M446 977q-138 0 -219.5 98.5t-64.5 241.5q17 142 123 240t243 98q138 0 221 -98t66 -240t-124.5 -241t-244.5 -99zM465 1137q73 0 129 52.5t65 127.5q10 76 -33.5 129t-115.5 53t-129 -53t-66 -129q-9 -75 35 -127.5t115 -52.5z" />
    <glyph glyph-name="plusminus" unicode="&#xb1;" horiz-adv-x="923" 
d="M623 879q0 -11 8 -11h278q11 0 16.5 -7t4.5 -17l-17 -142q-1 -10 -9 -17t-17 -7h-279q-9 0 -12 -10l-35 -285q-4 -25 -26 -25h-138q-10 0 -16 7t-4 18l35 285q0 10 -9 10h-276q-11 0 -16.5 7t-4.5 17l17 142q1 10 9.5 17t17.5 7h276q8 0 12 11l35 288q4 25 27 25h137
q10 0 16 -7t4 -18zM45 18q-9 0 -15 7.5t-5 17.5l18 141q4 25 27 25h757q10 0 16.5 -7t6.5 -18l-19 -141q-4 -25 -26 -25h-760z" />
    <glyph glyph-name="uni00B2" unicode="&#xb2;" horiz-adv-x="591" 
d="M141 870q-10 0 -16 7t-4 18l10 94q3 18 14 29q209 222 273 297q101 114 110 188q6 47 -16 75t-63 28t-71 -28.5t-34 -72.5l-4 -30q-4 -25 -27 -25h-106q-9 0 -15.5 7.5t-5.5 17.5l7 45q17 102 92.5 161.5t183.5 59.5t166.5 -64.5t46.5 -175.5q-13 -105 -111 -229
q-71 -88 -223 -254q-6 -4 -4 -8t8 -4h262q10 0 16.5 -7t4.5 -18l-10 -86q-4 -25 -27 -25h-457z" />
    <glyph glyph-name="uni00B3" unicode="&#xb3;" horiz-adv-x="593" 
d="M641 1274q13 -60 4 -129q-9 -67 -33 -117q-31 -79 -94 -123.5t-151 -44.5q-92 0 -149.5 51t-65.5 136q-3 37 0 73q3 25 26 25h105q10 0 15.5 -7t4.5 -18q0 -31 2 -43q10 -82 78 -82q57 0 88 60q21 40 27 100q6 67 -4 102q-6 28 -25 44t-47 16q-17 0 -33 -8q-8 -4 -12 -4
q-14 -8 -25 6l-43 57q-14 17 4 35l183 180q12 12 -2 12h-248q-10 0 -16.5 7t-4.5 18l11 86q4 25 26 25h424q9 0 15.5 -7.5t5.5 -17.5l-13 -94q-3 -18 -14 -29l-156 -160q-6 -9 2 -12q89 -21 115 -137z" />
    <glyph glyph-name="acute" unicode="&#xb4;" horiz-adv-x="442" 
d="M176 1178q-14 0 -18 7t4 21l141 211q14 17 33 17h168q15 0 18 -9.5t-6 -21.5l-166 -209q-13 -16 -31 -16h-143z" />
    <glyph glyph-name="uni00B5" unicode="&#xb5;" horiz-adv-x="985" 
d="M731 1022q4 25 27 25h182q10 0 16.5 -7t6.5 -18l-123 -997q-4 -25 -27 -25h-184q-9 0 -15.5 7.5t-5.5 17.5l8 55q0 6 -4 7t-8 -5q-78 -96 -225 -96q-37 0 -72 6q-8 3 -12 -10l-45 -367q0 -10 -8 -17.5t-19 -7.5h-182q-10 0 -16.5 7t-4.5 18l173 1407q1 10 9 17.5t17 7.5
h184q9 0 15.5 -7.5t5.5 -17.5l-80 -651q-11 -87 22.5 -135t106.5 -48q72 0 120.5 51t57.5 136z" />
    <glyph glyph-name="paragraph" unicode="&#xb6;" horiz-adv-x="1097" 
d="M610 1434h480q10 0 16 -7t4 -18l-219 -1794q-1 -10 -9.5 -17.5t-17.5 -7.5h-133q-22 0 -22 25l200 1626q0 10 -8 10h-166q-10 0 -10 -10l-201 -1626q-4 -25 -26 -25h-136q-10 0 -16 7t-4 18l109 889q3 8 -9 12q-162 20 -247 145t-62 312q25 201 156.5 331t320.5 130z" />
    <glyph glyph-name="periodcentered" unicode="&#xb7;" horiz-adv-x="307" 
d="M102 -2q-66 0 -104.5 45.5t-30.5 112.5q7 63 60 109t114 46t102.5 -46t32.5 -109q-8 -66 -58 -112t-116 -46z" />
    <glyph glyph-name="cedilla" unicode="&#xb8;" horiz-adv-x="299" 
d="M-59 -375q-21 9 -15 31l19 76q5 24 30 18q36 -8 65 4.5t40 48.5q25 75 -62 166q-12 12 -8 21.5t21 9.5h96q19 0 29 -12q114 -116 63 -250q-17 -51 -52.5 -82t-77 -38.5t-79 -5.5t-69.5 13z" />
    <glyph glyph-name="uni00B9" unicode="&#xb9;" horiz-adv-x="342" 
d="M287 1724q12 7 30 7h113q10 0 16.5 -7t6.5 -18l-101 -811q-4 -25 -26 -25h-107q-9 0 -15 7.5t-5 17.5l84 684q2 5 -1.5 8t-7.5 2l-43 -8q-13 -3 -18.5 3.5t-3.5 19.5l8 67q3 20 21 29z" />
    <glyph glyph-name="ordmasculine" unicode="&#xba;" horiz-adv-x="643" 
d="M371 741q-101 0 -161 56t-63 153q-4 43 5 146q10 80 30 149q26 94 100.5 149.5t178.5 55.5q99 0 157 -55t64 -150q3 -65 -4 -147q-10 -77 -33 -148q-28 -98 -100.5 -153.5t-173.5 -55.5zM387 874q38 0 71 27.5t46 71.5q9 36 22 123q8 86 6 123q-2 44 -26 71t-64 27
t-71 -27t-45 -71q-12 -45 -23 -123q-8 -86 -6 -123q0 -44 25 -71.5t65 -27.5zM94 506q-23 0 -20 24l10 91q2 11 9.5 17.5t17.5 6.5h505q9 0 15.5 -7t5.5 -17l-12 -91q-2 -11 -9.5 -17.5t-17.5 -6.5h-504z" />
    <glyph glyph-name="guillemotright" unicode="&#xbb;" horiz-adv-x="976" 
d="M145 219q-13 0 -16.5 7.5t4.5 21.5l240 321q3 7 0 13l-158 321q-6 13 -1 21t19 8h164q19 0 25 -17l156 -323q6 -15 -5 -33l-235 -323q-8 -17 -29 -17h-164zM467 219q-13 0 -16.5 7.5t4.5 21.5l239 321q3 7 0 13l-157 321q-6 13 -1 21t19 8h164q18 0 24 -17l156 -323
q7 -19 -4 -33l-233 -323q-11 -17 -31 -17h-164z" />
    <glyph glyph-name="onequarter" unicode="&#xbc;" horiz-adv-x="1499" 
d="M315 598q-4 -25 -26 -25h-105q-10 0 -16 7t-4 18l84 684q0 5 -3 8t-7 2l-43 -8q-13 -3 -19 3.5t-4 19.5l8 67q3 21 23 29l47 22q22 9 31 9h114q9 0 15.5 -7.5t5.5 -17.5zM1122 1417q8 17 29 17h117q14 0 17.5 -8t-5.5 -21l-981 -1389q-11 -16 -31 -16h-118q-14 0 -18 8
t5 21zM1444 362q9 0 15 -7t5 -17l-12 -92q-4 -25 -27 -25h-28q-13 0 -13 -10l-22 -186q-4 -25 -27 -25h-104q-9 0 -15.5 7.5t-5.5 17.5l23 186q3 10 -8 10h-314q-10 0 -16 7t-4 18l8 73q4 18 10 31l248 492q6 18 29 18h110q12 0 17.5 -8t-0.5 -21l-228 -456q-3 -6 -0.5 -9.5
t7.5 -3.5h151q10 0 10 11l17 137q1 10 9 17.5t17 7.5h105q10 0 16 -7t4 -18l-16 -137q-1 -4 1 -7.5t7 -3.5h31z" />
    <glyph glyph-name="onehalf" unicode="&#xbd;" horiz-adv-x="1466" 
d="M315 598q-4 -25 -26 -25h-105q-10 0 -16 7t-4 18l84 684q0 5 -3 8t-7 2l-43 -8q-13 -3 -19 3.5t-4 19.5l8 67q3 21 23 29l47 22q22 9 31 9h114q9 0 15.5 -7.5t5.5 -17.5zM1122 1417q8 17 29 17h117q14 0 17.5 -8t-5.5 -21l-981 -1389q-11 -16 -31 -16h-118q-14 0 -18 8
t5 21zM1114 147q-4 -5 -2.5 -8.5t6.5 -3.5h262q11 0 17.5 -7t5.5 -17l-10 -86q-1 -10 -9.5 -17.5t-19.5 -7.5h-457q-9 0 -15 7.5t-5 17.5l12 94q3 17 14 28q187 199 273 297q99 116 110 189q4 47 -17.5 74.5t-61.5 27.5q-41 0 -71 -28t-36 -72l-2 -31q-1 -10 -9.5 -17
t-17.5 -7h-106q-11 0 -16.5 7t-4.5 17l7 45q17 102 91.5 161.5t182.5 59.5q110 0 168 -64t45 -175q-14 -109 -109 -230q-80 -100 -225 -254z" />
    <glyph glyph-name="threequarters" unicode="&#xbe;" horiz-adv-x="1665" 
d="M578 735q-31 -79 -95.5 -123.5t-152.5 -44.5q-92 0 -148.5 51t-64.5 136q-2 12 -2 73q3 25 28 25h103q22 0 22 -25q-3 -23 0 -43q5 -38 25 -60t53 -22q55 0 90 60q19 43 25 100q9 64 -2 103q-16 59 -74 59q-17 0 -33 -8q-8 -4 -10 -4q-13 -8 -27 6l-43 57q-14 17 4 35
l185 180q10 13 -2 13h-250q-9 0 -15.5 7t-5.5 17l11 86q1 10 9 17.5t17 7.5h424q10 0 16.5 -7t4.5 -18l-11 -94q-3 -16 -16 -29l-156 -160q-6 -8 5 -12q90 -24 112 -137q13 -60 4 -129q-6 -68 -30 -117zM1286 1417q11 17 31 17h117q14 0 17.5 -8t-5.5 -21l-983 -1389
q-11 -16 -31 -16h-119q-13 0 -16.5 8t4.5 21zM1608 362q23 0 20 -24l-10 -92q-1 -10 -9.5 -17.5t-17.5 -7.5h-30q-11 0 -11 -10l-24 -186q0 -10 -8 -17.5t-19 -7.5h-102q-10 0 -16.5 7t-4.5 18l23 186q0 10 -8 10h-316q-9 0 -15 7.5t-5 17.5l10 73q0 7 8 31l248 492
q9 18 31 18h108q30 0 17 -29l-228 -456q-3 -13 6 -13h152q8 0 12 11l17 137q4 25 26 25h103q22 0 22 -25l-18 -137q0 -11 10 -11h29z" />
    <glyph glyph-name="questiondown" unicode="&#xbf;" horiz-adv-x="905" 
d="M561 1026q60 0 95.5 -42.5t27.5 -104.5q-7 -61 -55 -104.5t-107 -43.5q-58 0 -96 43.5t-31 104.5t56.5 104t109.5 43zM608 586q10 0 16.5 -7t4.5 -18l-11 -84q-7 -57 -30 -104.5t-54.5 -80.5t-68 -63t-73 -57.5t-67.5 -56.5t-53 -68t-28 -84q-9 -80 29.5 -128t111.5 -48
q78 0 132 51t63 131l6 43q3 23 26 23l183 -8q9 0 15 -8.5t5 -18.5l-4 -31q-22 -178 -149.5 -288.5t-309.5 -110.5q-177 0 -270.5 105.5t-71.5 279.5q9 69 33.5 127t56.5 96.5t69.5 71t74 59.5t67.5 53t52 59t26 71l10 69q4 25 27 25h182z" />
    <glyph glyph-name="Agrave" unicode="&#xc0;" horiz-adv-x="1124" 
d="M801 1593q6 -13 -0.5 -20.5t-20.5 -7.5h-143q-17 0 -27 16l-114 209q-6 12 -0.5 21.5t20.5 9.5h168q19 0 29 -17zM815 0q-24 0 -27 20l-22 220q0 8 -8 8h-410q-7 0 -10 -8l-80 -220q-6 -20 -29 -20h-190q-25 0 -16 27l530 1386q9 21 31 21h227q24 0 27 -21l190 -1386
q3 -27 -22 -27h-191zM412 446q-3 -12 8 -12h311q13 0 10 12l-73 664q-2 6 -7 6t-6 -6z" />
    <glyph glyph-name="Aacute" unicode="&#xc1;" horiz-adv-x="1124" 
d="M942 1821q15 0 18 -9.5t-6 -21.5l-166 -209q-13 -16 -30 -16h-144q-13 0 -17.5 7.5t3.5 20.5l141 211q14 17 33 17h168zM815 0q-24 0 -27 20l-22 220q0 8 -8 8h-410q-7 0 -10 -8l-80 -220q-6 -20 -29 -20h-190q-25 0 -16 27l530 1386q9 21 31 21h227q24 0 27 -21
l190 -1386q3 -27 -22 -27h-191zM412 446q-3 -12 8 -12h311q13 0 10 12l-73 664q-2 6 -7 6t-6 -6z" />
    <glyph glyph-name="Acircumflex" unicode="&#xc2;" horiz-adv-x="1124" 
d="M733 1704q-3 12 -12 0l-96 -131q-11 -17 -31 -17h-135q-12 0 -16 9.5t3 21.5l168 211q10 17 29 17h191q17 0 24 -17l121 -211q7 -12 1.5 -21.5t-19.5 -9.5h-136q-20 0 -26 17zM815 0q-24 0 -27 20l-22 220q0 8 -8 8h-410q-7 0 -10 -8l-80 -220q-6 -20 -29 -20h-190
q-25 0 -16 27l530 1386q9 21 31 21h227q24 0 27 -21l190 -1386q3 -27 -22 -27h-191zM412 446q-3 -12 8 -12h311q13 0 10 12l-73 664q-2 6 -7 6t-6 -6z" />
    <glyph glyph-name="Atilde" unicode="&#xc3;" horiz-adv-x="1124" 
d="M655 1663q-49 0 -88 -47q-17 -23 -35 -8l-57 49q-14 14 -6 33q36 64 84.5 96.5t101.5 32.5q55 0 121 -47q54 -39 84 -39q49 0 86 47q14 24 33 8l59 -45q18 -14 4 -33q-40 -67 -93 -98t-103 -31q-48 0 -113 45q-4 3 -11.5 8.5t-10.5 7.5t-9.5 6t-9.5 5.5l-8 4t-9 3
t-9.5 1.5t-10.5 1zM815 0q-24 0 -27 20l-22 220q0 8 -8 8h-410q-7 0 -10 -8l-80 -220q-6 -20 -29 -20h-190q-25 0 -16 27l530 1386q9 21 31 21h227q24 0 27 -21l190 -1386q3 -27 -22 -27h-191zM412 446q-3 -12 8 -12h311q13 0 10 12l-73 664q-2 6 -7 6t-6 -6z" />
    <glyph glyph-name="Adieresis" unicode="&#xc4;" horiz-adv-x="1124" 
d="M549 1573q-54 0 -84.5 35.5t-24.5 91.5q7 57 46.5 92t93.5 35t82 -35t22 -92q-8 -56 -45 -91.5t-90 -35.5zM885 1573q-55 0 -84 35.5t-23 91.5q8 57 45 92t92 35q54 0 83.5 -35t23.5 -92q-8 -56 -45.5 -91.5t-91.5 -35.5zM815 0q-24 0 -27 20l-22 220q0 8 -8 8h-410
q-7 0 -10 -8l-80 -220q-6 -20 -29 -20h-190q-25 0 -16 27l530 1386q9 21 31 21h227q24 0 27 -21l190 -1386q3 -27 -22 -27h-191zM412 446q-3 -12 8 -12h311q13 0 10 12l-73 664q-2 6 -7 6t-6 -6z" />
    <glyph glyph-name="Aring" unicode="&#xc5;" horiz-adv-x="1124" 
d="M711 1542q-91 0 -145.5 64.5t-43.5 158.5q12 92 82.5 156t159.5 64q91 0 146 -64t44 -156q-12 -94 -82 -158.5t-161 -64.5zM750 1874q-43 0 -78 -32t-39 -77q-6 -46 20.5 -78t69.5 -32q44 0 79.5 32t39.5 78q6 46 -20.5 77.5t-71.5 31.5zM815 0q-24 0 -27 20l-22 220
q0 8 -8 8h-410q-7 0 -10 -8l-80 -220q-6 -20 -29 -20h-190q-25 0 -16 27l530 1386q9 21 31 21h227q24 0 27 -21l190 -1386q3 -27 -22 -27h-191zM412 446q-3 -12 8 -12h311q13 0 10 12l-73 664q-2 6 -7 6t-6 -6z" />
    <glyph glyph-name="AE" unicode="&#xc6;" horiz-adv-x="1685" 
d="M1720 1253q0 -10 -7.5 -17t-18.5 -7h-537q-10 0 -10 -10l-47 -385q0 -11 8 -11h338q23 0 20 -24l-18 -156q-4 -25 -27 -25h-338q-9 0 -12 -10l-47 -393q-3 -10 8 -10h537q10 0 16 -7t4 -18l-18 -155q-1 -10 -9.5 -17.5t-17.5 -7.5h-756q-10 0 -16 7t-4 18l27 213
q0 10 -11 10h-376q-9 0 -13 -8l-125 -222q-10 -18 -30 -18h-197q-12 0 -16.5 8t2.5 21l800 1386q11 19 31 19h860q9 0 15.5 -7.5t5.5 -17.5zM512 446q-4 -12 4 -12h293q10 0 10 10l86 676q0 5 -2 7t-5 0.5t-5 -5.5z" />
    <glyph glyph-name="Ccedilla" unicode="&#xc7;" horiz-adv-x="1058" 
d="M1055 1010q0 -8 -8 -14.5t-17 -6.5l-186 -8q-10 0 -16.5 7t-4.5 18l2 24q12 97 -37 156t-141 59q-94 0 -157.5 -59t-75.5 -156l-76 -629q-12 -96 37.5 -154.5t142.5 -58.5q92 0 156 59t76 154l2 27q3 23 26 23l185 -9q11 0 16 -4.5t4 -11.5l-2 -16q-22 -174 -135.5 -288
t-282.5 -134q-13 -3 -6 -13q88 -110 45 -229q-17 -51 -53 -82t-78 -38.5t-79.5 -5.5t-69.5 13q-18 9 -13 31l19 76q5 24 30 18q35 -8 63.5 5t39.5 49q27 76 -72 178l-12 6q-144 34 -216 146t-52 276l73 602q25 195 159 312.5t331 117.5q198 0 304 -115t83 -307z" />
    <glyph glyph-name="Egrave" unicode="&#xc8;" horiz-adv-x="1019" 
d="M776 1618q6 -13 0 -21t-20 -8h-144q-16 0 -26 17l-115 209q-6 12 0 21t21 9h167q19 0 29 -16zM1057 1253q0 -10 -8 -17t-19 -7h-551q-9 0 -12 -10l-47 -385q0 -11 8 -11h354q11 0 16.5 -7t4.5 -17l-19 -156q-4 -25 -26 -25h-355q-10 0 -10 -10l-49 -393q0 -10 8 -10h553
q10 0 16.5 -7t4.5 -18l-19 -155q-4 -25 -26 -25h-770q-9 0 -15.5 7.5t-5.5 17.5l170 1384q4 25 27 25h770q9 0 15 -7.5t5 -17.5z" />
    <glyph glyph-name="Eacute" unicode="&#xc9;" horiz-adv-x="1019" 
d="M918 1845q15 0 18 -9t-6 -21l-166 -209q-14 -17 -31 -17h-143q-13 0 -18 7.5t3 21.5l142 211q13 16 33 16h168zM1057 1253q0 -10 -8 -17t-19 -7h-551q-9 0 -12 -10l-47 -385q0 -11 8 -11h354q11 0 16.5 -7t4.5 -17l-19 -156q-4 -25 -26 -25h-355q-10 0 -10 -10l-49 -393
q0 -10 8 -10h553q10 0 16.5 -7t4.5 -18l-19 -155q-4 -25 -26 -25h-770q-9 0 -15.5 7.5t-5.5 17.5l170 1384q4 25 27 25h770q9 0 15 -7.5t5 -17.5z" />
    <glyph glyph-name="Ecircumflex" unicode="&#xca;" horiz-adv-x="1019" 
d="M709 1729q-3 13 -13 0l-96 -132q-11 -16 -31 -16h-135q-14 0 -17.5 9.5t5.5 21.5l168 211q10 16 28 16h189q21 0 27 -16l120 -211q7 -12 1.5 -21.5t-19.5 -9.5h-135q-22 0 -27 16zM1057 1253q0 -10 -8 -17t-19 -7h-551q-9 0 -12 -10l-47 -385q0 -11 8 -11h354
q11 0 16.5 -7t4.5 -17l-19 -156q-4 -25 -26 -25h-355q-10 0 -10 -10l-49 -393q0 -10 8 -10h553q10 0 16.5 -7t4.5 -18l-19 -155q-4 -25 -26 -25h-770q-9 0 -15.5 7.5t-5.5 17.5l170 1384q4 25 27 25h770q9 0 15 -7.5t5 -17.5z" />
    <glyph glyph-name="Edieresis" unicode="&#xcb;" horiz-adv-x="1019" 
d="M524 1597q-54 0 -84 35.5t-24 91.5q7 57 46 92t93 35t82 -35t22 -92q-8 -56 -45 -91.5t-90 -35.5zM860 1597q-55 0 -83.5 35.5t-22.5 91.5q8 57 45 92t92 35q54 0 83 -35t23 -92q-8 -56 -45.5 -91.5t-91.5 -35.5zM1057 1253q0 -10 -8 -17t-19 -7h-551q-9 0 -12 -10
l-47 -385q0 -11 8 -11h354q11 0 16.5 -7t4.5 -17l-19 -156q-4 -25 -26 -25h-355q-10 0 -10 -10l-49 -393q0 -10 8 -10h553q10 0 16.5 -7t4.5 -18l-19 -155q-4 -25 -26 -25h-770q-9 0 -15.5 7.5t-5.5 17.5l170 1384q4 25 27 25h770q9 0 15 -7.5t5 -17.5z" />
    <glyph glyph-name="Igrave" unicode="&#xcc;" horiz-adv-x="483" 
d="M487 1618q4 -13 -2 -21t-20 -8h-143q-18 0 -25 17l-117 209q-5 12 0.5 21t20.5 9h168q22 0 28 -16zM111 0q-9 0 -15.5 7.5t-5.5 17.5l170 1384q4 25 27 25h184q9 0 15.5 -7.5t5.5 -17.5l-170 -1384q-1 -10 -9.5 -17.5t-17.5 -7.5h-184z" />
    <glyph glyph-name="Iacute" unicode="&#xcd;" horiz-adv-x="483" 
d="M301 1589q-14 0 -18.5 7.5t4.5 21.5l141 211q10 16 31 16h170q13 0 16 -9t-6 -21l-166 -209q-10 -17 -29 -17h-143zM111 0q-9 0 -15.5 7.5t-5.5 17.5l170 1384q4 25 27 25h184q9 0 15.5 -7.5t5.5 -17.5l-170 -1384q-1 -10 -9.5 -17.5t-17.5 -7.5h-184z" />
    <glyph glyph-name="Icircumflex" unicode="&#xce;" horiz-adv-x="483" 
d="M145 1581q-14 0 -17.5 9.5t5.5 21.5l166 211q13 16 31 16h188q19 0 25 -16l123 -211q6 -12 0 -21.5t-21 -9.5h-135q-19 0 -27 16l-63 132q-6 12 -12 0l-99 -132q-11 -16 -30 -16h-134zM111 0q-9 0 -15.5 7.5t-5.5 17.5l170 1384q4 25 27 25h184q9 0 15.5 -7.5t5.5 -17.5
l-170 -1384q-1 -10 -9.5 -17.5t-17.5 -7.5h-184z" />
    <glyph glyph-name="Idieresis" unicode="&#xcf;" horiz-adv-x="483" 
d="M233 1597q-54 0 -84 35.5t-22 91.5q6 56 45 91.5t92 35.5q54 0 83 -35t22 -92q-6 -56 -44 -91.5t-92 -35.5zM569 1597q-55 0 -83.5 35.5t-20.5 91.5q6 57 43 92t92 35q54 0 83.5 -35t23.5 -92q-8 -56 -46 -91.5t-92 -35.5zM111 0q-9 0 -15.5 7.5t-5.5 17.5l170 1384
q4 25 27 25h184q9 0 15.5 -7.5t5.5 -17.5l-170 -1384q-1 -10 -9.5 -17.5t-17.5 -7.5h-184z" />
    <glyph glyph-name="Eth" unicode="&#xd0;" horiz-adv-x="1173" 
d="M791 1434q192 0 294.5 -111t79.5 -295l-75 -622q-23 -184 -153.5 -295t-322.5 -111h-411q-10 0 -16.5 7t-4.5 18l78 634q0 11 -8 11h-59q-9 0 -15.5 7t-5.5 17l12 103q1 10 9.5 17t19.5 7h57q11 0 11 10l71 578q4 25 27 25h412zM862 432l70 569q12 105 -32.5 166.5
t-133.5 61.5h-197q-10 0 -10 -10l-47 -388q-3 -10 8 -10h139q11 0 16.5 -7t4.5 -17l-12 -103q-2 -11 -9.5 -17.5t-17.5 -6.5h-139q-9 0 -13 -11l-53 -444q-3 -10 8 -10l197 2q86 0 145 60t76 165z" />
    <glyph glyph-name="Ntilde" unicode="&#xd1;" horiz-adv-x="1161" 
d="M864 1606q-49 0 -110 45q-3 2 -13 9t-12 8.5t-10 6.5t-11.5 6t-9.5 3.5t-11.5 3t-12.5 0.5q-49 0 -86 -48q-20 -23 -35 -8l-59 49q-15 15 -5 33q34 64 83 96.5t104 32.5q53 0 119 -47q54 -39 84 -39q49 0 86 47q16 22 32 8l60 -45q20 -13 -4 -47q-40 -60 -90.5 -87
t-98.5 -27zM111 0q-9 0 -15.5 7.5t-5.5 17.5l170 1384q4 25 27 25h184q19 0 25 -19l325 -891q1 -5 4 -6.5t5.5 1t3.5 7.5l108 883q4 25 27 25h180q10 0 16 -7t4 -18l-170 -1384q0 -10 -7.5 -17.5t-18.5 -7.5h-182q-19 0 -25 18l-328 895q-1 5 -3.5 6.5t-5 -1t-3.5 -7.5
l-107 -886q-1 -10 -9 -17.5t-17 -7.5h-182z" />
    <glyph glyph-name="Ograve" unicode="&#xd2;" horiz-adv-x="1081" 
d="M780 1606q6 -13 0 -21t-20 -8h-144q-18 0 -24 16l-117 209q-6 12 0 21.5t21 9.5h168q22 0 28 -16zM496 -18q-198 0 -304 122.5t-81 323.5l69 578q25 199 161.5 321.5t334.5 122.5q201 0 308.5 -122t82.5 -322l-72 -578q-25 -201 -161.5 -323.5t-337.5 -122.5zM522 186
q96 0 163 64.5t79 167.5l74 594q12 105 -39.5 169t-147.5 64q-95 0 -160 -64t-79 -169l-72 -594q-14 -103 36.5 -167.5t145.5 -64.5z" />
    <glyph glyph-name="Oacute" unicode="&#xd3;" horiz-adv-x="1081" 
d="M594 1577q-12 0 -16.5 7.5t2.5 21.5l141 211q13 16 33 16h168q15 0 18 -9.5t-6 -21.5l-166 -209q-13 -16 -31 -16h-143zM496 -18q-198 0 -304 122.5t-81 323.5l69 578q25 199 161.5 321.5t334.5 122.5q201 0 308.5 -122t82.5 -322l-72 -578q-25 -201 -161.5 -323.5
t-337.5 -122.5zM522 186q96 0 163 64.5t79 167.5l74 594q12 105 -39.5 169t-147.5 64q-95 0 -160 -64t-79 -169l-72 -594q-14 -103 36.5 -167.5t145.5 -64.5z" />
    <glyph glyph-name="Ocircumflex" unicode="&#xd4;" horiz-adv-x="1081" 
d="M438 1569q-12 0 -15.5 9t3.5 21l168 211q10 17 29 17h190q18 0 25 -17l120 -211q7 -12 1.5 -21t-19.5 -9h-135q-22 0 -27 16l-65 131q-3 13 -13 0l-96 -131q-11 -16 -31 -16h-135zM496 -18q-198 0 -304 122.5t-81 323.5l69 578q25 199 161.5 321.5t334.5 122.5
q201 0 308.5 -122t82.5 -322l-72 -578q-25 -201 -161.5 -323.5t-337.5 -122.5zM522 186q96 0 163 64.5t79 167.5l74 594q12 105 -39.5 169t-147.5 64q-95 0 -160 -64t-79 -169l-72 -594q-14 -103 36.5 -167.5t145.5 -64.5z" />
    <glyph glyph-name="Otilde" unicode="&#xd5;" horiz-adv-x="1081" 
d="M825 1593q-47 0 -112 45q-5 3 -15 10.5t-13.5 9.5t-11 6.5t-12 6t-11.5 3t-15 1.5q-49 0 -88 -47q-17 -23 -35 -8l-57 49q-14 14 -6 33q72 129 188 129q53 0 119 -47q54 -39 84 -39q49 0 86 47q16 22 32 8l60 -45q17 -13 -4 -47q-40 -60 -90.5 -87.5t-98.5 -27.5z
M496 -18q-198 0 -304 122.5t-81 323.5l69 578q25 199 161.5 321.5t334.5 122.5q201 0 308.5 -122t82.5 -322l-72 -578q-25 -201 -161.5 -323.5t-337.5 -122.5zM522 186q96 0 163 64.5t79 167.5l74 594q12 105 -39.5 169t-147.5 64q-95 0 -160 -64t-79 -169l-72 -594
q-14 -103 36.5 -167.5t145.5 -64.5z" />
    <glyph glyph-name="Odieresis" unicode="&#xd6;" horiz-adv-x="1081" 
d="M528 1585q-54 0 -84 35.5t-24 91.5q7 57 46 92t93 35t82.5 -35t22.5 -92q-8 -56 -45 -91.5t-91 -35.5zM864 1585q-55 0 -83.5 35.5t-22.5 91.5q8 57 45 92t92 35q54 0 83 -35t23 -92q-8 -56 -45.5 -91.5t-91.5 -35.5zM496 -18q-198 0 -304 122.5t-81 323.5l69 578
q25 199 161.5 321.5t334.5 122.5q201 0 308.5 -122t82.5 -322l-72 -578q-25 -201 -161.5 -323.5t-337.5 -122.5zM522 186q96 0 163 64.5t79 167.5l74 594q12 105 -39.5 169t-147.5 64q-95 0 -160 -64t-79 -169l-72 -594q-14 -103 36.5 -167.5t145.5 -64.5z" />
    <glyph glyph-name="multiply" unicode="&#xd7;" horiz-adv-x="821" 
d="M815 887q13 -19 -6 -35l-219 -201q-3 -3 -3.5 -8t1.5 -8l170 -201q14 -20 -4 -35l-109 -100q-23 -19 -35 0l-170 201q-4 8 -16 0l-221 -203q-17 -17 -31 0l-86 100q-14 17 4 35l219 201q11 7 2 16l-172 205q-16 16 4 33l111 102q20 17 33 0l174 -205q5 -9 14 0l221 203
q20 17 33 0z" />
    <glyph glyph-name="Oslash" unicode="&#xd8;" horiz-adv-x="1120" 
d="M1016 1319q-4 -7 0 -14q84 -119 63 -299l-71 -578q-25 -201 -162 -323.5t-338 -122.5q-132 0 -221 53q-3 3 -7.5 1.5t-5.5 -5.5l-57 -97q-12 -18 -31 -18h-98q-12 0 -16.5 8t2.5 21l102 180q5 9 0 14q-74 115 -53 289l70 578q25 200 161 322t334 122q125 0 213 -49
q11 -4 14 6l58 100q11 19 31 19h100q12 0 16.5 -8t-2.5 -21zM424 1012l-68 -553q-1 -5 1 -7t5.5 -0.5t6.5 5.5l422 733q4 7 -3 14q-47 41 -124 41q-95 0 -161.5 -64.5t-78.5 -168.5zM776 418l72 588q1 5 -0.5 7t-4.5 0.5t-5 -5.5l-437 -756q-7 -7 0 -14q49 -52 131 -52
q98 0 165 64.5t79 167.5z" />
    <glyph glyph-name="Ugrave" unicode="&#xd9;" horiz-adv-x="1105" 
d="M797 1618q6 -13 -1 -21t-20 -8h-143q-20 0 -27 17l-114 209q-6 12 -0.5 21t18.5 9h170q21 0 27 -16zM510 -16q-196 0 -301 122.5t-80 323.5l119 979q1 10 9 17.5t17 7.5h185q9 0 15 -7.5t5 -17.5l-123 -991q-12 -103 37.5 -166.5t143.5 -63.5t158.5 63.5t76.5 166.5
l123 991q0 10 8 17.5t19 7.5h182q10 0 16 -7t4 -18l-120 -979q-25 -201 -160.5 -323.5t-333.5 -122.5z" />
    <glyph glyph-name="Uacute" unicode="&#xda;" horiz-adv-x="1105" 
d="M610 1589q-14 0 -18.5 7.5t4.5 21.5l141 211q10 16 31 16h170q15 0 18 -9t-6 -21l-168 -209q-10 -17 -28 -17h-144zM510 -16q-196 0 -301 122.5t-80 323.5l119 979q1 10 9 17.5t17 7.5h185q9 0 15 -7.5t5 -17.5l-123 -991q-12 -103 37.5 -166.5t143.5 -63.5t158.5 63.5
t76.5 166.5l123 991q0 10 8 17.5t19 7.5h182q10 0 16 -7t4 -18l-120 -979q-25 -201 -160.5 -323.5t-333.5 -122.5z" />
    <glyph glyph-name="Ucircumflex" unicode="&#xdb;" horiz-adv-x="1105" 
d="M455 1581q-14 0 -18 9.5t5 21.5l166 211q13 16 31 16h188q17 0 27 -16l121 -211q7 -12 0.5 -21.5t-21.5 -9.5h-135q-19 0 -24 16l-66 132q-6 12 -12 0l-99 -132q-8 -16 -28 -16h-135zM510 -16q-196 0 -301 122.5t-80 323.5l119 979q1 10 9 17.5t17 7.5h185q9 0 15 -7.5
t5 -17.5l-123 -991q-12 -103 37.5 -166.5t143.5 -63.5t158.5 63.5t76.5 166.5l123 991q0 10 8 17.5t19 7.5h182q10 0 16 -7t4 -18l-120 -979q-25 -201 -160.5 -323.5t-333.5 -122.5z" />
    <glyph glyph-name="Udieresis" unicode="&#xdc;" horiz-adv-x="1105" 
d="M545 1597q-54 0 -84.5 35.5t-24.5 91.5q7 57 46 92t93 35t82.5 -35t20.5 -92q-6 -56 -43.5 -91.5t-89.5 -35.5zM879 1597q-54 0 -83.5 35.5t-21.5 91.5q6 57 44 92t93 35q54 0 83 -35t22 -92q-6 -56 -44.5 -91.5t-92.5 -35.5zM510 -16q-196 0 -301 122.5t-80 323.5
l119 979q1 10 9 17.5t17 7.5h185q9 0 15 -7.5t5 -17.5l-123 -991q-12 -103 37.5 -166.5t143.5 -63.5t158.5 63.5t76.5 166.5l123 991q0 10 8 17.5t19 7.5h182q10 0 16 -7t4 -18l-120 -979q-25 -201 -160.5 -323.5t-333.5 -122.5z" />
    <glyph glyph-name="Yacute" unicode="&#xdd;" horiz-adv-x="1048" 
d="M580 1565q-14 0 -18.5 7.5t3.5 20.5l142 211q10 17 30 17h170q15 0 18.5 -9.5t-5.5 -21.5l-168 -209q-10 -16 -29 -16h-143zM393 2q-10 0 -16 7t-4 18l67 553v12l-243 813q-3 12 2.5 20.5t17.5 8.5h195q23 0 26 -19l146 -553q6 -15 12 0l281 553q9 19 30 19h197
q13 0 16.5 -8.5t-2.5 -20.5l-446 -813q-2 -6 -2 -12l-68 -553q-1 -10 -9.5 -17.5t-19.5 -7.5h-180z" />
    <glyph glyph-name="Thorn" unicode="&#xde;" horiz-adv-x="1026" 
d="M684 1137q173 0 266 -117.5t70 -306.5q-23 -186 -146 -300t-292 -114h-226q-10 0 -10 -10l-33 -264q-1 -10 -9 -17.5t-17 -7.5h-185q-9 0 -15 7.5t-5 17.5l170 1384q1 10 9.5 17.5t17.5 7.5h184q9 0 15 -7.5t5 -17.5l-32 -262q0 -10 8 -10h225zM569 492q88 0 147.5 58
t71.5 159q12 103 -33 162t-132 59h-189q-9 0 -12 -10l-51 -418q0 -10 10 -10h188z" />
    <glyph glyph-name="germandbls" unicode="&#xdf;" horiz-adv-x="1044" 
d="M94 2q-10 0 -16 7t-4 18l119 983q26 208 148 324t312 116q196 0 296.5 -103.5t78.5 -283.5q-21 -203 -176 -285q-9 -6 0 -12q69 -45 100.5 -137t16.5 -217q-25 -196 -155 -304t-353 -108h-58q-10 0 -16 7t-4 18l18 153q4 25 27 25h76q102 1 163.5 61.5t75.5 171.5
q14 113 -27.5 174t-133.5 64h-74q-11 0 -16.5 7t-4.5 17l17 138q3 24 26 24h76q82 0 134 52t61 141q8 91 -32 142.5t-132 51.5q-80 0 -138.5 -55.5t-70.5 -153.5l-125 -1013q-4 -25 -27 -25z" />
    <glyph glyph-name="agrave" unicode="&#xe0;" horiz-adv-x="978" 
d="M686 1217q6 -13 -1 -21t-21 -8h-142q-20 0 -26 16l-115 209q-6 12 -0.5 21.5t18.5 9.5h170q20 0 27 -17zM729 1022q4 25 27 25h184q9 0 15.5 -7.5t5.5 -17.5l-123 -997q-4 -25 -27 -25h-182q-11 0 -17.5 7.5t-5.5 17.5l8 53q0 6 -4 8t-8 -4q-85 -98 -229 -98
q-243 0 -271 311q-10 96 7 231q19 146 45 226q101 311 358 311q143 0 199 -94q5 -6 8.5 -4t3.5 8zM621 317q32 79 45 207q17 134 4 211q-16 123 -119 123q-106 0 -160 -121q-36 -73 -53 -213q-14 -135 -2 -205q20 -131 131 -131q103 0 154 129z" />
    <glyph glyph-name="aacute" unicode="&#xe1;" horiz-adv-x="978" 
d="M827 1444q14 0 18 -9.5t-5 -21.5l-168 -209q-10 -16 -29 -16h-143q-14 0 -18.5 8t3.5 21l142 210q10 17 30 17h170zM729 1022q4 25 27 25h184q9 0 15.5 -7.5t5.5 -17.5l-123 -997q-4 -25 -27 -25h-182q-11 0 -17.5 7.5t-5.5 17.5l8 53q0 6 -4 8t-8 -4q-85 -98 -229 -98
q-243 0 -271 311q-10 96 7 231q19 146 45 226q101 311 358 311q143 0 199 -94q5 -6 8.5 -4t3.5 8zM621 317q32 79 45 207q17 134 4 211q-16 123 -119 123q-106 0 -160 -121q-36 -73 -53 -213q-14 -135 -2 -205q20 -131 131 -131q103 0 154 129z" />
    <glyph glyph-name="acircumflex" unicode="&#xe2;" horiz-adv-x="978" 
d="M618 1327q-6 12 -12 0l-98 -131q-8 -16 -29 -16h-135q-14 0 -17.5 9t5.5 21l166 211q14 17 30 17h189q16 0 26 -17l121 -211q7 -12 1 -21t-21 -9h-135q-20 0 -25 16zM729 1022q4 25 27 25h184q9 0 15.5 -7.5t5.5 -17.5l-123 -997q-4 -25 -27 -25h-182q-11 0 -17.5 7.5
t-5.5 17.5l8 53q0 6 -4 8t-8 -4q-85 -98 -229 -98q-243 0 -271 311q-10 96 7 231q19 146 45 226q101 311 358 311q143 0 199 -94q5 -6 8.5 -4t3.5 8zM621 317q32 79 45 207q17 134 4 211q-16 123 -119 123q-106 0 -160 -121q-36 -73 -53 -213q-14 -135 -2 -205
q20 -131 131 -131q103 0 154 129z" />
    <glyph glyph-name="atilde" unicode="&#xe3;" horiz-adv-x="978" 
d="M539 1286q-47 0 -86 -47q-20 -23 -35 -8l-58 49q-17 14 -6 33q34 64 84 96.5t103 32.5q52 0 118 -47q2 -1 13 -8.5t14.5 -10t13 -7.5t15 -7t14 -4t16.5 -2q47 0 84 47q16 22 33 8l60 -45q18 -12 6 -33q-41 -67 -95 -98t-104 -31t-111 45q-3 2 -14.5 10t-14 10t-11 7
t-13 6t-11.5 2.5t-15 1.5zM729 1022q4 25 27 25h184q9 0 15.5 -7.5t5.5 -17.5l-123 -997q-4 -25 -27 -25h-182q-11 0 -17.5 7.5t-5.5 17.5l8 53q0 6 -4 8t-8 -4q-85 -98 -229 -98q-243 0 -271 311q-10 96 7 231q19 146 45 226q101 311 358 311q143 0 199 -94q5 -6 8.5 -4
t3.5 8zM621 317q32 79 45 207q17 134 4 211q-16 123 -119 123q-106 0 -160 -121q-36 -73 -53 -213q-14 -135 -2 -205q20 -131 131 -131q103 0 154 129z" />
    <glyph glyph-name="adieresis" unicode="&#xe4;" horiz-adv-x="978" 
d="M432 1196q-54 0 -84 35.5t-22 91.5q6 56 45 91.5t94 35.5q54 0 82 -35t20 -92q-6 -56 -43.5 -91.5t-91.5 -35.5zM768 1196q-55 0 -83.5 35.5t-20.5 91.5q6 57 44 92t93 35q53 0 82 -35t22 -92q-6 -56 -44.5 -91.5t-92.5 -35.5zM729 1022q4 25 27 25h184q9 0 15.5 -7.5
t5.5 -17.5l-123 -997q-4 -25 -27 -25h-182q-11 0 -17.5 7.5t-5.5 17.5l8 53q0 6 -4 8t-8 -4q-85 -98 -229 -98q-243 0 -271 311q-10 96 7 231q19 146 45 226q101 311 358 311q143 0 199 -94q5 -6 8.5 -4t3.5 8zM621 317q32 79 45 207q17 134 4 211q-16 123 -119 123
q-106 0 -160 -121q-36 -73 -53 -213q-14 -135 -2 -205q20 -131 131 -131q103 0 154 129z" />
    <glyph glyph-name="aring" unicode="&#xe5;" horiz-adv-x="978" 
d="M594 1165q-89 0 -143.5 65t-42.5 159q10 92 80 155.5t161 63.5t146 -63.5t43 -155.5q-10 -94 -81.5 -159t-162.5 -65zM635 1497q-43 0 -78 -31.5t-41 -76.5t21.5 -78t70.5 -33q44 0 78.5 32.5t40.5 78.5t-21 77t-71 31zM729 1022q4 25 27 25h184q9 0 15.5 -7.5t5.5 -17.5
l-123 -997q-4 -25 -27 -25h-182q-11 0 -17.5 7.5t-5.5 17.5l8 53q0 6 -4 8t-8 -4q-85 -98 -229 -98q-243 0 -271 311q-10 96 7 231q19 146 45 226q101 311 358 311q143 0 199 -94q5 -6 8.5 -4t3.5 8zM621 317q32 79 45 207q17 134 4 211q-16 123 -119 123q-106 0 -160 -121
q-36 -73 -53 -213q-14 -135 -2 -205q20 -131 131 -131q103 0 154 129z" />
    <glyph glyph-name="ae" unicode="&#xe6;" horiz-adv-x="1497" 
d="M352 -16q-67 0 -121.5 14t-100 46t-66 94t-9.5 149q20 165 132 246t300 81h164q9 0 13 11l6 61q9 79 -26.5 125.5t-111.5 46.5q-57 0 -101.5 -27.5t-61.5 -74.5q-10 -26 -31 -23l-180 17q-25 4 -19 26q27 127 143.5 207t266.5 80q94 0 163 -37.5t103 -99.5q3 -9 12 0
q48 58 128.5 97.5t170.5 39.5q146 0 239.5 -86.5t94.5 -226.5q0 -112 -20 -291q-1 -11 -9 -18t-18 -7h-526q-10 0 -10 -10q-5 -39 -7 -74q-3 -70 42.5 -110.5t121.5 -40.5q116 0 178 104q16 22 35 14l133 -53q23 -7 13 -31q-47 -113 -150 -181t-239 -68q-105 0 -180.5 41.5
t-100.5 101.5q-4 6 -4.5 6.5t-3.5 -0.5q-45 -66 -143.5 -107.5t-219.5 -41.5zM901 625q0 -11 8 -11h310q3 0 6.5 3.5t3.5 7.5q4 62 4 84q2 66 -36.5 107.5t-102.5 41.5q-65 0 -113 -41t-66 -108q-8 -41 -14 -84zM418 166q77 0 138 42.5t71 119.5l12 96q0 10 -10 10h-135
q-87 0 -141.5 -35t-63.5 -102q-7 -62 28.5 -96.5t100.5 -34.5z" />
    <glyph glyph-name="ccedilla" unicode="&#xe7;" horiz-adv-x="948" 
d="M647 326l6 20q1 10 10.5 17.5t18.5 5.5l178 -17q24 -4 19 -26q-1 -5 -2 -11.5t-2.5 -13.5t-2.5 -10q-31 -120 -121 -199.5t-219 -101.5q-14 -3 -4 -13q90 -109 50 -231q-18 -51 -54 -82t-78 -38.5t-79.5 -5.5t-69.5 13q-20 8 -14 31l18 76q6 25 33 18q35 -8 63 5t39 49
q24 74 -67 176q-2 1 -6.5 3t-6.5 3q-120 22 -187.5 102t-70.5 205q-5 83 13 225q14 117 43 224q39 142 153.5 227.5t272.5 85.5q153 0 247.5 -81t102.5 -212q0 -35 -2 -51q0 -23 -25 -27l-182 -18q-12 -2 -18 4t-5 18q0 23 -2 31q-2 56 -40.5 93.5t-102.5 37.5
q-67 0 -115 -40.5t-65 -108.5q-16 -63 -33 -185q-13 -122 -10 -188q0 -67 37.5 -107.5t103.5 -40.5t114 40t62 98z" />
    <glyph glyph-name="egrave" unicode="&#xe8;" horiz-adv-x="960" 
d="M678 1223q6 -13 -0.5 -21t-20.5 -8h-143q-17 0 -27 16l-114 209q-6 12 -0.5 21.5t20.5 9.5h168q19 0 29 -16zM485 186q120 3 183 115q10 23 30 16l144 -38q21 -7 12 -31q-52 -123 -156.5 -193.5t-248.5 -70.5q-151 0 -240 79t-100 213q-14 109 4 256q17 129 34 199
q37 153 150.5 242.5t277.5 89.5q180 0 266.5 -99t80.5 -276q-2 -38 -19 -223q-3 -25 -26 -25h-535q-10 0 -10 -10q-6 -53 -6 -92q2 -68 45 -110t114 -42zM549 858q-65 0 -110.5 -38.5t-63.5 -104.5q-17 -62 -21 -94q0 -11 8 -11h316q12 0 12 11q4 61 2 88q0 69 -37.5 109
t-105.5 40z" />
    <glyph glyph-name="eacute" unicode="&#xe9;" horiz-adv-x="960" 
d="M819 1450q15 0 18 -9.5t-6 -21.5l-165 -209q-13 -16 -31 -16h-143q-13 0 -18 8t3 21l141 211q13 16 33 16h168zM485 186q120 3 183 115q10 23 30 16l144 -38q21 -7 12 -31q-52 -123 -156.5 -193.5t-248.5 -70.5q-151 0 -240 79t-100 213q-14 109 4 256q17 129 34 199
q37 153 150.5 242.5t277.5 89.5q180 0 266.5 -99t80.5 -276q-2 -38 -19 -223q-3 -25 -26 -25h-535q-10 0 -10 -10q-6 -53 -6 -92q2 -68 45 -110t114 -42zM549 858q-65 0 -110.5 -38.5t-63.5 -104.5q-17 -62 -21 -94q0 -11 8 -11h316q12 0 12 11q4 61 2 88q0 69 -37.5 109
t-105.5 40z" />
    <glyph glyph-name="ecircumflex" unicode="&#xea;" horiz-adv-x="960" 
d="M610 1333q-3 12 -12 0l-96 -131q-11 -16 -31 -16h-135q-14 0 -17.5 9.5t5.5 21.5l168 210q10 17 28 17h191q17 0 24 -17l121 -210q7 -12 1.5 -21.5t-19.5 -9.5h-136q-21 0 -26 16zM485 186q120 3 183 115q10 23 30 16l144 -38q21 -7 12 -31q-52 -123 -156.5 -193.5
t-248.5 -70.5q-151 0 -240 79t-100 213q-14 109 4 256q17 129 34 199q37 153 150.5 242.5t277.5 89.5q180 0 266.5 -99t80.5 -276q-2 -38 -19 -223q-3 -25 -26 -25h-535q-10 0 -10 -10q-6 -53 -6 -92q2 -68 45 -110t114 -42zM549 858q-65 0 -110.5 -38.5t-63.5 -104.5
q-17 -62 -21 -94q0 -11 8 -11h316q12 0 12 11q4 61 2 88q0 69 -37.5 109t-105.5 40z" />
    <glyph glyph-name="edieresis" unicode="&#xeb;" horiz-adv-x="960" 
d="M426 1202q-54 0 -84.5 35.5t-24.5 91.5q7 57 46.5 92t93.5 35t82 -35t22 -92q-8 -56 -45 -91.5t-90 -35.5zM762 1202q-55 0 -84 35.5t-23 91.5q8 57 45.5 92t92.5 35q54 0 83 -35t23 -92q-8 -56 -45.5 -91.5t-91.5 -35.5zM485 186q120 3 183 115q10 23 30 16l144 -38
q21 -7 12 -31q-52 -123 -156.5 -193.5t-248.5 -70.5q-151 0 -240 79t-100 213q-14 109 4 256q17 129 34 199q37 153 150.5 242.5t277.5 89.5q180 0 266.5 -99t80.5 -276q-2 -38 -19 -223q-3 -25 -26 -25h-535q-10 0 -10 -10q-6 -53 -6 -92q2 -68 45 -110t114 -42zM549 858
q-65 0 -110.5 -38.5t-63.5 -104.5q-17 -62 -21 -94q0 -11 8 -11h316q12 0 12 11q4 61 2 88q0 69 -37.5 109t-105.5 40z" />
    <glyph glyph-name="igrave" unicode="&#xec;" horiz-adv-x="436" 
d="M412 1229q4 -13 -2.5 -21t-20.5 -8h-143q-18 0 -25 17l-115 208q-6 12 -1 21.5t20 9.5h170q21 0 27 -16zM86 0q-10 0 -16 7t-4 18l120 997q1 10 9.5 17.5t17.5 7.5h184q9 0 15.5 -7.5t5.5 -17.5l-123 -997q-4 -25 -27 -25h-182z" />
    <glyph glyph-name="iacute" unicode="&#xed;" horiz-adv-x="436" 
d="M225 1200q-14 0 -18.5 8t4.5 21l141 211q10 16 31 16h170q13 0 16.5 -9.5t-4.5 -21.5l-168 -208q-10 -17 -28 -17h-144zM86 0q-10 0 -16 7t-4 18l120 997q1 10 9.5 17.5t17.5 7.5h184q9 0 15.5 -7.5t5.5 -17.5l-123 -997q-4 -25 -27 -25h-182z" />
    <glyph glyph-name="icircumflex" unicode="&#xee;" horiz-adv-x="436" 
d="M70 1192q-14 0 -18 9.5t5 21.5l166 211q13 16 31 16h188q17 0 27 -16l121 -211q7 -12 0.5 -21.5t-21.5 -9.5h-135q-19 0 -24 16l-66 131q-6 12 -12 0l-99 -131q-8 -16 -28 -16h-135zM86 0q-10 0 -16 7t-4 18l120 997q1 10 9.5 17.5t17.5 7.5h184q9 0 15.5 -7.5t5.5 -17.5
l-123 -997q-4 -25 -27 -25h-182z" />
    <glyph glyph-name="idieresis" unicode="&#xef;" horiz-adv-x="436" 
d="M158 1208q-54 0 -84 36t-23 91q6 56 45 91.5t94 35.5q53 0 81.5 -35t21.5 -92q-6 -56 -43.5 -91.5t-91.5 -35.5zM494 1208q-55 0 -84 35.5t-21 91.5q6 57 43.5 92t91.5 35t84 -35t23 -92q-6 -56 -44.5 -91.5t-92.5 -35.5zM86 0q-10 0 -16 7t-4 18l120 997q1 10 9.5 17.5
t17.5 7.5h184q9 0 15.5 -7.5t5.5 -17.5l-123 -997q-4 -25 -27 -25h-182z" />
    <glyph glyph-name="eth" unicode="&#xf0;" horiz-adv-x="972" 
d="M907 713q0 -88 -16 -219q-16 -127 -37 -205q-39 -139 -152 -222t-270 -83q-156 0 -247.5 82.5t-96.5 222.5q-7 74 10 205q13 103 39 204q28 115 113.5 191.5t195.5 85.5q64 10 125 1.5t97 -34.5q6 -4 9 -2t1 8q-13 78 -62 178q0 4 -3.5 6.5t-6.5 0.5l-174 -48
q-10 -3 -18.5 2.5t-10.5 16.5l-10 67q-3 23 23 31l127 35q13 4 6 14q-53 79 -109 152q-9 12 -2.5 21.5t21.5 9.5h182q18 0 27 -15q29 -41 75 -119q8 -8 15 -4l164 45q23 6 26 -18l8 -72q3 -23 -20 -30l-115 -31q-11 -4 -8 -10q107 -216 94 -467zM631 324q17 73 28 165
q13 96 13 164q-2 67 -39.5 107.5t-100.5 40.5q-62 0 -109.5 -40.5t-64.5 -107.5q-12 -49 -28 -164q-13 -114 -13 -165q2 -67 39 -107.5t101 -40.5q62 0 109 41t65 107z" />
    <glyph glyph-name="ntilde" unicode="&#xf1;" horiz-adv-x="974" 
d="M545 1280q-48 0 -84 -47q-16 -22 -35 -6l-55 47q-15 15 -4 33q34 64 81.5 96.5t96.5 32.5q55 0 117 -47q2 -2 10.5 -8t11.5 -8t10 -7t11.5 -6.5t11 -4.5t12.5 -4t12 -1q47 0 84 47q16 22 33 8l55 -45q19 -13 5 -33q-40 -67 -91.5 -98t-99.5 -31q-44 0 -109 45
q-5 3 -14 10.5t-12.5 10t-10.5 6.5t-11.5 5.5t-11 3t-13.5 1.5zM659 1063q145 0 215 -94t50 -260l-84 -684q-4 -25 -27 -25h-184q-9 0 -15.5 7.5t-5.5 17.5l80 651q11 84 -24 133t-105 49q-63 0 -110 -40.5t-64 -110.5l-84 -682q-4 -25 -27 -25h-182q-22 0 -22 25l123 997
q1 10 9 17.5t17 7.5h184q9 0 15.5 -7.5t5.5 -17.5l-6 -53q-2 -6 2 -8t8 4q92 98 231 98z" />
    <glyph glyph-name="ograve" unicode="&#xf2;" horiz-adv-x="983" 
d="M686 1223q6 -13 -0.5 -21t-19.5 -8h-144q-16 0 -26 16l-115 209q-6 12 -0.5 21.5t20.5 9.5h168q19 0 29 -16zM451 -16q-161 0 -254.5 85.5t-98.5 235.5q-3 82 13 219q13 119 43 221q40 146 155 232t277 86q157 0 249 -85.5t97 -229.5q6 -97 -8 -222q-17 -118 -45 -221
q-41 -150 -155 -235.5t-273 -85.5zM475 188q64 0 113 41.5t69 112.5q19 74 33 182q14 118 12 181q-1 70 -40.5 111.5t-104.5 41.5q-66 0 -115 -41t-69 -112q-24 -105 -33 -181q-8 -59 -12 -182q3 -71 42 -112.5t105 -41.5z" />
    <glyph glyph-name="oacute" unicode="&#xf3;" horiz-adv-x="983" 
d="M500 1194q-13 0 -18 8t3 21l142 211q13 16 32 16h168q15 0 18.5 -9.5t-5.5 -21.5l-166 -209q-13 -16 -31 -16h-143zM451 -16q-161 0 -254.5 85.5t-98.5 235.5q-3 82 13 219q13 119 43 221q40 146 155 232t277 86q157 0 249 -85.5t97 -229.5q6 -97 -8 -222
q-17 -118 -45 -221q-41 -150 -155 -235.5t-273 -85.5zM475 188q64 0 113 41.5t69 112.5q19 74 33 182q14 118 12 181q-1 70 -40.5 111.5t-104.5 41.5q-66 0 -115 -41t-69 -112q-24 -105 -33 -181q-8 -59 -12 -182q3 -71 42 -112.5t105 -41.5z" />
    <glyph glyph-name="ocircumflex" unicode="&#xf4;" horiz-adv-x="983" 
d="M344 1186q-14 0 -17.5 9.5t5.5 21.5l168 210q10 17 28 17h189q19 0 26 -17l121 -210q7 -12 1.5 -21.5t-19.5 -9.5h-135q-22 0 -27 16l-66 131q-3 12 -12 0l-96 -131q-11 -16 -31 -16h-135zM451 -16q-161 0 -254.5 85.5t-98.5 235.5q-3 82 13 219q13 119 43 221
q40 146 155 232t277 86q157 0 249 -85.5t97 -229.5q6 -97 -8 -222q-17 -118 -45 -221q-41 -150 -155 -235.5t-273 -85.5zM475 188q64 0 113 41.5t69 112.5q19 74 33 182q14 118 12 181q-1 70 -40.5 111.5t-104.5 41.5q-66 0 -115 -41t-69 -112q-24 -105 -33 -181
q-8 -59 -12 -182q3 -71 42 -112.5t105 -41.5z" />
    <glyph glyph-name="otilde" unicode="&#xf5;" horiz-adv-x="983" 
d="M731 1210q-52 0 -113 45q-4 3 -14.5 10.5t-14 9.5t-11 7t-12 6t-11.5 2.5t-14 1.5q-49 0 -88 -47q-20 -23 -35 -8l-58 49q-16 16 -6 33q36 64 85 96.5t102 32.5q55 0 121 -47q2 -2 9 -7t10 -7t9.5 -6t10 -6t10 -5t11.5 -4.5t11 -2.5t12 -1q49 0 86 47q13 22 33 8l60 -45
q17 -13 -4 -47q-39 -60 -90.5 -87.5t-98.5 -27.5zM451 -16q-161 0 -254.5 85.5t-98.5 235.5q-3 82 13 219q13 119 43 221q40 146 155 232t277 86q157 0 249 -85.5t97 -229.5q6 -97 -8 -222q-17 -118 -45 -221q-41 -150 -155 -235.5t-273 -85.5zM475 188q64 0 113 41.5
t69 112.5q19 74 33 182q14 118 12 181q-1 70 -40.5 111.5t-104.5 41.5q-66 0 -115 -41t-69 -112q-24 -105 -33 -181q-8 -59 -12 -182q3 -71 42 -112.5t105 -41.5z" />
    <glyph glyph-name="odieresis" unicode="&#xf6;" horiz-adv-x="983" 
d="M434 1202q-54 0 -84 35.5t-24 91.5q7 57 46 92t93 35t82 -35t22 -92q-8 -56 -45 -91.5t-90 -35.5zM770 1202q-55 0 -83.5 35.5t-22.5 91.5q8 57 45 92t92 35q54 0 82.5 -35t21.5 -92q-6 -56 -43.5 -91.5t-91.5 -35.5zM451 -16q-161 0 -254.5 85.5t-98.5 235.5
q-3 82 13 219q13 119 43 221q40 146 155 232t277 86q157 0 249 -85.5t97 -229.5q6 -97 -8 -222q-17 -118 -45 -221q-41 -150 -155 -235.5t-273 -85.5zM475 188q64 0 113 41.5t69 112.5q19 74 33 182q14 118 12 181q-1 70 -40.5 111.5t-104.5 41.5q-66 0 -115 -41t-69 -112
q-24 -105 -33 -181q-8 -59 -12 -182q3 -71 42 -112.5t105 -41.5z" />
    <glyph glyph-name="divide" unicode="&#xf7;" horiz-adv-x="923" 
d="M526 862q-51 0 -82.5 37.5t-25.5 91.5q6 52 48 89.5t93 37.5t83 -37.5t26 -89.5q-6 -53 -48 -91t-94 -38zM111 553q-9 0 -15.5 7.5t-5.5 17.5l19 141q3 24 26 24h758q22 0 22 -24l-18 -141q-4 -25 -27 -25h-759zM444 193q-51 0 -82.5 37.5t-25.5 91.5q6 52 48 89.5
t93 37.5t83 -37.5t26 -89.5q-6 -53 -48 -91t-94 -38z" />
    <glyph glyph-name="oslash" unicode="&#xf8;" horiz-adv-x="1011" 
d="M952 748q6 -104 -10 -222q-13 -116 -45 -221q-40 -150 -153.5 -235.5t-272.5 -85.5q-121 0 -201 47q-10 3 -14 -4l-68 -93q-16 -19 -32 -6l-80 60q-18 14 -4 35l82 112q5 9 2 15q-34 66 -37 155q-3 102 10 219q16 118 43 221q42 147 157 232.5t277 85.5q107 0 178 -39
q9 -3 13 4l63 86q14 22 33 6l80 -59q17 -14 4 -33l-72 -96q-5 -9 -2 -14q46 -70 49 -170zM360 524q-2 -15 -5 -46.5t-5 -47.5q2 -8 6 -9t9 5l286 401q3 3 3 7t-3 6q-35 18 -76 18q-64 0 -113 -41t-69 -112q-24 -105 -33 -181zM678 342q19 74 33 182q8 90 12 131q-2 6 -5.5 7
t-6.5 -5l-308 -426q-5 -9 0 -14q40 -29 93 -29q64 0 112 41.5t70 112.5z" />
    <glyph glyph-name="ugrave" unicode="&#xf9;" horiz-adv-x="970" 
d="M674 1206q6 -13 -0.5 -20.5t-20.5 -7.5h-143q-17 0 -27 16l-114 209q-6 12 -0.5 21.5t20.5 9.5h168q19 0 29 -17zM721 1022q1 10 9.5 17.5t17.5 7.5h184q9 0 15 -7.5t5 -17.5l-123 -997q-4 -25 -26 -25h-182q-10 0 -16.5 7t-6.5 18l8 55q0 6 -4 7t-8 -5q-78 -96 -223 -96
q-65 0 -119 19.5t-93 58t-56.5 102t-6.5 145.5l86 711q1 10 9.5 17.5t19.5 7.5h182q10 0 16.5 -7t4.5 -18l-80 -651q-11 -87 22.5 -135t106.5 -48q72 0 120.5 51t57.5 136z" />
    <glyph glyph-name="uacute" unicode="&#xfa;" horiz-adv-x="970" 
d="M815 1434q15 0 18 -9.5t-6 -21.5l-165 -209q-13 -16 -31 -16h-144q-13 0 -17.5 7t3.5 21l141 211q14 17 33 17h168zM721 1022q1 10 9.5 17.5t17.5 7.5h184q9 0 15 -7.5t5 -17.5l-123 -997q-4 -25 -26 -25h-182q-10 0 -16.5 7t-6.5 18l8 55q0 6 -4 7t-8 -5
q-78 -96 -223 -96q-65 0 -119 19.5t-93 58t-56.5 102t-6.5 145.5l86 711q1 10 9.5 17.5t19.5 7.5h182q10 0 16.5 -7t4.5 -18l-80 -651q-11 -87 22.5 -135t106.5 -48q72 0 120.5 51t57.5 136z" />
    <glyph glyph-name="ucircumflex" unicode="&#xfb;" horiz-adv-x="970" 
d="M606 1317q-3 12 -12 0l-96 -131q-11 -17 -31 -17h-135q-12 0 -16 9.5t3 21.5l168 211q10 16 29 16h191q18 0 24 -16l121 -211q7 -12 1.5 -21.5t-19.5 -9.5h-136q-20 0 -26 17zM721 1022q1 10 9.5 17.5t17.5 7.5h184q9 0 15 -7.5t5 -17.5l-123 -997q-4 -25 -26 -25h-182
q-10 0 -16.5 7t-6.5 18l8 55q0 6 -4 7t-8 -5q-78 -96 -223 -96q-65 0 -119 19.5t-93 58t-56.5 102t-6.5 145.5l86 711q1 10 9.5 17.5t19.5 7.5h182q10 0 16.5 -7t4.5 -18l-80 -651q-11 -87 22.5 -135t106.5 -48q72 0 120.5 51t57.5 136z" />
    <glyph glyph-name="udieresis" unicode="&#xfc;" horiz-adv-x="970" 
d="M422 1186q-54 0 -84.5 35.5t-24.5 91.5q7 57 46.5 92t93.5 35t82 -35t22 -92q-8 -56 -45 -91.5t-90 -35.5zM758 1186q-55 0 -84 35.5t-23 91.5q8 57 45 92t92 35q54 0 83.5 -35t23.5 -92q-8 -56 -45.5 -91.5t-91.5 -35.5zM721 1022q1 10 9.5 17.5t17.5 7.5h184
q9 0 15 -7.5t5 -17.5l-123 -997q-4 -25 -26 -25h-182q-10 0 -16.5 7t-6.5 18l8 55q0 6 -4 7t-8 -5q-78 -96 -223 -96q-65 0 -119 19.5t-93 58t-56.5 102t-6.5 145.5l86 711q1 10 9.5 17.5t19.5 7.5h182q10 0 16.5 -7t4.5 -18l-80 -651q-11 -87 22.5 -135t106.5 -48
q72 0 120.5 51t57.5 136z" />
    <glyph glyph-name="yacute" unicode="&#xfd;" horiz-adv-x="886" 
d="M451 1186q-13 0 -17.5 7t2.5 21l142 211q14 17 32 17h168q15 0 18.5 -9.5t-5.5 -21.5l-166 -209q-13 -16 -31 -16h-143zM2 -408q-10 0 -10 25l18 147q1 10 6.5 17.5t10.5 7.5h8q108 0 159.5 40.5t90.5 164.5q5 4 2 12l-164 1012q-1 12 5 20.5t17 8.5h197q22 0 25 -21
l73 -684q1 -5 3.5 -7t5.5 0t4 7l239 684q9 21 29 21h197q12 0 16.5 -8.5t-0.5 -20.5l-440 -1075q-37 -87 -67 -141t-68 -98.5t-85 -66.5t-109.5 -33.5t-150.5 -11.5h-12z" />
    <glyph glyph-name="thorn" unicode="&#xfe;" horiz-adv-x="966" 
d="M922 752q4 -76 -11 -226q-18 -141 -51 -231q-104 -311 -348 -311q-132 0 -195 86q-10 10 -14 -4l-55 -451q0 -10 -8 -17.5t-19 -7.5h-182q-10 0 -16.5 7t-4.5 18l220 1794q2 11 10 18t18 7h183q10 0 16 -7t4 -18l-51 -424q-2 -6 2 -8t8 4q79 82 211 82q258 0 283 -311z
M633 319q34 85 47 205q16 133 0 213q-23 121 -129 121q-102 0 -152 -123q-3 -9 -18 -59q-1 -2 -2 -6t-2 -6l-35 -287q0 -24 4 -60q20 -129 125 -129q111 0 162 131z" />
    <glyph glyph-name="ydieresis" unicode="&#xff;" horiz-adv-x="886" 
d="M385 1194q-54 0 -84.5 35.5t-24.5 91.5q7 57 46.5 92t93.5 35t82 -35t22 -92q-8 -56 -45 -91.5t-90 -35.5zM721 1194q-55 0 -84 35.5t-23 91.5q8 57 45.5 92t92.5 35q54 0 83 -35t23 -92q-8 -56 -45.5 -91.5t-91.5 -35.5zM2 -408q-10 0 -10 25l18 147q1 10 6.5 17.5
t10.5 7.5h8q108 0 159.5 40.5t90.5 164.5q5 4 2 12l-164 1012q-1 12 5 20.5t17 8.5h197q22 0 25 -21l73 -684q1 -5 3.5 -7t5.5 0t4 7l239 684q9 21 29 21h197q12 0 16.5 -8.5t-0.5 -20.5l-440 -1075q-37 -87 -67 -141t-68 -98.5t-85 -66.5t-109.5 -33.5t-150.5 -11.5h-12z
" />
    <glyph glyph-name="Amacron" unicode="&#x100;" horiz-adv-x="1124" 
d="M956 1749q9 0 15.5 -7.5t5.5 -17.5l-14 -114q-4 -25 -27 -25h-447q-22 0 -22 25l14 114q1 10 9.5 17.5t17.5 7.5h448zM815 0q-24 0 -27 20l-22 220q0 8 -8 8h-410q-7 0 -10 -8l-80 -220q-6 -20 -29 -20h-190q-25 0 -16 27l530 1386q9 21 31 21h227q24 0 27 -21l190 -1386
q3 -27 -22 -27h-191zM412 446q-3 -12 8 -12h311q13 0 10 12l-73 664q-2 6 -7 6t-6 -6z" />
    <glyph glyph-name="amacron" unicode="&#x101;" horiz-adv-x="978" 
d="M840 1372q23 0 20 -24l-14 -115q0 -10 -8 -17.5t-19 -7.5h-446q-10 0 -16.5 7t-4.5 18l15 115q3 24 26 24h447zM729 1022q4 25 27 25h184q9 0 15.5 -7.5t5.5 -17.5l-123 -997q-4 -25 -27 -25h-182q-11 0 -17.5 7.5t-5.5 17.5l8 53q0 6 -4 8t-8 -4q-85 -98 -229 -98
q-243 0 -271 311q-10 96 7 231q19 146 45 226q101 311 358 311q143 0 199 -94q5 -6 8.5 -4t3.5 8zM621 317q32 79 45 207q17 134 4 211q-16 123 -119 123q-106 0 -160 -121q-36 -73 -53 -213q-14 -135 -2 -205q20 -131 131 -131q103 0 154 129z" />
    <glyph glyph-name="Abreve" unicode="&#x102;" horiz-adv-x="1124" 
d="M707 1518q-93 0 -150.5 58.5t-54.5 149.5q0 25 24 25h78q23 0 23 -25q2 -43 27.5 -70.5t66.5 -27.5q40 0 72.5 27.5t44.5 70.5q6 25 28 25h78q24 0 21 -25q-20 -91 -92.5 -149.5t-165.5 -58.5zM815 0q-24 0 -27 20l-22 220q0 8 -8 8h-410q-7 0 -10 -8l-80 -220
q-6 -20 -29 -20h-190q-25 0 -16 27l530 1386q9 21 31 21h227q24 0 27 -21l190 -1386q3 -27 -22 -27h-191zM412 446q-3 -12 8 -12h311q13 0 10 12l-73 664q-2 6 -7 6t-6 -6z" />
    <glyph glyph-name="abreve" unicode="&#x103;" horiz-adv-x="978" 
d="M592 1141q-93 0 -150.5 59t-54.5 150q0 24 25 24h77q23 0 23 -24q2 -43 27.5 -71t64.5 -28q41 0 74 28t45 71q3 24 29 24h75q27 0 21 -24q-20 -91 -91.5 -150t-164.5 -59zM729 1022q4 25 27 25h184q9 0 15.5 -7.5t5.5 -17.5l-123 -997q-4 -25 -27 -25h-182
q-11 0 -17.5 7.5t-5.5 17.5l8 53q0 6 -4 8t-8 -4q-85 -98 -229 -98q-243 0 -271 311q-10 96 7 231q19 146 45 226q101 311 358 311q143 0 199 -94q5 -6 8.5 -4t3.5 8zM621 317q32 79 45 207q17 134 4 211q-16 123 -119 123q-106 0 -160 -121q-36 -73 -53 -213
q-14 -135 -2 -205q20 -131 131 -131q103 0 154 129z" />
    <glyph glyph-name="Aogonek" unicode="&#x104;" horiz-adv-x="1150" 
d="M862 -197q3 -35 27.5 -48t60.5 -5q29 6 29 -18v-76q0 -22 -23 -31q-34 -11 -72 -13t-78 5.5t-68 38.5t-33 82q-13 134 126 250q3 3 4 5.5t-0.5 4.5t-5.5 2h-14q-24 0 -27 20l-22 220q0 8 -8 8h-410q-7 0 -10 -8l-80 -220q-6 -20 -29 -20h-190q-25 0 -16 27l530 1386
q9 21 31 21h227q24 0 27 -21l190 -1386q3 -27 -8 -27h-10q-5 0 -17 -6q-140 -104 -131 -191zM412 446q-3 -12 8 -12h311q13 0 10 12l-73 664q-2 6 -7 6t-6 -6z" />
    <glyph glyph-name="aogonek" unicode="&#x105;" horiz-adv-x="1191" 
d="M770 -250q14 3 21 -1t6 -17l2 -76q0 -21 -23 -31q-34 -11 -72 -13t-78 5.5t-68.5 38.5t-33.5 82q-13 134 125 250q6 4 5 8t-7 4h-18q-11 0 -17.5 7.5t-5.5 17.5l8 53q0 6 -4 8t-8 -4q-85 -98 -229 -98q-243 0 -271 311q-10 96 7 231q19 146 45 226q101 311 358 311
q143 0 199 -94q5 -6 8.5 -4t3.5 8l6 49q4 25 27 25h184q9 0 15.5 -7.5t5.5 -17.5l-123 -997q-4 -25 -11 -25q-6 0 -10 -4q-143 -108 -135 -193q1 -35 26.5 -48t61.5 -5zM621 317q32 79 45 207q17 134 4 211q-16 123 -119 123q-106 0 -160 -121q-36 -73 -53 -213
q-14 -135 -2 -205q20 -131 131 -131q103 0 154 129z" />
    <glyph glyph-name="Cacute" unicode="&#x106;" horiz-adv-x="1058" 
d="M592 1581q-14 0 -18.5 7.5t4.5 21.5l141 211q10 16 31 16h170q13 0 16.5 -9.5t-4.5 -21.5l-168 -209q-10 -16 -29 -16h-143zM494 -16q-197 0 -303.5 119t-81.5 315l73 602q25 195 159 312.5t331 117.5q198 0 304 -115t83 -307l-2 -12q-1 -10 -9.5 -18.5t-17.5 -8.5
l-186 -8q-10 0 -16.5 7t-4.5 18l2 24q12 97 -37 156t-141 59q-94 0 -157.5 -59t-75.5 -156l-76 -629q-12 -96 37.5 -154.5t142.5 -58.5q92 0 156 59t76 154l2 27q3 23 26 23l185 -9q11 0 16 -4.5t4 -11.5l-2 -16q-23 -193 -156.5 -309.5t-330.5 -116.5z" />
    <glyph glyph-name="cacute" unicode="&#x107;" horiz-adv-x="948" 
d="M494 1196q-13 0 -18 8t3 21l142 211q13 16 32 16h168q15 0 18.5 -9.5t-5.5 -21.5l-166 -209q-13 -16 -31 -16h-143zM446 -16q-160 0 -252.5 85t-95.5 232q-5 83 13 225q14 117 43 224q39 142 153.5 227.5t272.5 85.5q153 0 247.5 -81t102.5 -212q0 -35 -2 -51
q0 -23 -25 -27l-182 -18q-12 -2 -18 4t-5 18q0 23 -2 31q-2 56 -40.5 93.5t-102.5 37.5q-67 0 -115 -40.5t-65 -108.5q-16 -63 -33 -185q-13 -122 -10 -188q0 -67 37.5 -107.5t103.5 -40.5t114 40t62 98l6 20q1 10 10.5 17.5t18.5 5.5l178 -17q24 -4 19 -26q-1 -5 -2 -11.5
t-2.5 -13.5t-2.5 -10q-35 -140 -151 -223.5t-275 -83.5z" />
    <glyph glyph-name="Cdotaccent" unicode="&#x10a;" horiz-adv-x="1058" 
d="M688 1573q-51 0 -78 32.5t-20 84.5q6 53 41 85.5t86 32.5q49 0 74.5 -32.5t19.5 -85.5t-40 -85t-83 -32zM494 -16q-197 0 -303.5 119t-81.5 315l73 602q25 195 159 312.5t331 117.5q198 0 304 -115t83 -307l-2 -12q-1 -10 -9.5 -18.5t-17.5 -8.5l-186 -8q-10 0 -16.5 7
t-4.5 18l2 24q12 97 -37 156t-141 59q-94 0 -157.5 -59t-75.5 -156l-76 -629q-12 -96 37.5 -154.5t142.5 -58.5q92 0 156 59t76 154l2 27q3 23 26 23l185 -9q11 0 16 -4.5t4 -11.5l-2 -16q-23 -193 -156.5 -309.5t-330.5 -116.5z" />
    <glyph glyph-name="cdotaccent" unicode="&#x10b;" horiz-adv-x="948" 
d="M590 1188q-50 0 -77 32.5t-21 84.5t42 85t87 33q49 0 74.5 -32.5t19.5 -85.5t-40 -85t-85 -32zM446 -16q-160 0 -252.5 85t-95.5 232q-5 83 13 225q14 117 43 224q39 142 153.5 227.5t272.5 85.5q153 0 247.5 -81t102.5 -212q0 -35 -2 -51q0 -23 -25 -27l-182 -18
q-12 -2 -18 4t-5 18q0 23 -2 31q-2 56 -40.5 93.5t-102.5 37.5q-67 0 -115 -40.5t-65 -108.5q-16 -63 -33 -185q-13 -122 -10 -188q0 -67 37.5 -107.5t103.5 -40.5t114 40t62 98l6 20q1 10 10.5 17.5t18.5 5.5l178 -17q24 -4 19 -26q-1 -5 -2 -11.5t-2.5 -13.5t-2.5 -10
q-35 -140 -151 -223.5t-275 -83.5z" />
    <glyph glyph-name="Ccaron" unicode="&#x10c;" horiz-adv-x="1058" 
d="M588 1561q-21 0 -27 16l-108 211q-6 12 -1 21.5t17 9.5h131q20 0 27 -17l67 -133q2 -6 6 -6t7 6l98 133q11 17 31 17h125q14 0 17.5 -9.5t-5.5 -21.5l-166 -211q-10 -16 -29 -16h-190zM494 -16q-197 0 -303.5 119t-81.5 315l73 602q25 195 159 312.5t331 117.5
q198 0 304 -115t83 -307l-2 -12q-1 -10 -9.5 -18.5t-17.5 -8.5l-186 -8q-10 0 -16.5 7t-4.5 18l2 24q12 97 -37 156t-141 59q-94 0 -157.5 -59t-75.5 -156l-76 -629q-12 -96 37.5 -154.5t142.5 -58.5q92 0 156 59t76 154l2 27q3 23 26 23l185 -9q11 0 16 -4.5t4 -11.5
l-2 -16q-23 -193 -156.5 -309.5t-330.5 -116.5z" />
    <glyph glyph-name="ccaron" unicode="&#x10d;" horiz-adv-x="948" 
d="M489 1176q-18 0 -24 16l-111 211q-6 12 0 21.5t19 9.5h131q16 0 26 -17l66 -133q7 -14 14 0l99 133q11 17 28 17h127q12 0 15.5 -9.5t-5.5 -21.5l-163 -211q-13 -16 -31 -16h-191zM446 -16q-160 0 -252.5 85t-95.5 232q-5 83 13 225q14 117 43 224q39 142 153.5 227.5
t272.5 85.5q153 0 247.5 -81t102.5 -212q0 -35 -2 -51q0 -23 -25 -27l-182 -18q-12 -2 -18 4t-5 18q0 23 -2 31q-2 56 -40.5 93.5t-102.5 37.5q-67 0 -115 -40.5t-65 -108.5q-16 -63 -33 -185q-13 -122 -10 -188q0 -67 37.5 -107.5t103.5 -40.5t114 40t62 98l6 20
q1 10 10.5 17.5t18.5 5.5l178 -17q24 -4 19 -26q-1 -5 -2 -11.5t-2.5 -13.5t-2.5 -10q-35 -140 -151 -223.5t-275 -83.5z" />
    <glyph glyph-name="Dcaron" unicode="&#x10e;" horiz-adv-x="1083" 
d="M584 1546q-20 0 -27 17l-108 211q-6 12 -1 21t17 9h133q19 0 25 -16l67 -133q2 -6 6 -6t9 6l96 133q11 16 30 16h125q14 0 18 -9t-5 -21l-166 -211q-10 -17 -29 -17h-190zM111 0q-9 0 -15.5 7.5t-5.5 17.5l170 1384q4 25 27 25h411q192 0 295 -111t80 -295l-76 -622
q-23 -184 -153 -295t-322 -111h-411zM344 215q0 -10 8 -10l197 2q88 0 147 60.5t74 164.5l70 569q13 104 -31.5 166t-132.5 62h-197q-9 0 -12 -10z" />
    <glyph glyph-name="dcaron" unicode="&#x10f;" horiz-adv-x="1288" 
d="M709 969q5 -6 8.5 -4t3.5 8l53 436q1 10 9.5 17.5t17.5 7.5h184q10 0 16.5 -7t4.5 -18l-170 -1384q-4 -25 -27 -25h-182q-10 0 -16.5 7t-6.5 18l8 53q0 6 -4 8t-8 -4q-85 -98 -229 -98q-243 0 -271 311q-10 101 6 231q18 141 46 226q101 311 358 311q143 0 199 -94z
M1198 1417q14 17 33 17h168q15 0 18 -9.5t-6 -21.5l-166 -209q-13 -16 -31 -16h-143q-13 0 -16.5 8t4.5 20zM618 317q33 82 46 207q18 141 4 211q-16 123 -119 123q-106 0 -160 -121q-36 -73 -53 -213q-14 -135 -2 -205q20 -131 131 -131q102 0 153 129z" />
    <glyph glyph-name="Dcroat" unicode="&#x110;" horiz-adv-x="1173" 
d="M791 1434q192 0 294.5 -111t79.5 -295l-75 -622q-23 -184 -153.5 -295t-322.5 -111h-411q-10 0 -16.5 7t-4.5 18l78 634q0 11 -8 11h-59q-9 0 -15.5 7t-5.5 17l12 103q1 10 9.5 17t19.5 7h57q11 0 11 10l71 578q4 25 27 25h412zM862 432l70 569q12 105 -32.5 166.5
t-133.5 61.5h-197q-10 0 -10 -10l-47 -388q-3 -10 8 -10h139q11 0 16.5 -7t4.5 -17l-12 -103q-2 -11 -9.5 -17.5t-17.5 -6.5h-139q-9 0 -13 -11l-53 -444q-3 -10 8 -10l197 2q86 0 145 60t76 165z" />
    <glyph glyph-name="dcroat" unicode="&#x111;" horiz-adv-x="1191" 
d="M1085 1296q11 0 16.5 -7t4.5 -17l-12 -98q-4 -25 -27 -25h-84q-10 0 -10 -10l-137 -1114q-4 -25 -27 -25h-182q-10 0 -16.5 7t-6.5 18l8 53q0 6 -4 8t-8 -4q-85 -98 -229 -98q-243 0 -271 311q-10 101 6 231q18 141 46 226q101 311 358 311q143 0 199 -94q5 -6 8.5 -4
t3.5 8l20 166q3 10 -8 10h-244q-22 0 -22 25l12 98q1 10 9.5 17t17.5 7h246q10 0 10 11l12 102q1 10 9.5 17.5t17.5 7.5h184q10 0 16.5 -7t4.5 -18l-13 -102q-1 -4 1 -7.5t7 -3.5h84zM618 317q33 82 46 207q18 141 4 211q-16 123 -119 123q-106 0 -160 -121
q-36 -73 -53 -213q-14 -135 -2 -205q20 -131 131 -131q102 0 153 129z" />
    <glyph glyph-name="Emacron" unicode="&#x112;" horiz-adv-x="1019" 
d="M932 1774q9 0 15 -7.5t5 -17.5l-14 -115q-2 -11 -9.5 -17.5t-17.5 -6.5h-448q-9 0 -15.5 7t-5.5 17l15 115q1 10 9 17.5t17 7.5h449zM1057 1253q0 -10 -8 -17t-19 -7h-551q-9 0 -12 -10l-47 -385q0 -11 8 -11h354q11 0 16.5 -7t4.5 -17l-19 -156q-4 -25 -26 -25h-355
q-10 0 -10 -10l-49 -393q0 -10 8 -10h553q10 0 16.5 -7t4.5 -18l-19 -155q-4 -25 -26 -25h-770q-9 0 -15.5 7.5t-5.5 17.5l170 1384q4 25 27 25h770q9 0 15 -7.5t5 -17.5z" />
    <glyph glyph-name="emacron" unicode="&#x113;" horiz-adv-x="960" 
d="M834 1378q9 0 15 -7t5 -17l-14 -115q-4 -25 -27 -25h-446q-10 0 -16.5 7t-6.5 18l14 115q1 10 9.5 17t17.5 7h449zM485 186q120 3 183 115q10 23 30 16l144 -38q21 -7 12 -31q-52 -123 -156.5 -193.5t-248.5 -70.5q-151 0 -240 79t-100 213q-14 109 4 256q17 129 34 199
q37 153 150.5 242.5t277.5 89.5q180 0 266.5 -99t80.5 -276q-2 -38 -19 -223q-3 -25 -26 -25h-535q-10 0 -10 -10q-6 -53 -6 -92q2 -68 45 -110t114 -42zM549 858q-65 0 -110.5 -38.5t-63.5 -104.5q-17 -62 -21 -94q0 -11 8 -11h316q12 0 12 11q4 61 2 88q0 69 -37.5 109
t-105.5 40z" />
    <glyph glyph-name="Edotaccent" unicode="&#x116;" horiz-adv-x="1019" 
d="M686 1581q-51 0 -77.5 32t-20.5 85t41 86t86 33q49 0 75.5 -33t20.5 -86q-6 -52 -40.5 -84.5t-84.5 -32.5zM1057 1253q0 -10 -8 -17t-19 -7h-551q-9 0 -12 -10l-47 -385q0 -11 8 -11h354q11 0 16.5 -7t4.5 -17l-19 -156q-4 -25 -26 -25h-355q-10 0 -10 -10l-49 -393
q0 -10 8 -10h553q10 0 16.5 -7t4.5 -18l-19 -155q-4 -25 -26 -25h-770q-9 0 -15.5 7.5t-5.5 17.5l170 1384q4 25 27 25h770q9 0 15 -7.5t5 -17.5z" />
    <glyph glyph-name="edotaccent" unicode="&#x117;" horiz-adv-x="960" 
d="M588 1186q-51 0 -78 32t-21 85q6 52 42 85t87 33q49 0 75 -32.5t20 -85.5q-6 -52 -40.5 -84.5t-84.5 -32.5zM485 186q120 3 183 115q10 23 30 16l144 -38q21 -7 12 -31q-52 -123 -156.5 -193.5t-248.5 -70.5q-151 0 -240 79t-100 213q-14 109 4 256q17 129 34 199
q37 153 150.5 242.5t277.5 89.5q180 0 266.5 -99t80.5 -276q-2 -38 -19 -223q-3 -25 -26 -25h-535q-10 0 -10 -10q-6 -53 -6 -92q2 -68 45 -110t114 -42zM549 858q-65 0 -110.5 -38.5t-63.5 -104.5q-17 -62 -21 -94q0 -11 8 -11h316q12 0 12 11q4 61 2 88q0 69 -37.5 109
t-105.5 40z" />
    <glyph glyph-name="Eogonek" unicode="&#x118;" horiz-adv-x="1019" 
d="M1057 1253q0 -10 -8 -17t-19 -7h-551q-9 0 -12 -10l-47 -385q0 -11 8 -11h354q11 0 16.5 -7t4.5 -17l-19 -156q-4 -25 -26 -25h-355q-10 0 -10 -10l-49 -393q0 -10 8 -10h553q10 0 16.5 -7t4.5 -18l-19 -155q-4 -25 -26 -25h-306q-8 0 -12 -4q-116 -94 -110 -172
q3 -35 28.5 -48t61.5 -5q26 6 26 -19v-76q0 -21 -20 -30q-27 -8 -56.5 -12t-63.5 -1t-61 15.5t-47 40.5t-24 69q-13 124 102 230q5 4 3.5 8t-7.5 4h-284q-9 0 -15.5 7.5t-5.5 17.5l170 1384q4 25 27 25h770q9 0 15 -7.5t5 -17.5z" />
    <glyph glyph-name="eogonek" unicode="&#x119;" horiz-adv-x="960" 
d="M485 186q120 3 183 115q10 23 30 16l144 -38q21 -7 12 -31q-44 -102 -122.5 -168t-188.5 -86q-10 -5 -11 -6q-128 -103 -120 -183q3 -35 27.5 -48t60.5 -5q28 6 28 -18v-76q0 -22 -22 -31q-34 -11 -72 -13t-78 5.5t-68.5 38.5t-33.5 82q-13 125 111 237q10 10 -3 13
q-113 22 -178.5 96.5t-74.5 189.5q-14 109 4 256q17 129 34 199q37 153 150.5 242.5t277.5 89.5q180 0 266.5 -99t80.5 -276q-2 -38 -19 -223q-3 -25 -26 -25h-535q-10 0 -10 -10q-6 -53 -6 -92q2 -68 45 -110t114 -42zM549 858q-65 0 -110.5 -38.5t-63.5 -104.5
q-17 -62 -21 -94q0 -11 8 -11h316q12 0 12 11q4 61 2 88q0 69 -37.5 109t-105.5 40z" />
    <glyph glyph-name="Ecaron" unicode="&#x11a;" horiz-adv-x="1019" 
d="M807 1585q-13 -16 -31 -16h-190q-19 0 -25 16l-110 211q-6 12 -0.5 21.5t18.5 9.5h131q18 0 25 -17l67 -133q3 -6 7.5 -6t7.5 6l98 133q9 17 29 17h124q14 0 18 -9.5t-5 -21.5zM1057 1253q0 -10 -8 -17t-19 -7h-551q-9 0 -12 -10l-47 -385q0 -11 8 -11h354q11 0 16.5 -7
t4.5 -17l-19 -156q-4 -25 -26 -25h-355q-10 0 -10 -10l-49 -393q0 -10 8 -10h553q10 0 16.5 -7t4.5 -18l-19 -155q-4 -25 -26 -25h-770q-9 0 -15.5 7.5t-5.5 17.5l170 1384q4 25 27 25h770q9 0 15 -7.5t5 -17.5z" />
    <glyph glyph-name="ecaron" unicode="&#x11b;" horiz-adv-x="960" 
d="M707 1182q-10 -17 -29 -17h-191q-19 0 -26 17l-109 211q-6 12 -0.5 21t17.5 9h131q20 0 26 -16l68 -133q4 -14 14 0l97 133q11 16 30 16h125q14 0 17.5 -9t-5.5 -21zM485 186q120 3 183 115q10 23 30 16l144 -38q21 -7 12 -31q-52 -123 -156.5 -193.5t-248.5 -70.5
q-151 0 -240 79t-100 213q-14 109 4 256q17 129 34 199q37 153 150.5 242.5t277.5 89.5q180 0 266.5 -99t80.5 -276q-2 -38 -19 -223q-3 -25 -26 -25h-535q-10 0 -10 -10q-6 -53 -6 -92q2 -68 45 -110t114 -42zM549 858q-65 0 -110.5 -38.5t-63.5 -104.5q-17 -62 -21 -94
q0 -11 8 -11h316q12 0 12 11q4 61 2 88q0 69 -37.5 109t-105.5 40z" />
    <glyph glyph-name="Gbreve" unicode="&#x11e;" horiz-adv-x="1056" 
d="M682 1534q-93 0 -150.5 59t-54.5 150q0 24 25 24h78q22 0 22 -24q2 -43 27.5 -70.5t64.5 -27.5q41 0 73.5 27.5t43.5 70.5q6 24 31 24h76q26 0 20 -24q-20 -91 -92 -150t-164 -59zM492 -16q-196 0 -302 117.5t-81 310.5l73 610q25 193 159 310.5t329 117.5
q197 0 303.5 -115t83.5 -299l-6 -47q-2 -11 -9.5 -17.5t-17.5 -6.5h-182q-11 0 -16.5 7t-4.5 17l6 47q11 92 -38.5 150.5t-143.5 58.5q-92 0 -155.5 -60.5t-75.5 -158.5l-76 -618q-12 -98 39 -159t145 -61q91 0 152.5 55t73.5 148l20 162q0 10 -10 10h-180q-10 0 -16.5 7
t-4.5 18l18 149q4 25 27 25h397q10 0 16.5 -7t4.5 -18l-39 -319q-25 -202 -157.5 -318t-331.5 -116z" />
    <glyph glyph-name="gbreve" unicode="&#x11f;" horiz-adv-x="972" 
d="M600 1145q-93 0 -150.5 59t-54.5 150q0 24 25 24h78q22 0 22 -24q2 -43 27.5 -71t64.5 -28q41 0 74 28t45 71q6 24 29 24h78q24 0 18 -24q-20 -91 -91.5 -150t-164.5 -59zM731 1022q4 25 27 25h182q10 0 16.5 -7t6.5 -18l-119 -967q-32 -259 -194.5 -373t-438.5 -92
q-21 3 -21 27l27 164q3 25 29 22q181 -12 265 50.5t103 216.5l2 18q2 6 -2 8t-8 -4q-87 -90 -221 -90q-129 0 -209 78.5t-84 224.5q-3 71 17 221q22 170 45 234q36 140 129.5 221.5t224.5 81.5q137 0 205 -92q5 -5 8.5 -3.5t3.5 7.5zM643 348q15 79 27 178q12 87 16 185
q0 66 -37 106.5t-100 40.5t-110 -40.5t-66 -106.5q-20 -72 -35 -185q-13 -119 -10 -178q2 -64 40 -105.5t101 -41.5q66 0 112.5 41t61.5 106z" />
    <glyph glyph-name="Gdotaccent" unicode="&#x120;" horiz-adv-x="1056" 
d="M686 1573q-51 0 -78 32.5t-20 84.5q6 53 41 85.5t86 32.5q49 0 74.5 -32.5t19.5 -85.5t-40 -85t-83 -32zM492 -16q-196 0 -302 117.5t-81 310.5l73 610q25 193 159 310.5t329 117.5q197 0 303.5 -115t83.5 -299l-6 -47q-2 -11 -9.5 -17.5t-17.5 -6.5h-182q-11 0 -16.5 7
t-4.5 17l6 47q11 92 -38.5 150.5t-143.5 58.5q-92 0 -155.5 -60.5t-75.5 -158.5l-76 -618q-12 -98 39 -159t145 -61q91 0 152.5 55t73.5 148l20 162q0 10 -10 10h-180q-10 0 -16.5 7t-4.5 18l18 149q4 25 27 25h397q10 0 16.5 -7t4.5 -18l-39 -319q-25 -202 -157.5 -318
t-331.5 -116z" />
    <glyph glyph-name="gdotaccent" unicode="&#x121;" horiz-adv-x="972" 
d="M604 1184q-51 0 -77.5 31.5t-20.5 84.5t41 86t86 33q49 0 75.5 -33t18.5 -86q-6 -52 -39.5 -84t-83.5 -32zM731 1022q4 25 27 25h182q10 0 16.5 -7t6.5 -18l-119 -967q-32 -259 -194.5 -373t-438.5 -92q-21 3 -21 27l27 164q3 25 29 22q181 -12 265 50.5t103 216.5l2 18
q2 6 -2 8t-8 -4q-87 -90 -221 -90q-129 0 -209 78.5t-84 224.5q-3 71 17 221q22 170 45 234q36 140 129.5 221.5t224.5 81.5q137 0 205 -92q5 -5 8.5 -3.5t3.5 7.5zM643 348q15 79 27 178q12 87 16 185q0 66 -37 106.5t-100 40.5t-110 -40.5t-66 -106.5q-20 -72 -35 -185
q-13 -119 -10 -178q2 -64 40 -105.5t101 -41.5q66 0 112.5 41t61.5 106z" />
    <glyph glyph-name="uni0122" unicode="&#x122;" horiz-adv-x="1056" 
d="M492 -16q-196 0 -302 117.5t-81 310.5l73 610q25 193 159 310.5t329 117.5q197 0 303.5 -115t83.5 -299l-6 -47q-2 -11 -9.5 -17.5t-17.5 -6.5h-182q-11 0 -16.5 7t-4.5 17l6 47q11 92 -38.5 150.5t-143.5 58.5q-92 0 -155.5 -60.5t-75.5 -158.5l-76 -618
q-12 -98 39 -159t145 -61q91 0 152.5 55t73.5 148l20 162q0 10 -10 10h-180q-10 0 -16.5 7t-4.5 18l18 149q4 25 27 25h397q10 0 16.5 -7t4.5 -18l-39 -319q-25 -202 -157.5 -318t-331.5 -116zM293 -383q-14 0 -18.5 7.5t4.5 21.5l141 211q10 16 31 16h170q14 0 17.5 -9.5
t-5.5 -21.5l-168 -209q-10 -16 -29 -16h-143z" />
    <glyph glyph-name="uni0123" unicode="&#x123;" horiz-adv-x="972" 
d="M782 1427q14 0 18.5 -7.5t-3.5 -20.5l-140 -211q-14 -17 -32 -17h-168q-15 0 -18.5 9.5t5.5 21.5l166 209q13 16 31 16h141zM731 1022q4 25 27 25h182q10 0 16.5 -7t6.5 -18l-119 -967q-32 -259 -194.5 -373t-438.5 -92q-21 3 -21 27l27 164q3 25 29 22q181 -12 265 50.5
t103 216.5l2 18q2 6 -2 8t-8 -4q-87 -90 -221 -90q-129 0 -209 78.5t-84 224.5q-3 71 17 221q22 170 45 234q36 140 129.5 221.5t224.5 81.5q137 0 205 -92q5 -5 8.5 -3.5t3.5 7.5zM643 348q15 79 27 178q12 87 16 185q0 66 -37 106.5t-100 40.5t-110 -40.5t-66 -106.5
q-20 -72 -35 -185q-13 -119 -10 -178q2 -64 40 -105.5t101 -41.5q66 0 112.5 41t61.5 106z" />
    <glyph glyph-name="Hbar" unicode="&#x126;" horiz-adv-x="1105" 
d="M1176 1200q22 0 22 -24l-14 -113q-4 -25 -27 -25h-74q-9 0 -12 -10l-123 -1003q-4 -25 -26 -25h-183q-10 0 -16 7t-4 18l72 581q0 10 -11 10h-377q-10 0 -10 -10l-71 -581q-1 -10 -9.5 -17.5t-17.5 -7.5h-184q-9 0 -15.5 7.5t-5.5 17.5l123 1003q3 10 -8 10h-74
q-10 0 -16 7t-4 18l14 113q2 11 9.5 17.5t17.5 6.5h73q11 0 11 10l24 199q4 25 27 25h184q9 0 15.5 -7.5t5.5 -17.5l-25 -199q-3 -10 8 -10h377q9 0 12 10l25 199q4 25 26 25h183q10 0 16 -7t4 -18l-24 -199q0 -10 10 -10h72zM807 823q10 0 10 11l25 194q0 10 -8 10h-379
q-11 0 -11 -10l-24 -194q0 -11 8 -11h379z" />
    <glyph glyph-name="hbar" unicode="&#x127;" horiz-adv-x="974" 
d="M659 1063q145 0 215 -94t50 -260l-84 -684q-4 -25 -27 -25h-184q-9 0 -15.5 7.5t-5.5 17.5l80 651q11 84 -24 133t-105 49q-63 0 -110 -40.5t-64 -110.5l-84 -682q-4 -25 -27 -25h-182q-22 0 -22 25l135 1085q0 10 -10 10h-82q-10 0 -16.5 7t-6.5 18l12 98q1 10 9.5 17.5
t17.5 7.5h84q9 0 12 10l15 131q2 11 10 18t18 7h183q10 0 16 -7t4 -18l-16 -131q0 -10 8 -10h246q9 0 15 -7.5t5 -17.5l-12 -98q-4 -25 -27 -25h-244q-12 0 -12 -10l-16 -141q-2 -6 2 -8t8 4q92 98 231 98z" />
    <glyph glyph-name="Imacron" unicode="&#x12a;" horiz-adv-x="483" 
d="M174 1610q-23 0 -20 24l14 115q0 10 8 17.5t19 7.5h446q10 0 16.5 -7t4.5 -18l-15 -115q-3 -24 -26 -24h-447zM111 0q-9 0 -15.5 7.5t-5.5 17.5l170 1384q4 25 27 25h184q9 0 15.5 -7.5t5.5 -17.5l-170 -1384q-1 -10 -9.5 -17.5t-17.5 -7.5h-184z" />
    <glyph glyph-name="imacron" unicode="&#x12b;" horiz-adv-x="436" 
d="M98 1221q-23 0 -20 24l14 115q2 11 9.5 17.5t17.5 6.5h446q11 0 16.5 -7t4.5 -17l-15 -115q-3 -24 -26 -24h-447zM86 0q-10 0 -16 7t-4 18l120 997q1 10 9.5 17.5t17.5 7.5h184q9 0 15.5 -7.5t5.5 -17.5l-123 -997q-4 -25 -27 -25h-182z" />
    <glyph glyph-name="Iogonek" unicode="&#x12e;" horiz-adv-x="559" 
d="M315 -250q27 6 27 -18l2 -76q0 -22 -22 -31q-35 -11 -73 -13t-78 5.5t-68 38.5t-33 82q-16 132 125 250q6 4 5 8t-7 4h-29q-10 0 -16.5 7t-6.5 18l170 1384q1 10 9.5 17.5t17.5 7.5h184q10 0 16.5 -7t4.5 -18l-170 -1391l-4 -18h-2q-150 -110 -142 -197q3 -35 28.5 -48
t61.5 -5z" />
    <glyph glyph-name="iogonek" unicode="&#x12f;" horiz-adv-x="489" 
d="M365 1192q-51 0 -78 32t-21 85t41 85.5t86 32.5q49 0 75.5 -32.5t20.5 -85.5q-8 -53 -41.5 -85t-82.5 -32zM279 -250q28 6 28 -18v-76q0 -22 -20 -31q-35 -11 -73 -13t-78.5 5.5t-69 38.5t-33.5 82q-13 133 127 250q3 3 4 5.5t-0.5 4.5t-5.5 2h-29q-10 0 -16 7t-4 18
l122 997q4 25 27 25h182q10 0 16.5 -7t4.5 -18l-123 -997l-4 -25h-2q-151 -108 -142 -197q3 -35 28 -48t61 -5z" />
    <glyph glyph-name="Idotaccent" unicode="&#x130;" horiz-adv-x="483" 
d="M397 1581q-51 0 -78.5 32t-21.5 85q8 53 43 86t86 33q49 0 74.5 -33t19.5 -86t-40 -85t-83 -32zM111 0q-9 0 -15.5 7.5t-5.5 17.5l170 1384q4 25 27 25h184q9 0 15.5 -7.5t5.5 -17.5l-170 -1384q-1 -10 -9.5 -17.5t-17.5 -7.5h-184z" />
    <glyph glyph-name="dotlessi" unicode="&#x131;" horiz-adv-x="436" 
d="M86 0q-10 0 -16 7t-4 18l120 997q1 10 9.5 17.5t17.5 7.5h184q9 0 15.5 -7.5t5.5 -17.5l-123 -997q-4 -25 -27 -25h-182z" />
    <glyph glyph-name="ij" unicode="&#x133;" horiz-adv-x="901" 
d="M342 1178q-65 0 -100.5 40.5t-26.5 106.5q7 66 53 107t109 41q65 0 99.5 -41t25.5 -107q-7 -66 -52 -106.5t-108 -40.5zM786 1176q-65 0 -100 42.5t-27 106.5q7 62 56.5 105t107.5 43q57 0 95.5 -43t31.5 -105q-8 -63 -54.5 -106t-109.5 -43zM104 0q-9 0 -15 7.5t-5 17.5
l123 997q4 25 26 25h183q22 0 22 -25l-123 -997q-1 -10 -9 -17.5t-17 -7.5h-185zM289 -420q-25 0 -21 25l19 153q3 25 26 25q100 -1 149 44t60 138l129 1057q1 10 9.5 17.5t17.5 7.5h184q9 0 15.5 -7.5t5.5 -17.5l-129 -1055q-13 -106 -38.5 -174.5t-77.5 -119.5t-137 -72.5
t-212 -20.5z" />
    <glyph glyph-name="uni0136" unicode="&#x136;" horiz-adv-x="1091" 
d="M111 0q-9 0 -15.5 7.5t-5.5 17.5l170 1384q4 25 27 25h184q9 0 15.5 -7.5t5.5 -17.5l-74 -590q0 -16 12 -4l481 602q10 17 29 17h201q14 0 17.5 -9.5t-5.5 -21.5l-446 -576q-3 -6 0 -14l305 -784q5 -12 -0.5 -20.5t-18.5 -8.5h-202q-21 0 -27 18l-240 611q-5 11 -14 2
l-129 -158q-6 -6 -6 -12l-53 -436q-1 -10 -9.5 -17.5t-17.5 -7.5h-184zM336 -367q-13 0 -17.5 7.5t3.5 21.5l141 211q13 16 33 16h168q15 0 18 -9t-6 -21l-166 -209q-14 -17 -31 -17h-143z" />
    <glyph glyph-name="uni0137" unicode="&#x137;" horiz-adv-x="950" 
d="M92 0q-22 0 -22 25l170 1384q2 11 10 18t18 7h183q10 0 16 -7t4 -18l-90 -733q0 -13 12 -4l312 360q15 15 32 15h201q14 0 16 -9.5t-8 -21.5l-268 -318q-4 -9 -2 -14l186 -655q3 -12 -3 -20.5t-19 -8.5h-191q-21 0 -24 20l-121 490q-3 11 -12 2l-148 -166q-4 -8 -4 -12
l-39 -309q-4 -25 -27 -25h-182zM260 -367q-13 0 -17.5 7.5t3.5 21.5l141 211q13 16 33 16h168q15 0 18 -9t-6 -21l-166 -209q-14 -17 -31 -17h-143z" />
    <glyph glyph-name="Lacute" unicode="&#x139;" horiz-adv-x="978" 
d="M297 1565q-14 0 -18 7.5t4 20.5l141 211q14 17 33 17h168q15 0 18 -9.5t-6 -21.5l-166 -209q-13 -16 -31 -16h-143zM111 0q-9 0 -15.5 7.5t-5.5 17.5l170 1384q4 25 27 25h184q9 0 15.5 -7.5t5.5 -17.5l-148 -1194q0 -10 8 -10h547q10 0 16.5 -7t4.5 -18l-19 -155
q-4 -25 -27 -25h-763z" />
    <glyph glyph-name="lacute" unicode="&#x13a;" horiz-adv-x="438" 
d="M279 1565q-14 0 -18.5 7.5t3.5 20.5l139 211q14 17 33 17h168q15 0 18 -9.5t-6 -21.5l-165 -209q-13 -16 -31 -16h-141zM90 0q-22 0 -22 25l170 1384q2 11 10 18t18 7h183q10 0 16 -7t4 -18l-170 -1384q-4 -25 -27 -25h-182z" />
    <glyph glyph-name="uni013B" unicode="&#x13b;" horiz-adv-x="978" 
d="M111 0q-9 0 -15.5 7.5t-5.5 17.5l170 1384q4 25 27 25h184q9 0 15.5 -7.5t5.5 -17.5l-148 -1194q0 -10 8 -10h547q10 0 16.5 -7t4.5 -18l-19 -155q-4 -25 -27 -25h-763zM248 -367q-14 0 -18.5 7.5t3.5 21.5l142 211q10 16 31 16h167q15 0 18.5 -9t-5.5 -21l-166 -209
q-14 -17 -31 -17h-141z" />
    <glyph glyph-name="uni013C" unicode="&#x13c;" horiz-adv-x="440" 
d="M90 0q-22 0 -22 25l170 1384q2 11 10 18t18 7h183q10 0 16 -7t4 -18l-170 -1384q-4 -25 -27 -25h-182zM-86 -367q-14 0 -18.5 7.5t4.5 21.5l141 211q10 16 31 16h170q13 0 16 -9t-6 -21l-166 -209q-10 -17 -31 -17h-141z" />
    <glyph glyph-name="Lcaron" unicode="&#x13d;" horiz-adv-x="978" 
d="M293 1536q-21 0 -27 16l-108 211q-6 12 -1 21.5t17 9.5h131q21 0 27 -16l67 -133q1 -6 5.5 -6t7.5 6l98 133q11 16 31 16h125q14 0 17.5 -9.5t-5.5 -21.5l-166 -211q-10 -16 -29 -16h-190zM111 0q-9 0 -15.5 7.5t-5.5 17.5l170 1384q4 25 27 25h184q9 0 15.5 -7.5
t5.5 -17.5l-148 -1194q0 -10 8 -10h547q10 0 16.5 -7t4.5 -18l-19 -155q-4 -25 -27 -25h-763z" />
    <glyph glyph-name="lcaron" unicode="&#x13e;" horiz-adv-x="438" 
d="M272 1536q-16 0 -26 16l-109 211q-6 12 0 21.5t19 9.5h131q18 0 24 -16l68 -133q3 -14 14 0l96 133q11 16 31 16h125q14 0 17.5 -9.5t-5.5 -21.5l-163 -211q-13 -16 -31 -16h-191zM90 0q-22 0 -22 25l170 1384q2 11 10 18t18 7h183q10 0 16 -7t4 -18l-170 -1384
q-4 -25 -27 -25h-182z" />
    <glyph glyph-name="Lslash" unicode="&#x141;" horiz-adv-x="978" 
d="M344 215q0 -10 8 -10h547q10 0 16.5 -7t4.5 -18l-19 -155q-4 -25 -27 -25h-763q-9 0 -15.5 7.5t-5.5 17.5l49 403q2 6 -2 8t-8 -2l-149 -112q-20 -16 -33 4l-72 102q-13 19 6 35l283 211q8 4 8 12l88 723q4 25 27 25h184q9 0 15.5 -7.5t5.5 -17.5l-66 -524q0 -15 12 -6
l357 266q19 16 32 -4l70 -103q12 -19 -6 -34l-490 -365q-6 -3 -6 -12z" />
    <glyph glyph-name="lslash" unicode="&#x142;" horiz-adv-x="438" 
d="M647 829q9 -17 -14 -32l-250 -133q-6 -4 -6 -13l-78 -626q-4 -25 -27 -25h-182q-22 0 -22 25l61 487q0 14 -12 8l-92 -51q-24 -12 -33 10l-43 111q-7 20 12 33l186 100q9 5 9 12l82 674q2 11 10 18t18 7h183q10 0 16 -7t4 -18l-66 -532q0 -6 3.5 -9t7.5 0l153 84
q21 12 31 -8z" />
    <glyph glyph-name="Nacute" unicode="&#x143;" horiz-adv-x="1161" 
d="M635 1589q-14 0 -18.5 7.5t4.5 21.5l141 211q10 16 31 16h170q13 0 16 -9t-6 -21l-166 -209q-10 -17 -31 -17h-141zM111 0q-9 0 -15.5 7.5t-5.5 17.5l170 1384q4 25 27 25h184q19 0 25 -19l325 -891q1 -5 4 -6.5t5.5 1t3.5 7.5l108 883q4 25 27 25h180q10 0 16 -7t4 -18
l-170 -1384q0 -10 -7.5 -17.5t-18.5 -7.5h-182q-19 0 -25 18l-328 895q-1 5 -3.5 6.5t-5 -1t-3.5 -7.5l-107 -886q-1 -10 -9 -17.5t-17 -7.5h-182z" />
    <glyph glyph-name="nacute" unicode="&#x144;" horiz-adv-x="974" 
d="M829 1438q15 0 18.5 -9.5t-5.5 -21.5l-166 -209q-13 -16 -31 -16h-143q-13 0 -18 7t3 21l142 211q14 17 33 17h167zM659 1063q145 0 215 -94t50 -260l-84 -684q-4 -25 -27 -25h-184q-9 0 -15.5 7.5t-5.5 17.5l80 651q11 84 -24 133t-105 49q-63 0 -110 -40.5t-64 -110.5
l-84 -682q-4 -25 -27 -25h-182q-22 0 -22 25l123 997q1 10 9 17.5t17 7.5h184q9 0 15.5 -7.5t5.5 -17.5l-6 -53q-2 -6 2 -8t8 4q92 98 231 98z" />
    <glyph glyph-name="uni0145" unicode="&#x145;" horiz-adv-x="1161" 
d="M111 0q-9 0 -15.5 7.5t-5.5 17.5l170 1384q4 25 27 25h184q19 0 25 -19l325 -891q1 -5 4 -6.5t5.5 1t3.5 7.5l108 883q4 25 27 25h180q10 0 16 -7t4 -18l-170 -1384q0 -10 -7.5 -17.5t-18.5 -7.5h-182q-19 0 -25 18l-328 895q-1 5 -3.5 6.5t-5 -1t-3.5 -7.5l-107 -886
q-1 -10 -9 -17.5t-17 -7.5h-182zM371 -367q-14 0 -18.5 7.5t3.5 21.5l142 211q10 16 30 16h170q13 0 17 -9t-4 -21l-168 -209q-10 -17 -29 -17h-143z" />
    <glyph glyph-name="uni0146" unicode="&#x146;" horiz-adv-x="974" 
d="M659 1063q145 0 215 -94t50 -260l-84 -684q-4 -25 -27 -25h-184q-9 0 -15.5 7.5t-5.5 17.5l80 651q11 84 -24 133t-105 49q-63 0 -110 -40.5t-64 -110.5l-84 -682q-4 -25 -27 -25h-182q-22 0 -22 25l123 997q1 10 9 17.5t17 7.5h184q9 0 15.5 -7.5t5.5 -17.5l-6 -53
q-2 -6 2 -8t8 4q92 98 231 98zM264 -367q-13 0 -17.5 7.5t3.5 21.5l141 211q13 16 33 16h168q15 0 18 -9t-6 -21l-166 -209q-14 -17 -30 -17h-144z" />
    <glyph glyph-name="Ncaron" unicode="&#x147;" horiz-adv-x="1161" 
d="M629 1569q-19 0 -25 16l-108 211q-6 12 -1.5 21.5t17.5 9.5h131q17 0 27 -17l67 -133q1 -6 5.5 -6t7.5 6l98 133q11 17 31 17h125q12 0 16.5 -9.5t-4.5 -21.5l-166 -211q-10 -16 -29 -16h-192zM111 0q-9 0 -15.5 7.5t-5.5 17.5l170 1384q4 25 27 25h184q19 0 25 -19
l325 -891q1 -5 4 -6.5t5.5 1t3.5 7.5l108 883q4 25 27 25h180q10 0 16 -7t4 -18l-170 -1384q0 -10 -7.5 -17.5t-18.5 -7.5h-182q-19 0 -25 18l-328 895q-1 5 -3.5 6.5t-5 -1t-3.5 -7.5l-107 -886q-1 -10 -9 -17.5t-17 -7.5h-182z" />
    <glyph glyph-name="ncaron" unicode="&#x148;" horiz-adv-x="974" 
d="M719 1178q-14 -17 -31 -17h-190q-18 0 -25 17l-111 211q-6 12 -0.5 21t19.5 9h131q17 0 27 -16l65 -133q7 -14 14 0l99 133q11 16 28 16h127q12 0 16 -9t-5 -21zM659 1063q145 0 215 -94t50 -260l-84 -684q-4 -25 -27 -25h-184q-9 0 -15.5 7.5t-5.5 17.5l80 651
q11 84 -24 133t-105 49q-63 0 -110 -40.5t-64 -110.5l-84 -682q-4 -25 -27 -25h-182q-22 0 -22 25l123 997q1 10 9 17.5t17 7.5h184q9 0 15.5 -7.5t5.5 -17.5l-6 -53q-2 -6 2 -8t8 4q92 98 231 98z" />
    <glyph glyph-name="Eng" unicode="&#x14a;" horiz-adv-x="1167" 
d="M1112 940q0 -2 4 -10q0 -13 -2 -21l-106 -880q-11 -87 -26 -144t-45 -107.5t-77 -78.5t-119 -44t-174 -15q-23 0 -20 24l16 154q3 24 29 24q91 0 125 39t45 133q3 6 0 13l-324 886q-1 5 -3.5 6.5t-5 -1t-3.5 -7.5l-107 -886q-1 -10 -9 -17.5t-17 -7.5h-182
q-9 0 -15.5 7.5t-5.5 17.5l170 1384q4 25 27 25h184q19 0 25 -19l319 -874q1 -5 3.5 -6.5t5 1t3.5 7.5l45 366q4 25 7 25q6 0 6 10l57 465q4 25 27 25h180q10 0 16 -7t4 -18z" />
    <glyph glyph-name="eng" unicode="&#x14b;" horiz-adv-x="976" 
d="M893 465l2 -10h2l-55 -443q-7 -56 -15 -96.5t-22.5 -83.5t-35 -72t-52 -55.5t-73 -42.5t-98 -24.5t-128.5 -8.5q-25 0 -21 25l17 145q4 25 28 25q79 4 116 45t50 121v10h-2l82 676q11 84 -24 133t-105 49q-63 0 -110 -40.5t-64 -110.5l-84 -682q-4 -25 -27 -25h-182
q-22 0 -22 25l123 997q1 10 9 17.5t17 7.5h184q9 0 15.5 -7.5t5.5 -17.5l-6 -53q-2 -6 2 -8t8 4q88 98 231 98q145 0 215 -94t50 -260z" />
    <glyph glyph-name="Omacron" unicode="&#x14c;" horiz-adv-x="1081" 
d="M469 1597q-10 0 -16.5 7t-6.5 18l15 115q1 10 9 17t17 7h449q23 0 20 -24l-14 -115q-4 -25 -27 -25h-446zM496 -18q-198 0 -304 122.5t-81 323.5l69 578q25 199 161.5 321.5t334.5 122.5q201 0 308.5 -122t82.5 -322l-72 -578q-25 -201 -161.5 -323.5t-337.5 -122.5z
M522 186q96 0 163 64.5t79 167.5l74 594q12 105 -39.5 169t-147.5 64q-95 0 -160 -64t-79 -169l-72 -594q-14 -103 36.5 -167.5t145.5 -64.5z" />
    <glyph glyph-name="omacron" unicode="&#x14d;" horiz-adv-x="983" 
d="M373 1214q-9 0 -15.5 7.5t-5.5 17.5l15 115q3 24 26 24h447q11 0 17 -7t5 -17l-14 -115q-1 -10 -9.5 -17.5t-17.5 -7.5h-448zM451 -16q-161 0 -254.5 85.5t-98.5 235.5q-3 82 13 219q13 119 43 221q40 146 155 232t277 86q157 0 249 -85.5t97 -229.5q6 -97 -8 -222
q-17 -118 -45 -221q-41 -150 -155 -235.5t-273 -85.5zM475 188q64 0 113 41.5t69 112.5q19 74 33 182q14 118 12 181q-1 70 -40.5 111.5t-104.5 41.5q-66 0 -115 -41t-69 -112q-24 -105 -33 -181q-8 -59 -12 -182q3 -71 42 -112.5t105 -41.5z" />
    <glyph glyph-name="Ohungarumlaut" unicode="&#x150;" horiz-adv-x="1081" 
d="M471 1573q-30 0 -14 29l125 208q13 19 30 19h152q13 0 16.5 -8.5t-2.5 -20.5l-133 -209q-12 -18 -33 -18h-141zM786 1573q-12 0 -15.5 8.5t3.5 20.5l133 208q13 19 33 19h143q12 0 16 -8.5t-3 -20.5l-133 -209q-12 -18 -33 -18h-144zM496 -18q-198 0 -304 122.5
t-81 323.5l69 578q25 199 161.5 321.5t334.5 122.5q201 0 308.5 -122t82.5 -322l-72 -578q-25 -201 -161.5 -323.5t-337.5 -122.5zM522 186q96 0 163 64.5t79 167.5l74 594q12 105 -39.5 169t-147.5 64q-95 0 -160 -64t-79 -169l-72 -594q-14 -103 36.5 -167.5t145.5 -64.5z
" />
    <glyph glyph-name="ohungarumlaut" unicode="&#x151;" horiz-adv-x="983" 
d="M377 1190q-14 0 -18 8t3 21l125 208q13 19 31 19h152q13 0 16.5 -8.5t-4.5 -20.5l-133 -209q-9 -18 -31 -18h-141zM692 1190q-13 0 -16.5 8.5t4.5 20.5l133 208q13 19 33 19h141q13 0 16.5 -8.5t-4.5 -20.5l-131 -209q-12 -18 -32 -18h-144zM451 -16q-161 0 -254.5 85.5
t-98.5 235.5q-3 82 13 219q13 119 43 221q40 146 155 232t277 86q157 0 249 -85.5t97 -229.5q6 -97 -8 -222q-17 -118 -45 -221q-41 -150 -155 -235.5t-273 -85.5zM475 188q64 0 113 41.5t69 112.5q19 74 33 182q14 118 12 181q-1 70 -40.5 111.5t-104.5 41.5
q-66 0 -115 -41t-69 -112q-24 -105 -33 -181q-8 -59 -12 -182q3 -71 42 -112.5t105 -41.5z" />
    <glyph glyph-name="OE" unicode="&#x152;" horiz-adv-x="1605" 
d="M1645 1253q-1 -10 -9.5 -17t-17.5 -7h-528q-13 0 -13 -10l-47 -385q0 -11 8 -11h330q11 0 16.5 -7t4.5 -17l-19 -156q-4 -25 -27 -25h-329q-10 0 -13 -10l-47 -393q0 -10 9 -10h528q10 0 16 -7t4 -18l-18 -155q-4 -25 -27 -25h-745q-10 0 -16.5 7t-4.5 18l7 43
q0 6 -4.5 7.5t-8.5 -1.5q-115 -92 -262 -92q-158 0 -252 122.5t-71 315.5l73 594q24 192 148 314t282 122q148 0 240 -92q4 -3 8 -1.5t4 7.5l6 45q4 25 27 25h745q10 0 16.5 -7t4.5 -18zM514 186q92 0 157 62.5t77 161.5l75 610q11 99 -38.5 162t-141.5 63q-90 0 -153.5 -63
t-75.5 -162l-76 -610q-12 -99 37 -161.5t139 -62.5z" />
    <glyph glyph-name="oe" unicode="&#x153;" horiz-adv-x="1536" 
d="M1067 186q51 0 98.5 31t77.5 80q10 24 31 14l137 -51q19 -10 10 -31q-52 -117 -152.5 -181t-240.5 -64q-181 0 -274 141q-3 10 -13 0q-128 -141 -303 -141q-155 0 -247 85t-95 230q-5 76 15 225q18 148 41 226q39 142 151.5 227.5t267.5 85.5q176 0 267 -143q9 -6 14 2
q128 141 299 141q158 0 251.5 -87t96.5 -228q-3 -104 -20 -279q-1 -11 -9 -18t-18 -7h-526q-13 0 -13 -10q-6 -52 -6 -96q0 -70 43 -111t117 -41zM639 338q19 81 31 186q14 104 14 185q0 68 -37 108.5t-100 40.5q-64 0 -111 -41t-65 -108q-19 -81 -31 -185
q-12 -108 -12 -186q0 -67 36.5 -108.5t100.5 -41.5q62 0 109 41.5t65 108.5zM1128 858q-65 0 -111.5 -41t-64.5 -108q-11 -55 -16 -93q0 -10 8 -10h311q11 0 11 10q4 66 4 93q-2 67 -39.5 108t-102.5 41z" />
    <glyph glyph-name="Racute" unicode="&#x154;" horiz-adv-x="1067" 
d="M897 1821q15 0 18 -9.5t-6 -21.5l-166 -209q-13 -16 -30 -16h-144q-14 0 -18 7.5t4 20.5l141 211q14 17 33 17h168zM752 0q-20 0 -27 20l-143 590q-4 8 -9 8h-170q-10 0 -10 -10l-71 -583q-1 -10 -9.5 -17.5t-17.5 -7.5h-184q-9 0 -15.5 7.5t-5.5 17.5l170 1386
q1 10 9.5 17.5t17.5 7.5h458q173 0 264.5 -115.5t69.5 -302.5q-17 -135 -88 -232t-180 -139q-11 -4 -8 -14l160 -604q3 -12 -2.5 -20.5t-18.5 -8.5h-190zM479 1231q-9 0 -12 -10l-49 -408q0 -10 8 -10h209q84 0 142.5 57.5t70.5 153.5q12 99 -32 158t-128 59h-209z" />
    <glyph glyph-name="racute" unicode="&#x155;" horiz-adv-x="686" 
d="M727 1444q15 0 18 -9.5t-6 -21.5l-166 -209q-13 -16 -30 -16h-144q-13 0 -17.5 8t3.5 21l141 210q14 17 33 17h168zM643 1059q53 0 94 -25q12 -7 8 -30l-57 -187q-6 -24 -29 -14q-54 16 -102 6q-70 -8 -122 -64t-62 -141l-72 -579q-4 -25 -27 -25h-182q-22 0 -22 25
l123 997q1 10 9 17.5t17 7.5h184q9 0 15.5 -7.5t5.5 -17.5l-12 -94q0 -17 10 -4q86 135 221 135z" />
    <glyph glyph-name="uni0156" unicode="&#x156;" horiz-adv-x="1067" 
d="M811 647q-11 -4 -8 -14l160 -604q3 -12 -2.5 -20.5t-18.5 -8.5h-190q-20 0 -27 20l-143 590q-4 8 -9 8h-170q-10 0 -10 -10l-71 -583q-1 -10 -9.5 -17.5t-17.5 -7.5h-184q-9 0 -15.5 7.5t-5.5 17.5l170 1386q1 10 9.5 17.5t17.5 7.5h458q173 0 264.5 -115.5t69.5 -302.5
q-17 -135 -88 -232t-180 -139zM479 1231q-9 0 -12 -10l-49 -408q0 -10 8 -10h209q84 0 142.5 57.5t70.5 153.5q12 99 -32 158t-128 59h-209zM307 -367q-14 0 -18.5 7.5t4.5 21.5l141 211q10 16 31 16h170q13 0 16.5 -9t-4.5 -21l-168 -209q-10 -17 -28 -17h-144z" />
    <glyph glyph-name="uni0157" unicode="&#x157;" horiz-adv-x="688" 
d="M643 1059q53 0 94 -25q12 -7 8 -30l-57 -187q-6 -24 -29 -14q-54 16 -102 6q-70 -8 -122 -64t-62 -141l-72 -579q-4 -25 -27 -25h-182q-22 0 -22 25l123 997q1 10 9 17.5t17 7.5h184q9 0 15.5 -7.5t5.5 -17.5l-12 -94q0 -17 10 -4q86 135 221 135zM-88 -367
q-14 0 -18.5 7.5t4.5 21.5l141 211q10 16 31 16h170q13 0 16 -9t-6 -21l-166 -209q-10 -17 -29 -17h-143z" />
    <glyph glyph-name="Rcaron" unicode="&#x158;" horiz-adv-x="1067" 
d="M786 1561q-14 -17 -30 -17h-191q-16 0 -26 17l-109 211q-6 12 -0.5 21t19.5 9h131q18 0 24 -16l68 -133q4 -14 14 0l98 133q8 16 29 16h125q14 0 17.5 -9t-5.5 -21zM752 0q-20 0 -27 20l-143 590q-4 8 -9 8h-170q-10 0 -10 -10l-71 -583q-1 -10 -9.5 -17.5t-17.5 -7.5
h-184q-9 0 -15.5 7.5t-5.5 17.5l170 1386q1 10 9.5 17.5t17.5 7.5h458q173 0 264.5 -115.5t69.5 -302.5q-17 -135 -88 -232t-180 -139q-11 -4 -8 -14l160 -604q3 -12 -2.5 -20.5t-18.5 -8.5h-190zM479 1231q-9 0 -12 -10l-49 -408q0 -10 8 -10h209q84 0 142.5 57.5
t70.5 153.5q12 99 -32 158t-128 59h-209z" />
    <glyph glyph-name="rcaron" unicode="&#x159;" horiz-adv-x="686" 
d="M616 1184q-14 -17 -30 -17h-191q-17 0 -24 17l-111 211q-6 12 -0.5 21t19.5 9h131q16 0 26 -16l66 -133q7 -14 14 0l98 133q8 16 29 16h125q14 0 17.5 -9t-5.5 -21zM412 928q0 -8 3 -8.5t7 6.5q87 133 221 133q53 0 94 -25q12 -7 8 -30l-57 -187q-6 -24 -29 -14
q-54 16 -102 6q-70 -8 -122 -64t-62 -141l-72 -579q-4 -25 -27 -25h-182q-22 0 -22 25l123 997q1 10 9 17.5t17 7.5h184q9 0 15.5 -7.5t5.5 -17.5z" />
    <glyph glyph-name="Sacute" unicode="&#x15a;" horiz-adv-x="1024" 
d="M563 1581q-14 0 -18.5 7.5t4.5 21.5l141 211q13 16 33 16h168q15 0 18 -9.5t-6 -21.5l-166 -209q-13 -16 -30 -16h-144zM477 -16q-197 0 -303 107t-84 284l6 53q4 25 27 25h178q10 0 16.5 -7t6.5 -18l-7 -41q-11 -87 42.5 -143t152.5 -56q91 0 148.5 50t66.5 129
q4 34 -4.5 63t-22.5 50t-50 48t-65.5 45.5t-90.5 53.5q-84 48 -128.5 78.5t-100.5 85t-75.5 123t-9.5 155.5q23 177 149 279t312 102q197 0 303.5 -111t83.5 -292l-4 -43q-1 -10 -9.5 -17.5t-19.5 -7.5h-180q-10 0 -16 7t-4 18l4 38q11 89 -38.5 146t-148.5 57
q-86 0 -140 -45.5t-64 -128.5q-5 -42 4 -73.5t41 -62t71.5 -56t114.5 -66.5q139 -89 178 -120q115 -92 137 -201q10 -53 2 -115q-22 -179 -152.5 -286t-326.5 -107z" />
    <glyph glyph-name="sacute" unicode="&#x15b;" horiz-adv-x="886" 
d="M455 1190q-14 0 -18.5 8t3.5 21l142 211q10 16 30 16h170q13 0 16.5 -9.5t-5.5 -21.5l-166 -209q-10 -16 -29 -16h-143zM412 -12q-172 0 -265.5 79.5t-78.5 208.5l2 17q3 24 26 24h174q9 0 15.5 -4t5.5 -10l-2 -16q-6 -50 35 -85.5t110 -35.5q65 0 108.5 32.5t49.5 82.5
q3 21 -4 38.5t-17.5 29t-34.5 24.5t-40.5 19.5t-51 19.5t-51.5 20q-47 16 -80 31t-73.5 42t-64 58.5t-36.5 80t-6 106.5q18 144 128 226.5t274 82.5q168 0 258 -85.5t73 -225.5v-3q-3 -24 -26 -24h-168q-10 0 -16 4.5t-5 11.5l2 17q6 51 -32 84.5t-107 33.5q-65 0 -109 -32
t-49 -80q-3 -28 6.5 -49t40.5 -39.5t52 -27t72 -26.5l7.5 -3t7 -2.5l7.5 -2.5q52 -19 84.5 -33t77 -42t68.5 -58.5t38.5 -79t7.5 -106.5q-19 -140 -130.5 -221.5t-282.5 -81.5z" />
    <glyph glyph-name="Scedilla" unicode="&#x15e;" horiz-adv-x="1024" 
d="M956 377q-20 -156 -123.5 -259t-263.5 -128q-13 -3 -6 -13q90 -109 47 -231q-18 -51 -54 -82t-77.5 -38.5t-79 -5.5t-69.5 13q-18 9 -15 31l21 76q5 24 31 18q35 -8 63 5t39 49q25 76 -66 174q-8 4 -12 4q-158 23 -239.5 126t-61.5 259l6 53q4 25 27 25h178q10 0 16.5 -7
t6.5 -18l-7 -41q-11 -87 42.5 -143t152.5 -56q91 0 148.5 50t66.5 129q4 34 -4.5 63t-22.5 50t-50 48t-65.5 45.5t-90.5 53.5q-84 48 -128.5 78.5t-100.5 85t-75.5 123t-9.5 155.5q23 177 149 279t312 102q197 0 303.5 -111t83.5 -292l-4 -43q-1 -10 -9.5 -17.5t-19.5 -7.5
h-180q-10 0 -16 7t-4 18l4 38q11 89 -38.5 146t-148.5 57q-86 0 -140 -45.5t-64 -128.5q-5 -42 4 -73.5t41 -62t71.5 -56t114.5 -66.5q139 -89 178 -120q115 -92 137 -201q10 -53 2 -115z" />
    <glyph glyph-name="scedilla" unicode="&#x15f;" horiz-adv-x="886" 
d="M825 291q-15 -120 -99.5 -197.5t-217.5 -99.5q-15 -3 -6 -12q91 -109 47 -232q-17 -51 -53 -82t-78 -38.5t-79.5 -5t-68.5 13.5q-19 8 -14 30l18 76q5 24 31 18q36 -8 64.5 5t38.5 49q25 77 -66 172q-8 4 -12 4q-136 19 -206 95t-56 189l2 17q3 24 26 24h174q9 0 15.5 -4
t5.5 -10l-2 -16q-6 -50 35 -85.5t110 -35.5q65 0 108.5 32.5t49.5 82.5q3 21 -4 38.5t-17.5 29t-34.5 24.5t-40.5 19.5t-51 19.5t-51.5 20q-47 16 -80 31t-73.5 42t-64 58.5t-36.5 80t-6 106.5q18 144 128 226.5t274 82.5q168 0 258 -85.5t73 -225.5v-3q-3 -24 -26 -24h-168
q-10 0 -16 4.5t-5 11.5l2 17q6 51 -32 84.5t-107 33.5q-65 0 -109 -32t-49 -80q-3 -28 6.5 -49t40.5 -39.5t52 -27t72 -26.5l7.5 -3t7 -2.5l7.5 -2.5q52 -19 84.5 -33t77 -42t68.5 -58.5t38.5 -79t7.5 -106.5z" />
    <glyph glyph-name="Scaron" unicode="&#x160;" horiz-adv-x="1024" 
d="M559 1561q-17 0 -27 16l-108 211q-6 12 -0.5 21.5t18.5 9.5h131q18 0 25 -17l68 -133q6 -11 14 0l98 133q8 17 29 17h125q14 0 17.5 -9.5t-5.5 -21.5l-164 -211q-13 -16 -30 -16h-191zM477 -16q-197 0 -303 107t-84 284l6 53q4 25 27 25h178q10 0 16.5 -7t6.5 -18l-7 -41
q-11 -87 42.5 -143t152.5 -56q91 0 148.5 50t66.5 129q4 34 -4.5 63t-22.5 50t-50 48t-65.5 45.5t-90.5 53.5q-84 48 -128.5 78.5t-100.5 85t-75.5 123t-9.5 155.5q23 177 149 279t312 102q197 0 303.5 -111t83.5 -292l-4 -43q-1 -10 -9.5 -17.5t-19.5 -7.5h-180
q-10 0 -16 7t-4 18l4 38q11 89 -38.5 146t-148.5 57q-86 0 -140 -45.5t-64 -128.5q-5 -42 4 -73.5t41 -62t71.5 -56t114.5 -66.5q139 -89 178 -120q115 -92 137 -201q10 -53 2 -115q-22 -179 -152.5 -286t-326.5 -107z" />
    <glyph glyph-name="scaron" unicode="&#x161;" horiz-adv-x="886" 
d="M449 1169q-18 0 -25 17l-109 211q-6 12 -1 21t18 9h131q20 0 26 -16l68 -133q1 -6 5 -6t7 6l99 133q11 16 30 16h125q14 0 18 -9t-5 -21l-166 -211q-10 -17 -29 -17h-192zM412 -12q-172 0 -265.5 79.5t-78.5 208.5l2 17q3 24 26 24h174q9 0 15.5 -4t5.5 -10l-2 -16
q-6 -50 35 -85.5t110 -35.5q65 0 108.5 32.5t49.5 82.5q3 21 -4 38.5t-17.5 29t-34.5 24.5t-40.5 19.5t-51 19.5t-51.5 20q-47 16 -80 31t-73.5 42t-64 58.5t-36.5 80t-6 106.5q18 144 128 226.5t274 82.5q168 0 258 -85.5t73 -225.5v-3q-3 -24 -26 -24h-168q-10 0 -16 4.5
t-5 11.5l2 17q6 51 -32 84.5t-107 33.5q-65 0 -109 -32t-49 -80q-3 -28 6.5 -49t40.5 -39.5t52 -27t72 -26.5l7.5 -3t7 -2.5l7.5 -2.5q52 -19 84.5 -33t77 -42t68.5 -58.5t38.5 -79t7.5 -106.5q-19 -140 -130.5 -221.5t-282.5 -81.5z" />
    <glyph glyph-name="uni0162" unicode="&#x162;" horiz-adv-x="1026" 
d="M743 1227q-9 0 -12 -10l-145 -1192q-4 -25 -21 -25q-5 0 -7.5 -4t1.5 -8q89 -108 45 -228q-18 -51 -54 -82t-77.5 -38.5t-79 -5t-69.5 13.5q-20 10 -15 30l21 76q6 25 30 19q35 -8 63.5 4.5t39.5 48.5q25 74 -64 170q-8 4 -14 4h-10q-9 0 -15.5 7.5t-5.5 17.5l148 1192
q0 10 -10 10h-295q-11 0 -16.5 7t-4.5 17l19 158q4 25 26 25h854q10 0 16.5 -7t6.5 -18l-21 -158q-3 -24 -26 -24h-308z" />
    <glyph glyph-name="uni0163" unicode="&#x163;" horiz-adv-x="651" 
d="M483 1057q0 -10 9 -10h161q10 0 16.5 -7t4.5 -18l-17 -131q-4 -25 -26 -25h-162q-10 0 -10 -10l-64 -512q-9 -75 16 -106t87 -31h37q10 0 16 -7t4 -18l-18 -153q-1 -10 -9 -17.5t-18 -9.5h-84q-72 0 -120.5 10.5t-86.5 37t-52 78t-5 128.5l74 600q3 10 -9 10h-92
q-9 0 -15 7.5t-5 17.5l16 131q1 10 9.5 17.5t17.5 7.5h92q10 0 10 10l29 233q1 10 9 17.5t17 7.5h177q10 0 16 -7t4 -18zM408 -16q16 0 26 -13q114 -114 66 -250q-17 -51 -53 -82t-78 -38.5t-80 -5t-70 13.5q-18 9 -12 31l18 75q6 25 31 19q35 -8 63 4.5t39 48.5
q26 77 -59 166q-12 12 -8.5 21.5t18.5 9.5h99z" />
    <glyph glyph-name="Tcaron" unicode="&#x164;" horiz-adv-x="1026" 
d="M780 1552q-10 -16 -28 -16h-193q-18 0 -24 16l-109 211q-6 12 -1.5 21.5t17.5 9.5h131q21 0 27 -16l68 -133q2 -6 5.5 -6t6.5 6l98 133q11 16 31 16h125q14 0 17.5 -9.5t-5.5 -21.5zM1075 1434q10 0 16.5 -7t6.5 -18l-21 -158q-3 -24 -26 -24h-308q-9 0 -12 -10
l-145 -1192q-1 -10 -9.5 -17.5t-17.5 -7.5h-184q-9 0 -15.5 7.5t-5.5 17.5l148 1192q0 10 -10 10h-295q-11 0 -16.5 7t-4.5 17l19 158q4 25 26 25h854z" />
    <glyph glyph-name="tcaron" unicode="&#x165;" horiz-adv-x="651" 
d="M543 1434q-10 -17 -29 -17h-190q-20 0 -27 17l-109 211q-6 12 -0.5 21t17.5 9h131q20 0 26 -16l68 -133q4 -14 14 0l97 133q11 16 30 16h125q14 0 18 -9t-5 -21zM657 891q-4 -25 -26 -25h-162q-10 0 -10 -10l-64 -512q-9 -75 16 -106t87 -31h37q10 0 16 -7t4 -18
l-18 -153q-1 -10 -9 -17.5t-18 -9.5h-84q-72 0 -120.5 10.5t-86.5 37t-52 78t-5 128.5l74 600q3 10 -9 10h-92q-9 0 -15 7.5t-5 17.5l16 131q1 10 9.5 17.5t17.5 7.5h92q10 0 10 10l29 233q1 10 9 17.5t17 7.5h177q10 0 16 -7t4 -18l-29 -233q0 -10 9 -10h161q10 0 16.5 -7
t4.5 -18z" />
    <glyph glyph-name="Tbar" unicode="&#x166;" horiz-adv-x="1191" 
d="M1077 1251q-3 -24 -26 -24h-308q-9 0 -12 -10l-43 -361q-3 -10 8 -10h162q10 0 16.5 -7t4.5 -18l-11 -98q-2 -11 -10 -18t-18 -7h-162q-9 0 -12 -10l-80 -663q-1 -10 -9.5 -17.5t-17.5 -7.5h-184q-9 0 -15.5 7.5t-5.5 17.5l82 663q0 10 -8 10h-166q-10 0 -16 7t-4 18
l12 98q4 25 27 25h165q11 0 11 10l45 361q0 10 -10 10h-295q-11 0 -16.5 7t-4.5 17l19 158q4 25 26 25h854q10 0 16.5 -7t6.5 -18z" />
    <glyph glyph-name="tbar" unicode="&#x167;" horiz-adv-x="1191" 
d="M647 768q-1 -10 -9 -17.5t-17 -7.5h-166q-11 0 -11 -10l-49 -389q-9 -75 16 -106t87 -31h37q10 0 16 -7t4 -18l-18 -153q-1 -10 -9 -17.5t-18 -9.5h-84q-72 0 -120.5 10.5t-86.5 37t-52 78t-5 128.5l59 477q0 10 -8 10h-90q-10 0 -16.5 7t-4.5 18l11 92l2 6h-2l18 156
q1 10 9.5 17.5t17.5 7.5h92q10 0 10 10l29 233q1 10 9 17.5t17 7.5h177q10 0 16 -7t4 -18l-29 -233q0 -10 9 -10h161q10 0 16.5 -7t4.5 -18l-15 -121v-10h3z" />
    <glyph glyph-name="Umacron" unicode="&#x16a;" horiz-adv-x="1105" 
d="M483 1610q-23 0 -20 24l14 115q4 25 27 25h446q10 0 16.5 -7t4.5 -18l-13 -115q-1 -10 -9 -17t-19 -7h-447zM510 -16q-196 0 -301 122.5t-80 323.5l119 979q1 10 9 17.5t17 7.5h185q9 0 15 -7.5t5 -17.5l-123 -991q-12 -103 37.5 -166.5t143.5 -63.5t158.5 63.5
t76.5 166.5l123 991q0 10 8 17.5t19 7.5h182q10 0 16 -7t4 -18l-120 -979q-25 -201 -160.5 -323.5t-333.5 -122.5z" />
    <glyph glyph-name="umacron" unicode="&#x16b;" horiz-adv-x="970" 
d="M829 1362q9 0 15.5 -7.5t5.5 -17.5l-14 -114q-4 -25 -27 -25h-447q-22 0 -22 25l14 114q1 10 9.5 17.5t17.5 7.5h448zM721 1022q1 10 9.5 17.5t17.5 7.5h184q9 0 15 -7.5t5 -17.5l-123 -997q-4 -25 -26 -25h-182q-10 0 -16.5 7t-6.5 18l8 55q0 6 -4 7t-8 -5
q-78 -96 -223 -96q-65 0 -119 19.5t-93 58t-56.5 102t-6.5 145.5l86 711q1 10 9.5 17.5t19.5 7.5h182q10 0 16.5 -7t4.5 -18l-80 -651q-11 -87 22.5 -135t106.5 -48q72 0 120.5 51t57.5 136z" />
    <glyph glyph-name="Uring" unicode="&#x16e;" horiz-adv-x="1105" 
d="M705 1567q-90 0 -144.5 65t-42.5 158q10 92 81 155.5t161 63.5q91 0 145.5 -63.5t42.5 -155.5q-10 -94 -81 -158.5t-162 -64.5zM719 1679q44 0 78.5 32.5t40.5 78.5q6 45 -21 76.5t-72 31.5q-43 0 -77.5 -31.5t-40.5 -76.5t21.5 -78t70.5 -33zM510 -16q-196 0 -301 122.5
t-80 323.5l119 979q1 10 9 17.5t17 7.5h185q9 0 15 -7.5t5 -17.5l-123 -991q-12 -103 37.5 -166.5t143.5 -63.5t158.5 63.5t76.5 166.5l123 991q0 10 8 17.5t19 7.5h182q10 0 16 -7t4 -18l-120 -979q-25 -201 -160.5 -323.5t-333.5 -122.5z" />
    <glyph glyph-name="uring" unicode="&#x16f;" horiz-adv-x="970" 
d="M584 1155q-91 0 -145.5 64.5t-43.5 158.5q12 92 82.5 155.5t159.5 63.5q91 0 146 -63.5t44 -155.5q-12 -94 -82 -158.5t-161 -64.5zM623 1487q-43 0 -78 -32t-39 -77q-6 -46 20.5 -78t69.5 -32q44 0 79.5 32t39.5 78q6 46 -20.5 77.5t-71.5 31.5zM721 1022q1 10 9.5 17.5
t17.5 7.5h184q9 0 15 -7.5t5 -17.5l-123 -997q-4 -25 -26 -25h-182q-10 0 -16.5 7t-6.5 18l8 55q0 6 -4 7t-8 -5q-78 -96 -223 -96q-65 0 -119 19.5t-93 58t-56.5 102t-6.5 145.5l86 711q1 10 9.5 17.5t19.5 7.5h182q10 0 16.5 -7t4.5 -18l-80 -651q-11 -87 22.5 -135
t106.5 -48q72 0 120.5 51t57.5 136z" />
    <glyph glyph-name="Uhungarumlaut" unicode="&#x170;" horiz-adv-x="1105" 
d="M487 1585q-30 0 -14 29l125 209q9 18 29 18h153q13 0 17 -8.5t-4 -20.5l-134 -208q-9 -19 -32 -19h-140zM803 1585q-13 0 -16.5 8.5t4.5 20.5l133 209q9 18 30 18h144q13 0 16.5 -8.5t-4.5 -20.5l-133 -208q-9 -19 -31 -19h-143zM510 -16q-196 0 -301 122.5t-80 323.5
l119 979q1 10 9 17.5t17 7.5h185q9 0 15 -7.5t5 -17.5l-123 -991q-12 -103 37.5 -166.5t143.5 -63.5t158.5 63.5t76.5 166.5l123 991q0 10 8 17.5t19 7.5h182q10 0 16 -7t4 -18l-120 -979q-25 -201 -160.5 -323.5t-333.5 -122.5z" />
    <glyph glyph-name="uhungarumlaut" unicode="&#x171;" horiz-adv-x="970" 
d="M657 1430q13 0 17 -8.5t-4 -20.5l-131 -209q-12 -18 -33 -18h-141q-14 0 -18 7t3 21l125 209q13 19 31 19h151zM856 1192q-12 -18 -33 -18h-143q-12 0 -15.5 8t3.5 20l133 209q13 19 33 19h143q12 0 15.5 -8.5t-3.5 -20.5zM641 375l80 647q1 10 9.5 17.5t17.5 7.5h184
q9 0 15 -7.5t5 -17.5l-123 -997q-4 -25 -26 -25h-182q-10 0 -16.5 7t-6.5 18l8 55q0 6 -4 7t-8 -5q-78 -96 -223 -96q-65 0 -119 19.5t-93 58t-56.5 102t-6.5 145.5l86 711q1 10 9.5 17.5t19.5 7.5h182q10 0 16.5 -7t4.5 -18l-80 -651q-11 -87 22.5 -135t106.5 -48
q72 0 120.5 51t57.5 136z" />
    <glyph glyph-name="Uogonek" unicode="&#x172;" horiz-adv-x="1105" 
d="M895 1409q0 10 8 17.5t19 7.5h182q10 0 16 -7t4 -18l-120 -979q-22 -182 -136 -300.5t-286 -141.5q-7 0 -11 -4q-102 -92 -94 -160q3 -35 27.5 -48t60.5 -5q29 6 29 -19v-76q0 -21 -23 -30q-34 -11 -72 -13.5t-78 5t-68.5 38.5t-33.5 82q-13 114 95 222q12 9 -2 12
q-152 31 -228.5 148.5t-54.5 289.5l119 979q1 10 9 17.5t17 7.5h185q9 0 15 -7.5t5 -17.5l-123 -991q-12 -103 37.5 -166.5t143.5 -63.5t158.5 63.5t76.5 166.5z" />
    <glyph glyph-name="uogonek" unicode="&#x173;" horiz-adv-x="974" 
d="M776 -250q27 6 27 -18l2 -76q0 -21 -23 -31q-35 -11 -73 -13t-78 5.5t-68 38.5t-33 82q-16 132 125 250q6 4 5 8t-7 4h-32q-10 0 -16.5 7t-6.5 18l8 55q0 6 -4 7t-8 -5q-78 -96 -223 -96q-65 0 -119 19.5t-93 58t-56.5 102t-6.5 145.5l86 711q1 10 9.5 17.5t19.5 7.5h182
q10 0 16.5 -7t4.5 -18l-80 -651q-11 -87 22.5 -135t106.5 -48q72 0 120.5 51t57.5 136l80 647q1 10 9.5 17.5t17.5 7.5h184q9 0 15 -7.5t5 -17.5l-125 -1022q-4 -4 -14 -12q-133 -98 -127 -185q3 -35 28.5 -48t61.5 -5z" />
    <glyph glyph-name="Wcircumflex" unicode="&#x174;" horiz-adv-x="1521" 
d="M653 1556q-12 0 -15.5 9.5t3.5 21.5l168 211q10 17 29 17h190q18 0 25 -17l121 -211q7 -12 1 -21.5t-20 -9.5h-135q-21 0 -27 17l-65 131q-3 13 -13 0l-96 -131q-11 -17 -31 -17h-135zM346 0q-21 0 -24 20l-146 1387q-1 13 6.5 20t20.5 7h190q9 0 16 -6.5t7 -16.5
l73 -895q1 -4 3.5 -5.5t5.5 0.5t4 7l280 893q6 23 29 23h176q9 0 16 -6.5t7 -16.5l73 -895q0 -5 2.5 -7t5 0t3.5 7l284 895q7 23 29 23h186q11 0 17 -7t2 -20l-469 -1384q-7 -23 -29 -23h-176q-23 0 -23 23l-71 923q-2 6 -7 6t-6 -6l-286 -923q-6 -23 -29 -23h-170z" />
    <glyph glyph-name="wcircumflex" unicode="&#x175;" horiz-adv-x="1345" 
d="M514 1169q-12 0 -15.5 9.5t5.5 21.5l166 211q13 16 30 16h189q18 0 24 -16l123 -211q6 -12 0.5 -21.5t-20.5 -9.5h-135q-19 0 -27 17l-66 131q-3 13 -10 0l-98 -131q-11 -17 -31 -17h-135zM281 0q-24 0 -27 20l-123 1000q-1 13 6.5 20t18.5 7h180q9 0 15.5 -6.5
t6.5 -16.5l54 -678q1 -5 3 -6.5t4.5 0t4.5 6.5l225 678q1 10 9.5 16.5t17.5 6.5h162q22 0 22 -23l62 -678q1 -5 3.5 -7t5 0t3.5 7l225 678q7 23 29 23l178 -3q27 0 18 -26l-370 -998q-9 -20 -31 -20h-184q-20 0 -23 20l-65 615q-1 5 -4 7t-5.5 0t-3.5 -7l-209 -612
q-7 -23 -28 -23h-180z" />
    <glyph glyph-name="Ycircumflex" unicode="&#x176;" horiz-adv-x="1048" 
d="M424 1556q-14 0 -17.5 9.5t5.5 21.5l166 211q14 17 30 17h189q16 0 26 -17l121 -211q7 -12 1 -21.5t-21 -9.5h-136q-18 0 -24 17l-66 131q-6 12 -12 0l-98 -131q-8 -17 -29 -17h-135zM393 2q-10 0 -16 7t-4 18l67 553v12l-243 813q-3 12 2.5 20.5t17.5 8.5h195
q23 0 26 -19l146 -553q6 -15 12 0l281 553q9 19 30 19h197q13 0 16.5 -8.5t-2.5 -20.5l-446 -813q-2 -6 -2 -12l-68 -553q-1 -10 -9.5 -17.5t-19.5 -7.5h-180z" />
    <glyph glyph-name="ycircumflex" unicode="&#x177;" horiz-adv-x="886" 
d="M295 1178q-12 0 -15.5 9t3.5 21l168 211q10 17 28 17h191q17 0 24 -17l121 -211q7 -12 1.5 -21t-19.5 -9h-135q-22 0 -27 16l-66 131q-3 12 -12 0l-96 -131q-11 -16 -31 -16h-135zM2 -408q-10 0 -10 25l18 147q1 10 6.5 17.5t10.5 7.5h8q108 0 159.5 40.5t90.5 164.5
q5 4 2 12l-164 1012q-1 12 5 20.5t17 8.5h197q22 0 25 -21l73 -684q1 -5 3.5 -7t5.5 0t4 7l239 684q9 21 29 21h197q12 0 16.5 -8.5t-0.5 -20.5l-440 -1075q-37 -87 -67 -141t-68 -98.5t-85 -66.5t-109.5 -33.5t-150.5 -11.5h-12z" />
    <glyph glyph-name="Ydieresis" unicode="&#x178;" horiz-adv-x="1048" 
d="M512 1573q-52 0 -82 35.5t-24 91.5t45 91.5t94 35.5q54 0 82 -35t20 -92q-6 -56 -43.5 -91.5t-91.5 -35.5zM848 1573q-54 0 -83.5 35.5t-21.5 91.5q6 57 44 92t94 35q54 0 82.5 -35t21.5 -92q-6 -56 -44.5 -91.5t-92.5 -35.5zM393 2q-10 0 -16 7t-4 18l67 553v12
l-243 813q-3 12 2.5 20.5t17.5 8.5h195q23 0 26 -19l146 -553q6 -15 12 0l281 553q9 19 30 19h197q13 0 16.5 -8.5t-2.5 -20.5l-446 -813q-2 -6 -2 -12l-68 -553q-1 -10 -9.5 -17.5t-19.5 -7.5h-180z" />
    <glyph glyph-name="Zacute" unicode="&#x179;" horiz-adv-x="954" 
d="M530 1591q-13 0 -17.5 7.5t3.5 21.5l141 211q13 16 33 16h168q15 0 18 -9t-6 -21l-165 -209q-14 -17 -31 -17h-144zM45 0q-9 0 -15 7.5t-5 17.5l20 170q3 15 12 30l680 992q6 12 -6 12h-534q-11 0 -16.5 7t-4.5 17l19 156q4 25 26 25h774q9 0 15.5 -7.5t5.5 -17.5
l-21 -170q-3 -17 -12 -31l-680 -991q-9 -12 6 -12h535q10 0 16 -7t4 -18l-18 -155q-1 -10 -9.5 -17.5t-17.5 -7.5h-774z" />
    <glyph glyph-name="zacute" unicode="&#x17a;" horiz-adv-x="819" 
d="M418 1202q-14 0 -18.5 8t3.5 21l142 211q10 16 30 16h170q15 0 18.5 -9.5t-5.5 -21.5l-168 -208q-10 -17 -29 -17h-143zM35 0q-9 0 -15.5 7.5t-5.5 17.5l23 174q0 10 12 30l490 590q3 4 0 8t-9 4h-383q-10 0 -16 7t-4 18l20 166q4 25 27 25h647q10 0 16.5 -7t4.5 -18
l-21 -174q-3 -20 -14 -31l-498 -590q-3 -5 -1.5 -8.5t7.5 -3.5h412q10 0 16.5 -7t4.5 -18l-19 -165q-1 -10 -9.5 -17.5t-19.5 -7.5h-665z" />
    <glyph glyph-name="Zdotaccent" unicode="&#x17b;" horiz-adv-x="954" 
d="M627 1583q-51 0 -78 32t-21 85q6 52 41.5 85.5t85.5 33.5t76.5 -33t20.5 -86q-6 -52 -40.5 -84.5t-84.5 -32.5zM45 0q-9 0 -15 7.5t-5 17.5l20 170q3 15 12 30l680 992q6 12 -6 12h-534q-11 0 -16.5 7t-4.5 17l19 156q4 25 26 25h774q9 0 15.5 -7.5t5.5 -17.5l-21 -170
q-3 -17 -12 -31l-680 -991q-9 -12 6 -12h535q10 0 16 -7t4 -18l-18 -155q-1 -10 -9.5 -17.5t-17.5 -7.5h-774z" />
    <glyph glyph-name="zdotaccent" unicode="&#x17c;" horiz-adv-x="819" 
d="M514 1194q-51 0 -77.5 32t-20.5 85t41 86t86 33q49 0 75.5 -33t18.5 -86q-6 -53 -40 -85t-83 -32zM35 0q-9 0 -15.5 7.5t-5.5 17.5l23 174q0 10 12 30l490 590q3 4 0 8t-9 4h-383q-10 0 -16 7t-4 18l20 166q4 25 27 25h647q10 0 16.5 -7t4.5 -18l-21 -174q-3 -20 -14 -31
l-498 -590q-3 -5 -1.5 -8.5t7.5 -3.5h412q10 0 16.5 -7t4.5 -18l-19 -165q-1 -10 -9.5 -17.5t-19.5 -7.5h-665z" />
    <glyph glyph-name="Zcaron" unicode="&#x17d;" horiz-adv-x="954" 
d="M526 1571q-18 0 -24 16l-111 211q-6 12 0 21.5t19 9.5h131q17 0 24 -17l68 -133q7 -14 14 0l98 133q9 17 29 17h125q14 0 17.5 -9.5t-5.5 -21.5l-163 -211q-13 -16 -31 -16h-191zM45 0q-9 0 -15 7.5t-5 17.5l20 170q3 15 12 30l680 992q6 12 -6 12h-534q-11 0 -16.5 7
t-4.5 17l19 156q4 25 26 25h774q9 0 15.5 -7.5t5.5 -17.5l-21 -170q-3 -17 -12 -31l-680 -991q-9 -12 6 -12h535q10 0 16 -7t4 -18l-18 -155q-1 -10 -9.5 -17.5t-17.5 -7.5h-774z" />
    <glyph glyph-name="zcaron" unicode="&#x17e;" horiz-adv-x="819" 
d="M414 1182q-21 0 -27 16l-108 211q-6 12 -0.5 21.5t18.5 9.5h131q18 0 25 -17l67 -133q2 -6 6 -6t9 6l96 133q11 17 31 17h124q14 0 18 -9.5t-5 -21.5l-166 -211q-10 -16 -29 -16h-190zM35 0q-9 0 -15.5 7.5t-5.5 17.5l23 174q0 10 12 30l490 590q3 4 0 8t-9 4h-383
q-10 0 -16 7t-4 18l20 166q4 25 27 25h647q10 0 16.5 -7t4.5 -18l-21 -174q-3 -20 -14 -31l-498 -590q-3 -5 -1.5 -8.5t7.5 -3.5h412q10 0 16.5 -7t4.5 -18l-19 -165q-1 -10 -9.5 -17.5t-19.5 -7.5h-665z" />
    <glyph glyph-name="florin" unicode="&#x192;" horiz-adv-x="1017" 
d="M580 1114q37 135 92.5 206t149 99t251.5 21q11 -2 16.5 -9.5t4.5 -17.5l-21 -145q-4 -25 -26 -25h-68q-73 0 -112.5 -39t-65.5 -127l-60 -217q0 -10 7 -10h137q10 0 16 -7t4 -18l-16 -143q-1 -10 -9.5 -17.5t-17.5 -7.5h-168q-12 0 -12 -10l-207 -737
q-54 -199 -157 -267.5t-334 -58.5q-24 3 -21 27l19 145q1 10 9 17.5t17 7.5h68q72 0 112.5 39t65.5 127l195 700q3 10 -7 10h-114q-10 0 -16.5 7t-4.5 18l17 143q4 25 26 25h146q12 0 12 10z" />
    <glyph glyph-name="uni01CD" unicode="&#x1cd;" horiz-adv-x="1124" 
d="M829 1552q-10 -16 -28 -16h-191q-20 0 -26 16l-109 211q-6 12 -0.5 21.5t17.5 9.5h131q20 0 26 -16l68 -133q3 -14 14 0l96 133q11 16 31 16h125q14 0 17.5 -9.5t-5.5 -21.5zM815 0q-24 0 -27 20l-22 220q0 8 -8 8h-410q-7 0 -10 -8l-80 -220q-6 -20 -29 -20h-190
q-25 0 -16 27l530 1386q9 21 31 21h227q24 0 27 -21l190 -1386q3 -27 -22 -27h-191zM412 446q-3 -12 8 -12h311q13 0 10 12l-73 664q-2 6 -7 6t-6 -6z" />
    <glyph glyph-name="uni01CE" unicode="&#x1ce;" horiz-adv-x="978" 
d="M715 1176q-14 -17 -31 -17h-190q-18 0 -25 17l-111 210q-6 12 0 21.5t19 9.5h131q17 0 27 -16l65 -133q7 -14 14 0l99 133q8 16 28 16h125q14 0 18 -9.5t-5 -21.5zM729 1022q4 25 27 25h184q9 0 15.5 -7.5t5.5 -17.5l-123 -997q-4 -25 -27 -25h-182q-11 0 -17.5 7.5
t-5.5 17.5l8 53q0 6 -4 8t-8 -4q-85 -98 -229 -98q-243 0 -271 311q-10 96 7 231q19 146 45 226q101 311 358 311q143 0 199 -94q5 -6 8.5 -4t3.5 8zM621 317q32 79 45 207q17 134 4 211q-16 123 -119 123q-106 0 -160 -121q-36 -73 -53 -213q-14 -135 -2 -205
q20 -131 131 -131q103 0 154 129z" />
    <glyph glyph-name="uni0218" unicode="&#x218;" horiz-adv-x="1024" 
d="M477 -16q-197 0 -303 107t-84 284l6 53q4 25 27 25h178q10 0 16.5 -7t6.5 -18l-7 -41q-11 -87 42.5 -143t152.5 -56q91 0 148.5 50t66.5 129q4 34 -4.5 63t-22.5 50t-50 48t-65.5 45.5t-90.5 53.5q-84 48 -128.5 78.5t-100.5 85t-75.5 123t-9.5 155.5q23 177 149 279
t312 102q197 0 303.5 -111t83.5 -292l-4 -43q-1 -10 -9.5 -17.5t-19.5 -7.5h-180q-10 0 -16 7t-4 18l4 38q11 89 -38.5 146t-148.5 57q-86 0 -140 -45.5t-64 -128.5q-5 -42 4 -73.5t41 -62t71.5 -56t114.5 -66.5q139 -89 178 -120q115 -92 137 -201q10 -53 2 -115
q-22 -179 -152.5 -286t-326.5 -107zM279 -383q-14 0 -18.5 7.5t3.5 21.5l142 211q13 16 32 16h168q15 0 18 -9.5t-6 -21.5l-165 -209q-13 -16 -31 -16h-143z" />
    <glyph glyph-name="uni0219" unicode="&#x219;" horiz-adv-x="886" 
d="M412 -12q-172 0 -265.5 79.5t-78.5 208.5l2 17q3 24 26 24h174q9 0 15.5 -4t5.5 -10l-2 -16q-6 -50 35 -85.5t110 -35.5q65 0 108.5 32.5t49.5 82.5q3 21 -4 38.5t-17.5 29t-34.5 24.5t-40.5 19.5t-51 19.5t-51.5 20q-47 16 -80 31t-73.5 42t-64 58.5t-36.5 80t-6 106.5
q18 144 128 226.5t274 82.5q168 0 258 -85.5t73 -225.5v-3q-3 -24 -26 -24h-168q-10 0 -16 4.5t-5 11.5l2 17q6 51 -32 84.5t-107 33.5q-65 0 -109 -32t-49 -80q-3 -28 6.5 -49t40.5 -39.5t52 -27t72 -26.5l7.5 -3t7 -2.5l7.5 -2.5q52 -19 84.5 -33t77 -42t68.5 -58.5
t38.5 -79t7.5 -106.5q-19 -140 -130.5 -221.5t-282.5 -81.5zM217 -379q-13 0 -17.5 7.5t3.5 21.5l141 211q13 16 33 16h168q15 0 18 -9.5t-6 -21.5l-166 -208q-14 -17 -31 -17h-143z" />
    <glyph glyph-name="uni021A" unicode="&#x21a;" horiz-adv-x="1024" 
d="M1075 1434q10 0 16.5 -7t6.5 -18l-21 -158q-3 -24 -26 -24h-308q-9 0 -12 -10l-145 -1192q-1 -10 -9.5 -17.5t-17.5 -7.5h-184q-9 0 -15.5 7.5t-5.5 17.5l148 1192q0 10 -10 10h-295q-11 0 -16.5 7t-4.5 17l19 158q4 25 26 25h854zM197 -369q-13 0 -18 7.5t3 21.5
l142 211q13 16 32 16h168q15 0 18.5 -9t-5.5 -21l-166 -209q-14 -17 -31 -17h-143z" />
    <glyph glyph-name="uni021B" unicode="&#x21b;" horiz-adv-x="651" 
d="M426 2q-72 0 -120.5 10.5t-86.5 37t-52 78t-5 128.5l74 600q3 10 -9 10h-92q-9 0 -15 7.5t-5 17.5l16 131q1 10 9.5 17.5t17.5 7.5h92q10 0 10 10l29 233q1 10 9 17.5t17 7.5h177q10 0 16 -7t4 -18l-29 -233q0 -10 9 -10h161q10 0 16.5 -7t4.5 -18l-17 -131
q-4 -25 -26 -25h-162q-10 0 -10 -10l-64 -512q-9 -75 16 -106t87 -31h37q10 0 16 -7t4 -18l-18 -153q-1 -10 -9 -17.5t-18 -9.5h-84zM295 -168q13 16 33 16h168q15 0 18 -9t-6 -21l-166 -209q-14 -17 -31 -17h-145q-12 0 -15.5 8.5t3.5 20.5z" />
    <glyph glyph-name="uni0228" unicode="&#x228;" horiz-adv-x="1019" 
d="M1057 1253q0 -10 -8 -17t-19 -7h-551q-9 0 -12 -10l-47 -385q0 -11 8 -11h354q11 0 16.5 -7t4.5 -17l-19 -156q-4 -25 -26 -25h-355q-10 0 -10 -10l-49 -393q0 -10 8 -10h553q10 0 16.5 -7t4.5 -18l-19 -155q-4 -25 -26 -25h-285q-6 0 -8.5 -4t0.5 -8q84 -105 43 -226
q-18 -51 -54 -82t-78 -38.5t-79.5 -5t-69.5 13.5q-19 10 -14 31l20 75q6 25 31 19q35 -8 63 4.5t39 48.5q25 72 -61 168q-8 4 -12 4h-305q-9 0 -15.5 7.5t-5.5 17.5l170 1384q4 25 27 25h770q9 0 15 -7.5t5 -17.5z" />
    <glyph glyph-name="uni0229" unicode="&#x229;" horiz-adv-x="960" 
d="M485 186q120 3 183 115q10 23 30 16l144 -38q21 -7 12 -31q-42 -102 -122 -169t-191 -87q-13 -3 -4 -12q96 -110 51 -236q-17 -51 -53 -82t-78 -38.5t-79.5 -5.5t-68.5 13q-20 8 -14 31l18 76q5 24 31 18q36 -8 64 5t38 49q26 78 -69 176q-2 2 -10 6q-114 20 -180.5 94.5
t-77.5 189.5q-14 109 4 256q17 129 34 199q37 153 150.5 242.5t277.5 89.5q180 0 266.5 -99t80.5 -276q-2 -38 -19 -223q-3 -25 -26 -25h-535q-10 0 -10 -10q-6 -53 -6 -92q2 -68 45 -110t114 -42zM549 858q-65 0 -110.5 -38.5t-63.5 -104.5q-17 -62 -21 -94q0 -11 8 -11
h316q12 0 12 11q4 61 2 88q0 69 -37.5 109t-105.5 40z" />
    <glyph glyph-name="circumflex" unicode="&#x2c6;" horiz-adv-x="571" 
d="M139 1169q-14 0 -17.5 9.5t5.5 21.5l168 211q10 16 29 16h188q21 0 27 -16l120 -211q7 -12 1.5 -21.5t-19.5 -9.5h-135q-21 0 -27 17l-65 131q-3 13 -13 0l-96 -131q-11 -17 -31 -17h-135z" />
    <glyph glyph-name="caron" unicode="&#x2c7;" horiz-adv-x="638" 
d="M326 1161q-17 0 -27 17l-109 211q-6 12 -0.5 21t19.5 9h131q19 0 25 -16l67 -133q4 -14 14 0l97 133q11 16 30 16h125q14 0 18 -9t-5 -21l-164 -211q-14 -17 -31 -17h-190z" />
    <glyph glyph-name="uni02C9" unicode="&#x2c9;" horiz-adv-x="671" 
d="M219 1198q-10 0 -16 7t-4 18l12 114q1 10 9.5 17.5t19.5 7.5h446q10 0 16.5 -7t4.5 -18l-15 -114q-4 -25 -26 -25h-447z" />
    <glyph glyph-name="breve" unicode="&#x2d8;" horiz-adv-x="544" 
d="M371 1130q-93 0 -150.5 59t-54.5 150q0 25 24 25h78q23 0 23 -25q2 -43 27.5 -70.5t66.5 -27.5q40 0 72.5 27.5t44.5 70.5q6 25 28 25h78q24 0 21 -25q-20 -91 -92.5 -150t-165.5 -59z" />
    <glyph glyph-name="dotaccent" unicode="&#x2d9;" horiz-adv-x="301" 
d="M256 1169q-51 0 -77.5 32t-20.5 85t42 86t87 33q49 0 74.5 -33t19.5 -86q-6 -52 -40.5 -84.5t-84.5 -32.5z" />
    <glyph glyph-name="ring" unicode="&#x2da;" horiz-adv-x="505" 
d="M354 1155q-89 0 -143.5 64.5t-42.5 158.5q10 92 80.5 155.5t161.5 63.5t145.5 -63.5t42.5 -155.5q-10 -93 -81.5 -158t-162.5 -65zM369 1268q44 0 78 32t40 78t-21 77.5t-71 31.5q-43 0 -78 -32t-41 -77t22 -77.5t71 -32.5z" />
    <glyph glyph-name="ogonek" unicode="&#x2db;" horiz-adv-x="299" 
d="M209 -344q0 -21 -23 -31q-35 -11 -73 -13t-78 5.5t-68 38.5t-33 82q-16 132 125 250q14 12 33 12h96q17 0 19 -9.5t-12 -21.5q-111 -89 -105 -166q3 -36 28 -48.5t62 -4.5q27 6 27 -18z" />
    <glyph glyph-name="tilde" unicode="&#x2dc;" horiz-adv-x="665" 
d="M543 1194q-52 0 -113 45q-4 3 -11.5 8.5t-10.5 7.5t-9.5 6t-9.5 5.5l-8 4t-9 3t-9.5 1.5t-10.5 1q-49 0 -88 -47q-20 -23 -35 -8l-57 49q-16 16 -6 33q36 64 84.5 96.5t101.5 32.5q52 0 119 -48q2 -1 10 -6.5t10.5 -7t9.5 -6t11 -6.5t10.5 -5t11.5 -4t11 -2t12 -1
q50 0 84 47q16 22 33 8l61 -45q17 -13 -4 -47q-41 -60 -91 -87.5t-97 -27.5z" />
    <glyph glyph-name="hungarumlaut" unicode="&#x2dd;" horiz-adv-x="759" 
d="M176 1194q-13 0 -16.5 8.5t4.5 20.5l139 211q13 16 33 16h166q14 0 17.5 -9.5t-5.5 -21.5l-164 -209q-13 -16 -31 -16h-143zM500 1194q-12 0 -16 8.5t3 20.5l140 211q13 16 32 16h166q14 0 18 -9.5t-5 -21.5l-164 -209q-13 -16 -31 -16h-143z" />
    <glyph glyph-name="gravecomb" unicode="&#x300;" 
d="M94 1206q9 -28 -22 -28h-144q-18 0 -24 16l-117 209q-5 13 0.5 22t19.5 9h168q22 0 29 -17z" />
    <glyph glyph-name="acutecomb" unicode="&#x301;" 
d="M-258 1178q-14 0 -18 7t4 21l141 211q14 17 33 17h168q15 0 18 -9.5t-6 -21.5l-168 -209q-10 -16 -29 -16h-143z" />
    <glyph glyph-name="uni0302" unicode="&#x302;" 
d="M-434 1169q-14 0 -17.5 9.5t5.5 21.5l167 211q10 16 29 16h189q20 0 26 -16l121 -211q7 -12 1.5 -21.5t-19.5 -9.5h-136q-20 0 -26 17l-66 131q-3 12 -12 0l-96 -131q-11 -17 -31 -17h-135z" />
    <glyph glyph-name="tildecomb" unicode="&#x303;" 
d="M-94 1194q-50 0 -111 45q-6 4 -18.5 12.5t-16.5 11t-13 7t-16 5.5t-16 1q-49 0 -88 -47q-17 -23 -35 -8l-57 49q-14 14 -6 33q72 129 188 129q52 0 119 -48q53 -38 84 -38q49 0 86 47q16 22 33 8l59 -45q17 -13 -4 -47q-40 -60 -90 -87.5t-98 -27.5z" />
    <glyph glyph-name="uni0304" unicode="&#x304;" 
d="M-453 1198q-10 0 -16 7t-4 18l12 114q1 10 9.5 17.5t19.5 7.5h446q10 0 16.5 -7t4.5 -18l-15 -114q-4 -25 -26 -25h-447z" />
    <glyph glyph-name="uni0306" unicode="&#x306;" 
d="M-176 1112q-93 0 -150.5 59t-54.5 150q0 25 25 25h77q23 0 23 -25q2 -43 27.5 -70.5t66.5 -27.5q40 0 72.5 27.5t44.5 70.5q6 25 29 25h77q24 0 21 -25q-20 -91 -92.5 -150t-165.5 -59z" />
    <glyph glyph-name="uni0307" unicode="&#x307;" 
d="M-6 1169q-51 0 -77.5 32t-20.5 85t41 86t86 33q49 0 75.5 -33t18.5 -86q-6 -53 -40 -85t-83 -32z" />
    <glyph glyph-name="uni0308" unicode="&#x308;" 
d="M-350 1186q-54 0 -84.5 35.5t-24.5 91.5q7 57 46.5 92t93.5 35t82 -35t22 -92q-8 -56 -45 -91.5t-90 -35.5zM-14 1186q-55 0 -84 35.5t-23 91.5q8 57 45 92t92 35q54 0 83.5 -35t23.5 -92q-8 -56 -45.5 -91.5t-91.5 -35.5z" />
    <glyph glyph-name="uni030A" unicode="&#x30a;" 
d="M-111 1155q-90 0 -144.5 64.5t-43.5 158.5q12 92 82.5 155.5t159.5 63.5q91 0 146 -63.5t44 -155.5q-12 -94 -82.5 -158.5t-161.5 -64.5zM-98 1268q45 0 79 32t39 78q6 46 -20 77.5t-70 31.5t-79 -31.5t-39 -77.5q-6 -46 20.5 -78t69.5 -32z" />
    <glyph glyph-name="uni030B" unicode="&#x30b;" 
d="M-547 1174q-30 0 -14 28l125 209q13 19 30 19h152q13 0 16.5 -8.5t-4.5 -20.5l-133 -209q-9 -18 -31 -18h-141zM-231 1174q-13 0 -17 8t4 20l133 209q13 19 33 19h141q13 0 17 -8.5t-2 -20.5l-133 -209q-12 -18 -33 -18h-143z" />
    <glyph glyph-name="uni030C" unicode="&#x30c;" 
d="M-315 1153q-19 0 -25 16l-111 211q-5 12 0.5 21.5t18.5 9.5h131q17 0 27 -16l65 -133q7 -14 14 0l99 133q11 16 30 16h125q12 0 16 -9.5t-3 -21.5l-166 -211q-10 -16 -31 -16h-190z" />
    <glyph glyph-name="uni0312" unicode="&#x312;" 
d="M63 1417q14 0 18.5 -7.5t-3.5 -20.5l-141 -211q-10 -17 -31 -17h-170q-15 0 -18 9.5t6 21.5l167 209q10 16 29 16h143z" />
    <glyph glyph-name="uni0313" unicode="&#x313;" 
d="M-225 1178q-14 0 -18.5 7t3.5 21l142 211q10 17 30 17h170q13 0 16.5 -9.5t-5.5 -21.5l-166 -209q-10 -16 -29 -16h-143z" />
    <glyph glyph-name="uni0326" unicode="&#x326;" 
d="M-455 -367q-14 0 -18.5 7.5t4.5 21.5l139 211q13 16 33 16h168q15 0 18 -9t-6 -21l-166 -209q-14 -17 -30 -17h-142z" />
    <glyph glyph-name="uni0327" unicode="&#x327;" 
d="M-358 -375q-21 9 -15 31l19 76q5 24 30 18q36 -8 65 4.5t40 48.5q25 75 -62 166q-12 12 -8 21.5t21 9.5h96q19 0 29 -12q114 -116 63 -250q-17 -51 -52.5 -82t-77 -38.5t-79 -5.5t-69.5 13z" />
    <glyph glyph-name="uni0328" unicode="&#x328;" 
d="M-90 -344q0 -21 -23 -31q-35 -11 -73 -13t-78 5.5t-68 38.5t-33 82q-16 132 125 250q14 12 33 12h96q17 0 19 -9.5t-12 -21.5q-111 -89 -105 -166q3 -36 28 -48.5t62 -4.5q27 6 27 -18z" />
    <glyph glyph-name="uni0335" unicode="&#x335;" 
d="M-510 1272q2 11 9.5 17.5t17.5 6.5h577q11 0 16.5 -7t4.5 -17l-11 -98q-2 -11 -10 -18t-18 -7h-578q-10 0 -16 7t-4 18z" />
    <glyph glyph-name="uni0336" unicode="&#x336;" 
d="M-961 1049q-23 0 -20 24l14 113q2 11 9.5 17.5t17.5 6.5h1024q23 0 20 -24l-12 -113q-1 -10 -9 -17t-17 -7h-1027z" />
    <glyph glyph-name="uni0337" unicode="&#x337;" 
d="M-737 127q-22 -16 -35 4l-70 102q-13 20 8 35l910 682q21 15 33 -4l69 -102q13 -19 -6 -35z" />
    <glyph glyph-name="uni0338" unicode="&#x338;" 
d="M-899 -84q-30 0 -14 29l899 1562q11 19 30 19h99q30 0 14 -29l-901 -1563q-8 -18 -29 -18h-98z" />
    <glyph glyph-name="uni0394" unicode="&#x394;" horiz-adv-x="1198" 
d="M35 0q-9 0 -15.5 7.5t-5.5 17.5l21 163q4 18 10 31l596 1196q6 19 29 19h131q21 0 24 -19l301 -1198q5 -15 2 -31l-18 -161q-1 -10 -9.5 -17.5t-17.5 -7.5h-1048zM266 217q-3 -12 8 -12h621q10 0 10 12l-205 895q0 6 -4.5 6t-7.5 -6z" />
    <glyph glyph-name="uni03A9" unicode="&#x3a9;" horiz-adv-x="1120" 
d="M82 0q-10 0 -16.5 7t-4.5 18l19 155q4 25 26 25h97q5 0 7.5 3.5t-1.5 8.5q-89 106 -68 281l62 508q25 200 160.5 322t334.5 122q200 0 308.5 -122.5t83.5 -321.5l-64 -508q-21 -175 -139 -281q-5 -5 -3.5 -8.5t7.5 -3.5h94q10 0 16.5 -7t4.5 -18l-19 -155
q-1 -10 -9 -17.5t-17 -7.5h-365q-10 0 -16.5 7t-4.5 18l19 159q3 20 24 27q63 18 111.5 79t58.5 146l72 578q12 104 -38.5 167.5t-147.5 63.5q-96 0 -162 -63.5t-78 -167.5l-72 -578q-10 -85 22.5 -145t90.5 -80q20 -8 17 -27l-21 -159q0 -10 -8 -17.5t-19 -7.5h-362z" />
    <glyph glyph-name="uni03BC" unicode="&#x3bc;" horiz-adv-x="985" 
d="M731 1022q4 25 27 25h182q10 0 16.5 -7t6.5 -18l-123 -997q-4 -25 -27 -25h-184q-9 0 -15.5 7.5t-5.5 17.5l8 55q0 6 -4 7t-8 -5q-78 -96 -225 -96q-37 0 -72 6q-8 3 -12 -10l-45 -367q0 -10 -8 -17.5t-19 -7.5h-182q-10 0 -16.5 7t-4.5 18l173 1407q1 10 9 17.5t17 7.5
h184q9 0 15.5 -7.5t5.5 -17.5l-80 -651q-11 -87 22.5 -135t106.5 -48q72 0 120.5 51t57.5 136z" />
    <glyph glyph-name="pi" unicode="&#x3c0;" horiz-adv-x="1175" 
d="M1184 868q-1 -10 -9.5 -17t-17.5 -7h-104q-11 0 -11 -10l-61 -494q-10 -87 10 -112t70 -23q10 0 16 -7t4 -18l-20 -155q0 -11 -7.5 -18t-19.5 -7q-35 -3 -72 -0.5t-73.5 5t-67.5 17t-53.5 36.5t-32 62t-2.5 95l76 619q3 10 -8 10h-295q-10 0 -10 -10l-99 -809
q-2 -11 -10 -18t-18 -7h-183q-10 0 -16 7t-4 18l100 809q0 10 -10 10h-109q-23 0 -20 24l18 154q4 25 27 25h1010q10 0 16 -7t4 -18z" />
    <glyph glyph-name="Wgrave" unicode="&#x1e80;" horiz-adv-x="1521" 
d="M995 1593q6 -13 0 -20.5t-20 -7.5h-144q-18 0 -24 16l-117 209q-6 12 0 21.5t21 9.5h168q21 0 28 -17zM346 0q-21 0 -24 20l-146 1387q-1 13 6.5 20t20.5 7h190q9 0 16 -6.5t7 -16.5l73 -895q1 -4 3.5 -5.5t5.5 0.5t4 7l280 893q6 23 29 23h176q9 0 16 -6.5t7 -16.5
l73 -895q0 -5 2.5 -7t5 0t3.5 7l284 895q7 23 29 23h186q11 0 17 -7t2 -20l-469 -1384q-7 -23 -29 -23h-176q-23 0 -23 23l-71 923q-2 6 -7 6t-6 -6l-286 -923q-6 -23 -29 -23h-170z" />
    <glyph glyph-name="wgrave" unicode="&#x1e81;" horiz-adv-x="1345" 
d="M858 1206q9 -28 -22 -28h-144q-18 0 -24 16l-117 209q-5 13 0.5 22t19.5 9h168q22 0 29 -17zM281 0q-24 0 -27 20l-123 1000q-1 13 6.5 20t18.5 7h180q9 0 15.5 -6.5t6.5 -16.5l54 -678q1 -5 3 -6.5t4.5 0t4.5 6.5l225 678q1 10 9.5 16.5t17.5 6.5h162q22 0 22 -23
l62 -678q1 -5 3.5 -7t5 0t3.5 7l225 678q7 23 29 23l178 -3q27 0 18 -26l-370 -998q-9 -20 -31 -20h-184q-20 0 -23 20l-65 615q-1 5 -4 7t-5.5 0t-3.5 -7l-209 -612q-7 -23 -28 -23h-180z" />
    <glyph glyph-name="Wacute" unicode="&#x1e82;" horiz-adv-x="1521" 
d="M809 1565q-13 0 -17 7.5t3 20.5l141 211q14 17 33 17h168q15 0 18 -9.5t-6 -21.5l-166 -209q-13 -16 -31 -16h-143zM346 0q-21 0 -24 20l-146 1387q-1 13 6.5 20t20.5 7h190q9 0 16 -6.5t7 -16.5l73 -895q1 -4 3.5 -5.5t5.5 0.5t4 7l280 893q6 23 29 23h176q9 0 16 -6.5
t7 -16.5l73 -895q0 -5 2.5 -7t5 0t3.5 7l284 895q7 23 29 23h186q11 0 17 -7t2 -20l-469 -1384q-7 -23 -29 -23h-176q-23 0 -23 23l-71 923q-2 6 -7 6t-6 -6l-286 -923q-6 -23 -29 -23h-170z" />
    <glyph glyph-name="wacute" unicode="&#x1e83;" horiz-adv-x="1345" 
d="M672 1178q-14 0 -18.5 7t3.5 21l142 211q10 17 30 17h170q13 0 16.5 -9.5t-5.5 -21.5l-166 -209q-10 -16 -31 -16h-141zM281 0q-24 0 -27 20l-123 1000q-1 13 6.5 20t18.5 7h180q9 0 15.5 -6.5t6.5 -16.5l54 -678q1 -5 3 -6.5t4.5 0t4.5 6.5l225 678q1 10 9.5 16.5
t17.5 6.5h162q22 0 22 -23l62 -678q1 -5 3.5 -7t5 0t3.5 7l225 678q7 23 29 23l178 -3q27 0 18 -26l-370 -998q-9 -20 -31 -20h-184q-20 0 -23 20l-65 615q-1 5 -4 7t-5.5 0t-3.5 -7l-209 -612q-7 -23 -28 -23h-180z" />
    <glyph glyph-name="Wdieresis" unicode="&#x1e84;" horiz-adv-x="1521" 
d="M743 1573q-54 0 -84 35.5t-24 91.5q7 57 46 92t93 35t82.5 -35t22.5 -92q-8 -56 -45 -91.5t-91 -35.5zM1079 1573q-55 0 -83.5 35.5t-22.5 91.5q8 57 45 92t92 35q54 0 83.5 -35t23.5 -92q-8 -56 -46 -91.5t-92 -35.5zM346 0q-21 0 -24 20l-146 1387q-1 13 6.5 20t20.5 7
h190q9 0 16 -6.5t7 -16.5l73 -895q1 -4 3.5 -5.5t5.5 0.5t4 7l280 893q6 23 29 23h176q9 0 16 -6.5t7 -16.5l73 -895q0 -5 2.5 -7t5 0t3.5 7l284 895q7 23 29 23h186q11 0 17 -7t2 -20l-469 -1384q-7 -23 -29 -23h-176q-23 0 -23 23l-71 923q-2 6 -7 6t-6 -6l-286 -923
q-6 -23 -29 -23h-170z" />
    <glyph glyph-name="wdieresis" unicode="&#x1e85;" horiz-adv-x="1345" 
d="M604 1186q-54 0 -84 35.5t-22 91.5q6 57 44.5 92t92.5 35t82.5 -35t21.5 -92q-6 -56 -43.5 -91.5t-91.5 -35.5zM940 1186q-55 0 -83.5 35.5t-20.5 91.5q6 57 43 92t92 35q54 0 83 -35t23 -92q-8 -56 -45.5 -91.5t-91.5 -35.5zM281 0q-24 0 -27 20l-123 1000q-1 13 6.5 20
t18.5 7h180q9 0 15.5 -6.5t6.5 -16.5l54 -678q1 -5 3 -6.5t4.5 0t4.5 6.5l225 678q1 10 9.5 16.5t17.5 6.5h162q22 0 22 -23l62 -678q1 -5 3.5 -7t5 0t3.5 7l225 678q7 23 29 23l178 -3q27 0 18 -26l-370 -998q-9 -20 -31 -20h-184q-20 0 -23 20l-65 615q-1 5 -4 7t-5.5 0
t-3.5 -7l-209 -612q-7 -23 -28 -23h-180z" />
    <glyph glyph-name="Ygrave" unicode="&#x1ef2;" horiz-adv-x="1048" 
d="M766 1593q6 -13 -1.5 -20.5t-21.5 -7.5h-141q-21 0 -27 16l-114 209q-6 12 -0.5 21.5t18.5 9.5h170q20 0 27 -17zM393 2q-10 0 -16 7t-4 18l67 553v12l-243 813q-3 12 2.5 20.5t17.5 8.5h195q23 0 26 -19l146 -553q6 -15 12 0l281 553q9 19 30 19h197q13 0 16.5 -8.5
t-2.5 -20.5l-446 -813q-2 -6 -2 -12l-68 -553q-1 -10 -9.5 -17.5t-19.5 -7.5h-180z" />
    <glyph glyph-name="ygrave" unicode="&#x1ef3;" horiz-adv-x="886" 
d="M637 1214q6 -13 -0.5 -20.5t-20.5 -7.5h-143q-18 0 -24 16l-117 209q-6 12 -0.5 21.5t20.5 9.5h168q22 0 29 -17zM2 -408q-10 0 -10 25l18 147q1 10 6.5 17.5t10.5 7.5h8q108 0 159.5 40.5t90.5 164.5q5 4 2 12l-164 1012q-1 12 5 20.5t17 8.5h197q22 0 25 -21l73 -684
q1 -5 3.5 -7t5.5 0t4 7l239 684q9 21 29 21h197q12 0 16.5 -8.5t-0.5 -20.5l-440 -1075q-37 -87 -67 -141t-68 -98.5t-85 -66.5t-109.5 -33.5t-150.5 -11.5h-12z" />
    <glyph glyph-name="endash" unicode="&#x2013;" horiz-adv-x="837" 
d="M102 479q-10 0 -16 7t-4 18l18 155q1 10 9.5 17.5t17.5 7.5h674q10 0 16 -7t4 -18l-18 -155q-4 -25 -27 -25h-674z" />
    <glyph glyph-name="emdash" unicode="&#x2014;" horiz-adv-x="1251" 
d="M102 479q-10 0 -16 7t-4 18l18 155q1 10 9.5 17.5t17.5 7.5h1087q10 0 16.5 -7t4.5 -18l-18 -155q-1 -10 -9.5 -17.5t-17.5 -7.5h-1088z" />
    <glyph glyph-name="quoteleft" unicode="&#x2018;" horiz-adv-x="344" 
d="M111 987q-12 0 -17.5 7.5t0.5 21.5l193 397q9 21 30 21h136q27 0 18 -27l-147 -399q-6 -21 -29 -21h-184z" />
    <glyph glyph-name="quoteright" unicode="&#x2019;" horiz-adv-x="344" 
d="M451 1434q29 0 16 -29l-193 -397q-9 -21 -30 -21h-135q-11 0 -17 7t-2 20l148 399q9 21 30 21h183z" />
    <glyph glyph-name="quotesinglbase" unicode="&#x201a;" horiz-adv-x="1191" 
d="M43 -186q-24 0 -18 26l114 459q6 23 29 23h160q27 0 18 -27l-164 -461q-9 -20 -30 -20h-109z" />
    <glyph glyph-name="quotedblleft" unicode="&#x201c;" horiz-adv-x="638" 
d="M111 987q-11 0 -17 8t0 21l187 397q11 21 28 21h131q28 0 19 -27l-142 -399q-9 -21 -30 -21h-176zM424 987q-12 0 -17 7.5t1 21.5l182 397q10 21 28 21h130q27 0 18 -27l-139 -399q-9 -21 -29 -21h-174z" />
    <glyph glyph-name="quotedblright" unicode="&#x201d;" horiz-adv-x="638" 
d="M434 1434q12 0 17.5 -8t-0.5 -21l-185 -397q-7 -21 -28 -21h-129q-11 0 -17 7t-2 20l141 399q9 21 29 21h174zM745 1434q12 0 17.5 -8t-0.5 -21l-184 -397q-10 -21 -29 -21h-131q-28 0 -19 27l142 399q9 21 30 21h174z" />
    <glyph glyph-name="quotedblbase" unicode="&#x201e;" horiz-adv-x="647" 
d="M291 262q12 0 17 -8t-1 -21l-184 -397q-10 -20 -29 -20h-129q-27 0 -18 26l141 400q6 20 27 20h176zM602 262q12 0 17 -8t-1 -21l-186 -397q-7 -20 -29 -20h-131q-11 0 -16.5 6.5t-1.5 19.5l143 400q9 20 31 20h174z" />
    <glyph glyph-name="dagger" unicode="&#x2020;" horiz-adv-x="792" 
d="M784 940q10 0 16.5 -7t4.5 -18l-14 -131q-1 -10 -9.5 -17t-19.5 -7h-189q-10 0 -10 -10l-139 -1135q-1 -10 -9.5 -17.5t-17.5 -7.5h-184q-9 0 -15 7.5t-5 17.5l139 1135q3 10 -8 10h-187q-23 0 -20 24l16 131q0 10 8 17.5t19 7.5h186q10 0 10 10l58 459q4 25 26 25h183
q10 0 16 -7t4 -18l-55 -459q-3 -10 8 -10h188z" />
    <glyph glyph-name="daggerdbl" unicode="&#x2021;" horiz-adv-x="792" 
d="M791 784q-1 -10 -9.5 -17t-19.5 -7h-189q-10 0 -10 -10l-59 -476q0 -10 10 -10h188q11 0 16.5 -7t4.5 -17l-16 -131q-4 -25 -27 -25h-188q-10 0 -13 -10l-55 -459q-1 -10 -9.5 -17.5t-17.5 -7.5h-184q-9 0 -15 7.5t-5 17.5l57 459q0 10 -8 10h-189q-9 0 -15 7.5t-5 17.5
l16 131q2 11 9.5 17.5t17.5 6.5h186q9 0 12 10l58 476q3 10 -8 10h-187q-23 0 -20 24l16 131q0 10 8 17.5t19 7.5h186q10 0 10 10l58 459q4 25 26 25h183q10 0 16 -7t4 -18l-55 -459q-3 -10 8 -10h188q10 0 16.5 -7t4.5 -18z" />
    <glyph glyph-name="bullet" unicode="&#x2022;" horiz-adv-x="612" 
d="M305 303q-103 0 -166 75.5t-51 180.5q13 107 95 180.5t186 73.5q101 0 163 -73.5t50 -180.5q-14 -105 -95 -180.5t-182 -75.5z" />
    <glyph glyph-name="ellipsis" unicode="&#x2026;" horiz-adv-x="1531" 
d="M213 -2q-67 0 -106 45.5t-31 112.5q9 63 61.5 109t112.5 46q61 0 102.5 -46t34.5 -109q-7 -66 -58 -112t-116 -46zM723 -2q-67 0 -105.5 46t-29.5 112q7 63 60 109t114 46t101.5 -45.5t33.5 -109.5q-8 -66 -58 -112t-116 -46zM1231 -2q-66 0 -104.5 45.5t-30.5 112.5
q7 63 60 109t114 46t102.5 -46t32.5 -109q-8 -66 -58 -112t-116 -46z" />
    <glyph glyph-name="perthousand" unicode="&#x2030;" horiz-adv-x="2162" 
d="M326 563q-115 0 -175.5 70.5t-46.5 189.5l46 369q15 117 92 187.5t192 70.5q116 0 176.5 -70t46.5 -188l-45 -369q-15 -119 -92 -189.5t-194 -70.5zM281 0q-14 0 -18 8t5 21l985 1388q9 17 29 17h117q30 0 14 -29l-983 -1389q-11 -16 -31 -16h-118zM342 700
q46 0 78.5 30.5t38.5 82.5l47 385q7 52 -17.5 84.5t-70.5 32.5q-44 0 -75.5 -32t-39.5 -85l-47 -385q-6 -52 17.5 -82.5t68.5 -30.5zM1233 -16q-114 0 -174 71t-45 189l45 368q14 117 91.5 187.5t192.5 70.5q116 0 176.5 -70.5t45.5 -187.5l-45 -368q-13 -118 -91.5 -189
t-195.5 -71zM1825 -16q-114 0 -174 71t-45 189l45 368q14 117 91.5 187.5t192.5 70.5q116 0 176.5 -70.5t45.5 -187.5l-46 -368q-14 -119 -91.5 -189.5t-194.5 -70.5zM1251 121q47 0 79 30t38 82l47 385q6 52 -19 84.5t-71 32.5q-44 0 -75.5 -32.5t-37.5 -84.5l-47 -385
q-6 -52 17 -82t69 -30zM1843 121q47 0 79 30t38 82l47 385q6 53 -18.5 85t-71.5 32q-44 0 -75.5 -32.5t-37.5 -84.5l-47 -385q-6 -52 17.5 -82t68.5 -30z" />
    <glyph glyph-name="guilsinglleft" unicode="&#x2039;" horiz-adv-x="636" 
d="M485 248q6 -13 0.5 -21t-18.5 -8h-164q-19 0 -27 17l-153 323q-10 16 4 33l233 323q11 17 31 17h162q14 0 17.5 -8t-5.5 -21l-237 -321q-2 -4 -2 -13z" />
    <glyph glyph-name="guilsinglright" unicode="&#x203a;" horiz-adv-x="675" 
d="M145 219q-13 0 -16.5 7.5t4.5 21.5l240 321q3 7 0 13l-158 321q-6 13 -1 21t19 8h164q19 0 25 -17l156 -323q6 -15 -5 -33l-235 -323q-8 -17 -29 -17h-164z" />
    <glyph glyph-name="fraction" unicode="&#x2044;" horiz-adv-x="444" 
d="M-281 0q-14 0 -17.5 8t5.5 21l985 1388q11 17 31 17h117q14 0 17.5 -8t-5.5 -21l-983 -1389q-11 -16 -31 -16h-119z" />
    <glyph glyph-name="uni2074" unicode="&#x2074;" horiz-adv-x="628" 
d="M680 1235q10 0 16 -7t4 -18l-10 -92q-1 -10 -9 -17t-17 -7h-31q-10 0 -10 -11l-25 -186q0 -10 -8 -17.5t-19 -7.5h-102q-10 0 -16 7t-4 18l22 186q0 11 -8 11h-316q-9 0 -15 7t-5 17l10 74q0 7 8 31l248 491q9 19 31 19h108q30 0 17 -29l-227 -457q-3 -12 6 -12h151
q10 0 13 10l16 137q4 25 27 25h102q10 0 16 -7t4 -18l-16 -137q0 -10 10 -10h29z" />
    <glyph glyph-name="uni2075" unicode="&#x2075;" horiz-adv-x="557" 
d="M608 1300q27 -68 15 -161q-13 -102 -56 -162q-75 -119 -223 -119q-92 0 -148 46.5t-65 131.5q-2 18 -2 54q0 24 27 24h106q21 0 21 -22l4 -25q3 -35 22.5 -54.5t50.5 -19.5q61 0 86 62q16 29 23 82q7 54 0 80q-12 59 -74 59q-59 0 -88 -45q-12 -21 -28 -21h-113
q-9 0 -15.5 7.5t-5.5 17.5l58 469q1 10 9 17.5t17 7.5h424q10 0 16.5 -7t4.5 -18l-10 -86q-4 -25 -27 -25h-285q-10 0 -10 -10l-25 -199q-2 -6 2.5 -8t8.5 2q53 35 121 35q119 0 159 -113z" />
    <glyph glyph-name="uni2076" unicode="&#x2076;" horiz-adv-x="575" 
d="M627 1296q22 -63 12 -157q-14 -99 -45 -148q-34 -64 -95 -98.5t-139 -34.5q-89 0 -143.5 44.5t-66.5 127.5q-6 50 0 103l47 383q10 102 84.5 162.5t183.5 60.5q102 0 160.5 -60t46.5 -159l-4 -23q0 -10 -8 -17t-19 -7h-104q-23 0 -23 16l2 16q6 41 -14.5 69t-55.5 28
q-38 0 -67 -28.5t-33 -72.5l-16 -131q-2 -6 2 -8t8 2q53 47 121 47q62 0 104.5 -30.5t61.5 -84.5zM463 1055q14 26 22 86q6 54 0 86q-13 59 -73 59q-64 0 -90 -63q-11 -26 -19 -82q-7 -53 -2 -80q5 -32 24.5 -50t51.5 -18q59 0 86 62z" />
    <glyph glyph-name="uni2077" unicode="&#x2077;" horiz-adv-x="524" 
d="M209 872q-27 0 -14 29l303 684q6 12 -6 12h-185q-10 0 -10 -10l-8 -61q-4 -25 -27 -25h-78q-10 0 -16 7t-4 18l24 182q4 25 27 25h442q10 0 16.5 -7t4.5 -18l-10 -94q-4 -22 -9 -31l-311 -690q-10 -21 -29 -21h-110z" />
    <glyph glyph-name="uni2078" unicode="&#x2078;" horiz-adv-x="579" 
d="M569 1325q-9 -6 0 -12q47 -32 58 -88q13 -59 4 -109q-4 -35 -27 -102q-33 -70 -100 -113t-150 -43q-79 0 -133.5 41t-73.5 115q-12 48 -4 104q7 58 31 105q25 57 80 90q10 7 2 12q-41 33 -57 88q-13 44 -9 94q6 45 33 95q34 67 97 104t145 37q80 0 135 -37t74 -104
q12 -47 6 -95q-5 -40 -31 -94q-32 -57 -80 -88zM352 1534q-8 -16 -12 -39q-2 -15 2 -43q3 -34 23 -54t55 -20q70 0 96 74q10 20 10 41q3 20 0 43q-10 72 -77 72q-74 0 -97 -74zM467 1071q9 26 12 57q4 32 4 52q-3 37 -23.5 58.5t-53.5 21.5q-36 0 -62 -21.5t-37 -58.5
q-5 -14 -10 -52q-3 -28 0 -55q2 -37 21.5 -58.5t54.5 -21.5q32 0 57 21t37 57z" />
    <glyph glyph-name="uni2079" unicode="&#x2079;" horiz-adv-x="575" 
d="M618 1079q-10 -102 -84.5 -162.5t-183.5 -60.5q-102 0 -160.5 60t-46.5 159l4 23q0 10 8 17t19 7h105q22 0 22 -16l-2 -16q-4 -41 16 -69t54 -28q39 0 67.5 28.5t32.5 72.5l16 131q2 6 -2 8t-8 -2q-53 -47 -121 -47q-62 0 -104.5 30t-61.5 84q-22 63 -12 158
q14 94 45 148q34 64 95 98.5t139 34.5q89 0 144 -44.5t67 -127.5q7 -40 0 -103zM494 1372q10 23 18 82q7 53 2 80q-5 32 -24.5 50t-51.5 18q-59 0 -86 -62q-14 -26 -22 -86q-7 -57 2 -86q10 -59 71 -59q65 0 91 63z" />
    <glyph glyph-name="franc" unicode="&#x20a3;" horiz-adv-x="1105" 
d="M1190 1253q0 -10 -8 -17t-19 -7h-549q-9 0 -12 -10l-47 -385q0 -11 8 -11h355q23 0 20 -24l-18 -156q-4 -25 -27 -25h-354q-11 0 -11 -10l-24 -196q-1 -4 1 -7.5t7 -3.5h227q9 0 15.5 -7t5.5 -17l-12 -98q-4 -25 -27 -25h-227q-11 0 -11 -10l-26 -219q-1 -10 -9.5 -17.5
t-17.5 -7.5h-184q-10 0 -16.5 7t-4.5 18l27 219q3 10 -8 10h-101q-22 0 -22 25l12 98q1 10 9.5 17t17.5 7h102q10 0 10 11l123 997q4 25 27 25h768q9 0 15 -7.5t5 -17.5z" />
    <glyph glyph-name="Euro" unicode="&#x20ac;" horiz-adv-x="1122" 
d="M623 188q66 0 114.5 42t69.5 114q6 24 29 21l174 -31q24 -3 18 -29q-41 -149 -156 -235t-274 -86q-179 0 -273 112.5t-71 300.5l14 127q1 4 -1 7.5t-7 3.5h-113q-23 0 -20 24l8 80q1 10 9.5 17.5t19.5 7.5h112q11 0 11 10l10 84q3 10 -8 10h-113q-10 0 -16 7t-4 18l8 79
q1 10 9.5 17.5t19.5 7.5h112q10 0 10 10l17 133q23 187 144.5 298.5t301.5 111.5q161 0 255 -88t97 -242q0 -23 -24 -26l-186 -23q-23 -3 -23 21q-2 70 -40 111.5t-103 41.5q-75 0 -128 -53t-63 -141l-16 -144q-3 -10 8 -10h363q11 0 15.5 -8.5t0.5 -20.5l-35 -80
q-10 -20 -29 -20h-331q-11 0 -11 -10l-10 -84q-3 -10 8 -10h299q11 0 17 -8t0 -21l-37 -80q-10 -20 -29 -20h-266q-10 0 -10 -11l-19 -143q-10 -86 29 -139.5t113 -53.5z" />
    <glyph glyph-name="uni20BA" unicode="&#x20ba;" horiz-adv-x="1210" 
d="M1128 567q24 0 21 -24q-16 -105 -63.5 -197.5t-122.5 -165.5t-184.5 -119.5t-241.5 -54.5q-117 -6 -236 -6q-10 0 -16 7t-4 18l69 555q0 4 -4 7t-8 1l-152 -45q-25 -7 -28 18l-15 84q-3 24 21 31l196 57q9 5 9 10l12 99q1 4 -2 7t-8 1l-154 -45q-23 -7 -27 18l-14 86
q-3 24 21 31l196 57q8 4 8 11l50 401q1 10 9 17.5t17 7.5h185q9 0 15 -7.5t5 -17.5l-41 -328q0 -11 10 -8l273 80q23 7 26 -16l15 -88q3 -25 -19 -31l-315 -92q-8 -4 -10 -11l-13 -98q0 -4 4 -7t9 -1l270 80q26 7 29 -17l14 -86q3 -23 -21 -30l-315 -92q-8 -4 -10 -11
l-53 -438q0 -10 10 -10q156 12 253 102t122 236q3 24 26 24h182z" />
    <glyph glyph-name="uni20BD" unicode="&#x20bd;" horiz-adv-x="1214" 
d="M807 600h-244q-9 0 -12 -10l-14 -123q-3 -10 8 -10h362q9 0 15.5 -7.5t5.5 -17.5l-13 -90q-4 -25 -26 -25h-361q-9 0 -12 -10l-35 -282q-4 -25 -26 -25h-183q-10 0 -16 7t-4 18l35 282q0 10 -11 10h-126q-9 0 -15.5 7.5t-5.5 17.5l12 90q0 10 8 17.5t19 7.5h127
q10 0 10 10l17 123q0 10 -11 10h-127q-9 0 -15 7.5t-5 17.5l18 141q0 10 8 17.5t19 7.5h127q10 0 10 10l76 610q4 25 27 25h460q173 0 266 -117t70 -305q-23 -186 -145.5 -300t-292.5 -114zM639 1231q-10 0 -10 -10l-51 -420q-3 -10 8 -10h209q89 0 148 58t71 159
q12 104 -32.5 163.5t-133.5 59.5h-209z" />
    <glyph glyph-name="uni2113" unicode="&#x2113;" horiz-adv-x="923" 
d="M674 219q20 20 33 0l71 -98q12 -15 -4 -35q-102 -102 -278 -102q-139 0 -206 90t-48 250l12 102q2 6 -1 8t-9 -2l-54 -35q-24 -15 -30 11l-25 108q-3 21 15 33l122 82q6 6 9 12l45 387q9 71 37 142.5t72.5 133t110 101t140.5 41.5q117 4 179.5 -77t47.5 -212
q-10 -84 -48.5 -163.5t-102 -152t-132.5 -132.5t-161 -127q-2 -1 -8 -13l-25 -213q-25 -194 105 -194q74 0 133 55zM512 995l-25 -192q0 -6 4.5 -7.5t8.5 3.5q219 183 237 342q8 66 -10 104.5t-65 34.5q-53 -6 -94.5 -78t-55.5 -207z" />
    <glyph glyph-name="trademark" unicode="&#x2122;" horiz-adv-x="1189" 
d="M176 1319q-23 0 -20 24l8 66q0 10 7.5 17.5t18.5 7.5h437q10 0 16 -7t4 -18l-8 -66q0 -10 -8 -17t-19 -7h-147q-10 0 -10 -10l-70 -570q-2 -11 -9.5 -17.5t-17.5 -6.5h-82q-23 0 -20 24l70 570q0 10 -9 10h-141zM1126 1417q8 17 29 17h84q10 0 16.5 -7t4.5 -18l-82 -670
q-2 -11 -9.5 -17.5t-17.5 -6.5h-82q-23 0 -20 24l57 467q0 8 -4 9t-8 -5l-107 -149q-11 -17 -29 -17t-26 17l-70 149q-2 4 -5 5t-5 -1.5t-2 -7.5l-57 -467q-1 -10 -9.5 -17t-17.5 -7h-84q-23 0 -20 24l81 670q4 25 27 25h88q19 0 25 -17l90 -190q6 -11 14 0z" />
    <glyph glyph-name="uni2126" unicode="&#x2126;" horiz-adv-x="1120" 
d="M82 0q-10 0 -16.5 7t-4.5 18l19 155q4 25 26 25h97q5 0 7.5 3.5t-1.5 8.5q-89 106 -68 281l62 508q25 200 160.5 322t334.5 122q200 0 308.5 -122.5t83.5 -321.5l-64 -508q-21 -175 -139 -281q-5 -5 -3.5 -8.5t7.5 -3.5h94q10 0 16.5 -7t4.5 -18l-19 -155
q-1 -10 -9 -17.5t-17 -7.5h-365q-10 0 -16.5 7t-4.5 18l19 159q3 20 24 27q63 18 111.5 79t58.5 146l72 578q12 104 -38.5 167.5t-147.5 63.5q-96 0 -162 -63.5t-78 -167.5l-72 -578q-10 -85 22.5 -145t90.5 -80q20 -8 17 -27l-21 -159q0 -10 -8 -17.5t-19 -7.5h-362z" />
    <glyph glyph-name="estimated" unicode="&#x212e;" horiz-adv-x="1656" 
d="M967 1450q209 0 364.5 -95.5t228.5 -264.5t48 -379q-4 -9 -25 -9h-1218q-10 0 -13 -10l-47 -399q-3 -5 2 -14q78 -108 204 -169t284 -61q183 0 353 95t271 249q14 17 31 17h27q13 0 17.5 -8.5t-3.5 -20.5q-111 -179 -303 -288t-402 -109q-209 0 -364.5 94t-228.5 260
t-48 373q25 210 139 379t293.5 264.5t389.5 95.5zM416 1155q-1 -2 -3 -7t-3 -7l-43 -363q-3 -10 8 -10h1016q12 0 12 10l43 359q2 5 -2 14q-76 110 -201.5 171.5t-284.5 61.5q-157 0 -297 -60.5t-245 -168.5z" />
    <glyph glyph-name="oneeighth" unicode="&#x215b;" horiz-adv-x="1476" 
d="M315 598q-4 -25 -26 -25h-105q-10 0 -16 7t-4 18l84 684q0 5 -3 8t-7 2l-43 -8q-13 -3 -19 3.5t-4 19.5l8 67q3 21 23 29l47 22q22 9 31 9h114q9 0 15.5 -7.5t5.5 -17.5zM1122 1417q8 17 29 17h117q14 0 17.5 -8t-5.5 -21l-981 -1389q-11 -16 -31 -16h-118q-14 0 -18 8
t5 21zM1358 453q-10 -7 0 -13q45 -31 57 -88q12 -56 6 -108q-5 -46 -28 -103q-33 -70 -100 -112.5t-150 -42.5q-80 0 -134 41t-71 114q-14 48 -6 105q6 56 31 104q25 57 79 90q12 6 2 13q-41 33 -57 88q-12 42 -8 94q6 44 33 94q35 68 97.5 104.5t143.5 36.5q80 0 135 -37
t74 -104q12 -47 6 -94q-5 -43 -30 -94q-28 -54 -80 -88zM1141 662q-10 -20 -13 -39q0 -29 2 -43q3 -34 23 -54t55 -20t60.5 20t36.5 54q10 20 10 41q3 20 0 43q-9 71 -78 71q-73 0 -96 -73zM1255 199q13 39 15 57q4 32 2 51q-3 37 -23.5 58.5t-54.5 21.5q-35 0 -61 -21.5
t-37 -58.5q-6 -19 -11 -51q-3 -28 0 -55q2 -37 22 -58.5t54 -21.5q32 0 57.5 21.5t36.5 56.5z" />
    <glyph glyph-name="threeeighths" unicode="&#x215c;" horiz-adv-x="1640" 
d="M578 735q-31 -79 -95.5 -123.5t-152.5 -44.5q-92 0 -148.5 51t-64.5 136q-2 12 -2 73q3 25 28 25h103q22 0 22 -25q-3 -23 0 -43q5 -38 25 -60t53 -22q55 0 90 60q19 43 25 100q9 64 -2 103q-16 59 -74 59q-17 0 -33 -8q-8 -4 -10 -4q-13 -8 -27 6l-43 57q-14 17 4 35
l185 180q10 13 -2 13h-250q-9 0 -15.5 7t-5.5 17l11 86q1 10 9 17.5t17 7.5h424q10 0 16.5 -7t4.5 -18l-11 -94q-3 -16 -16 -29l-156 -160q-6 -8 5 -12q90 -24 112 -137q13 -60 4 -129q-6 -68 -30 -117zM1286 1417q11 17 31 17h117q14 0 17.5 -8t-5.5 -21l-983 -1389
q-11 -16 -31 -16h-119q-13 0 -16.5 8t4.5 21zM1524 453q-10 -7 0 -13q43 -31 57 -88q11 -49 4 -108q-5 -43 -29 -103q-33 -71 -99 -113t-150 -42q-78 0 -132 41t-73 114q-12 48 -4 105q7 59 30 104q26 59 80 90q10 6 0 13q-39 34 -55 88q-15 45 -8 94q5 41 31 94
q35 67 98 104t143 37q82 0 136 -36.5t73 -104.5q11 -44 8 -94q-6 -46 -32 -94q-27 -52 -78 -88zM1305 662q-9 -27 -11 -39q-3 -21 0 -43q7 -74 80 -74q70 0 96 74q8 25 11 41q3 20 0 43q-9 71 -80 71q-70 0 -96 -73zM1421 199q10 30 13 57q4 32 2 51q-3 37 -23 58.5
t-55 21.5t-60 -21.5t-36 -58.5q-6 -20 -11 -51q-3 -28 0 -55q0 -37 20 -58.5t54 -21.5q33 0 58.5 21t37.5 57z" />
    <glyph glyph-name="fiveeighths" unicode="&#x215d;" horiz-adv-x="1585" 
d="M1231 1417q11 17 31 17h116q14 0 18 -8t-5 -21l-983 -1389q-11 -16 -31 -16h-119q-14 0 -17.5 8t5.5 21zM530 680q-75 -119 -223 -119q-92 0 -148 46.5t-65 131.5q-3 27 0 54q0 24 25 24h106q20 0 23 -22l2 -25q3 -35 23 -54.5t51 -19.5q59 0 88 62q17 35 20 82
q7 54 0 80q-12 59 -74 59q-60 0 -86 -45q-15 -21 -30 -21h-113q-9 0 -15 7.5t-5 17.5l57 469q1 10 9.5 17.5t19.5 7.5h421q10 0 16.5 -7t4.5 -18l-10 -86q-4 -25 -27 -25h-285q-10 0 -10 -10l-24 -199q-2 -6 2 -8t8 2q53 35 121 35q119 0 159 -112q27 -68 15 -162
q-13 -102 -56 -162zM1468 453q-11 -7 -2 -13q45 -31 60 -88q10 -59 4 -108q-5 -43 -29 -103q-33 -71 -99 -113t-151 -42q-78 0 -132.5 41t-71.5 114q-11 46 -7 105q10 58 31 104q29 60 82 90q10 6 0 13q-39 34 -55 88q-15 45 -8 94q7 51 30 94q35 67 98.5 104t143.5 37
q82 0 136 -36.5t73 -104.5q12 -47 6 -94q-6 -48 -31 -94q-27 -52 -78 -88zM1249 662q-5 -10 -10 -39q-3 -21 0 -43q3 -34 23 -54t55 -20q73 0 96 74q8 15 12 41q3 20 0 43q-13 71 -79 71q-71 0 -97 -73zM1366 199q8 25 12 57t2 51q-7 80 -77 80q-35 0 -60.5 -21.5
t-36.5 -58.5q-5 -14 -10 -51q-2 -18 -2 -55q2 -37 22 -58.5t54 -21.5q33 0 58.5 21t37.5 57z" />
    <glyph glyph-name="seveneighths" unicode="&#x215e;" horiz-adv-x="1499" 
d="M311 594q-11 -21 -28 -21h-111q-27 0 -14 29l305 684q3 12 -8 12h-185q-10 0 -10 -10l-8 -61q-4 -25 -27 -25h-78q-10 0 -16 7t-4 18l25 182q4 25 26 25h443q10 0 16 -7t4 -18l-10 -94q-5 -25 -8 -31zM1145 1417q11 17 31 17h116q14 0 18 -8t-5 -21l-983 -1389
q-8 -16 -29 -16h-121q-13 0 -16.5 8t4.5 21zM1382 453q-10 -7 0 -13q44 -32 58 -88q11 -49 4 -108q-5 -43 -29 -103q-33 -70 -99 -112.5t-149 -42.5q-79 0 -133 40.5t-73 114.5q-12 51 -5 105q6 56 31 104q25 57 80 90q9 6 2 13q-41 33 -57 88q-15 45 -8 94q6 44 30 94
q35 68 98.5 104.5t145.5 36.5q80 0 135 -37t74 -104q12 -47 6 -94q-5 -44 -33 -94q-29 -55 -78 -88zM1163 662q-7 -21 -10 -39q-3 -21 0 -43q10 -74 80 -74t96 74q6 19 10 41q3 20 0 43q-9 71 -79 71q-71 0 -97 -73zM1280 199q8 25 12 57t2 51q-2 37 -21.5 58.5t-53.5 21.5
q-36 0 -62 -21.5t-37 -58.5q-5 -14 -10 -51q-3 -28 0 -55q2 -37 21.5 -58.5t54.5 -21.5q32 0 57 21t37 57z" />
    <glyph glyph-name="partialdiff" unicode="&#x2202;" horiz-adv-x="1110" 
d="M952 1272q55 -85 79.5 -211.5t21.5 -250.5t-27 -239q-24 -118 -65.5 -218t-107.5 -185.5t-165 -134.5t-221 -49q-194 0 -298 119t-77 337q14 115 62.5 207t118 147.5t149 84t162.5 26.5q124 -3 227 -67q9 -6 12 8q-7 180 -61 270q-51 91 -156 103q-103 11 -225 -58
q-24 -17 -31 10l-39 162q-4 25 17 33q170 89 321 78q200 -9 303 -172zM508 188q112 0 183.5 96t105.5 269v12q-25 68 -83 107.5t-130 38.5q-97 0 -172 -74t-90 -195q-13 -114 38.5 -184t147.5 -70z" />
    <glyph glyph-name="uni2206" unicode="&#x2206;" horiz-adv-x="1198" 
d="M35 0q-9 0 -15.5 7.5t-5.5 17.5l21 161q4 18 10 31l596 1198q6 19 29 19h131q21 0 24 -19l301 -1200q4 -22 2 -31l-18 -159q-1 -10 -9.5 -17.5t-17.5 -7.5h-1048zM266 217q-3 -12 8 -12h621q10 0 10 12l-205 895q0 6 -4.5 6t-7.5 -6z" />
    <glyph glyph-name="product" unicode="&#x220f;" horiz-adv-x="1107" 
d="M1124 1638q11 0 16.5 -7t4.5 -17l-244 -1999q-1 -10 -9.5 -17.5t-19.5 -7.5h-182q-10 0 -16 7t-4 18l223 1808q0 11 -10 11h-379q-10 0 -10 -11l-224 -1808q-4 -25 -26 -25h-183q-10 0 -16 7t-4 18l244 1999q1 10 9 17t19 7h811z" />
    <glyph glyph-name="summation" unicode="&#x2211;" horiz-adv-x="1097" 
d="M61 -410q-10 0 -16 7t-4 18l18 164q1 6 6.5 17.5t6.5 13.5l524 823q4 11 2 14l-340 682q-4 10 -4 31l20 164q2 11 9.5 17.5t17.5 6.5h846q22 0 22 -24l-20 -156q-4 -25 -27 -25h-633q-11 0 -8 -12l348 -674q7 -16 -4 -32l-532 -818q-9 -12 6 -12h633q23 0 20 -24
l-18 -156q-4 -25 -27 -25h-846z" />
    <glyph glyph-name="minus" unicode="&#x2212;" horiz-adv-x="923" 
d="M111 537q-11 0 -17.5 7t-5.5 17l18 141q4 25 27 25h758q22 0 22 -25l-18 -141q-2 -11 -9.5 -17.5t-17.5 -6.5h-757z" />
    <glyph glyph-name="uni2215" unicode="&#x2215;" horiz-adv-x="946" 
d="M33 0q-14 0 -18 8t3 21l803 1386q13 19 31 19h158q30 0 14 -29l-801 -1387q-10 -18 -30 -18h-160z" />
    <glyph glyph-name="uni2219" unicode="&#x2219;" horiz-adv-x="612" 
d="M313 362q-104 0 -167.5 75.5t-49.5 180.5q12 107 93 180.5t186 73.5q102 0 164 -73.5t49 -180.5q-12 -105 -93 -180.5t-182 -75.5z" />
    <glyph glyph-name="radical" unicode="&#x221a;" horiz-adv-x="1474" 
d="M248 -410q-20 0 -23 21l-172 766q-3 22 21 31l176 57q26 10 29 -14l88 -459q0 -6 5.5 -6t8.5 6l582 1612q6 20 28 20h512q9 0 15.5 -7.5t5.5 -17.5l-19 -155q-2 -11 -10 -18t-18 -7h-347q-7 0 -12 -8l-655 -1800q-9 -21 -31 -21h-184z" />
    <glyph glyph-name="infinity" unicode="&#x221e;" horiz-adv-x="1396" 
d="M1096 1014q141 0 222 -103.5t62 -257.5q-20 -157 -126.5 -257.5t-252.5 -100.5q-94 0 -160.5 48.5t-125.5 141.5q-6 9 -15 0q-163 -190 -325 -190q-134 0 -214 104t-61 258q19 153 124.5 255t244.5 102q166 0 276 -191q3 -10 13 0q85 93 165 142t173 49zM399 479
q50 0 98 39.5t121 130.5q3 9 0 17q-47 91 -81.5 127t-87.5 36q-63 0 -111.5 -48t-58.5 -124q-9 -78 25.5 -128t94.5 -50zM1026 479q69 0 116 48t56 126q10 78 -24 127t-97 49q-56 0 -111 -40t-126 -127q-6 -10 0 -19q44 -84 86.5 -124t99.5 -40z" />
    <glyph glyph-name="integral" unicode="&#x222b;" horiz-adv-x="749" 
d="M-16 -414q-25 0 -21 25l19 145q1 10 9 17.5t17 7.5h41q73 0 107 39.5t45 126.5l153 1167q11 81 31 135.5t52 92.5t84.5 58.5t118.5 29t163 8.5q24 0 20 -25l-18 -145q-4 -25 -27 -25h-41q-74 0 -108 -39t-45 -127l-154 -1167q-9 -67 -24 -115.5t-39.5 -85.5t-56.5 -60
t-80.5 -37.5t-106.5 -20t-139 -5.5z" />
    <glyph glyph-name="approxequal" unicode="&#x2248;" horiz-adv-x="995" 
d="M719 690q-36 0 -70 10.5t-52.5 20.5t-49.5 31q-31 19 -46 28t-43.5 19t-54.5 10q-83 0 -145 -76q-14 -21 -33 -8l-90 66q-17 11 -8 32q42 85 121 139t166 54q78 0 157 -53q5 -3 23.5 -15t25.5 -16.5t23 -13t27 -12t26.5 -6.5t30.5 -3q65 0 125 74q18 21 35 8l100 -72
q20 -16 6 -33q-50 -82 -122 -133t-152 -51zM666 256q-36 0 -70 10t-53 20.5t-49 30.5q-33 21 -46.5 29t-43 18.5t-54.5 10.5q-83 0 -145 -76q-14 -21 -33 -8l-90 65q-17 11 -8 33q42 86 120.5 139.5t165.5 53.5q78 0 158 -54q3 -2 23.5 -15t25.5 -16t22.5 -12.5t27.5 -12
t26 -6t31 -3.5q65 0 125 74q18 21 35 8l100 -72q20 -16 6 -33q-50 -82 -122 -133t-152 -51z" />
    <glyph glyph-name="notequal" unicode="&#x2260;" horiz-adv-x="923" 
d="M922 782q0 -10 -8 -17t-19 -7h-260q-8 0 -12 -8l-105 -189q-4 -12 4 -12h348q10 0 16.5 -7t4.5 -18l-19 -141q0 -10 -7.5 -17.5t-18.5 -7.5h-432q-9 0 -13 -8l-94 -170q-10 -18 -31 -18h-94q-13 0 -17 7t3 21l88 156q4 12 -6 12h-162q-10 0 -16 7t-4 18l16 141
q4 25 27 25h247q11 0 15 8l104 188q4 13 -4 13h-336q-23 0 -20 24l16 142q2 11 9.5 17.5t17.5 6.5h422q8 0 12 8l92 166q11 19 31 19h92q30 0 14 -29l-84 -151q-4 -13 4 -13h177q23 0 20 -24z" />
    <glyph glyph-name="lessequal" unicode="&#x2264;" horiz-adv-x="923" 
d="M862 305q-2 -14 -11.5 -20t-19.5 0l-716 362q-15 9 -15 29l21 166q3 20 22 28l805 363q12 6 19.5 -0.5t5.5 -20.5l-21 -176q-3 -19 -22 -28l-576 -244q-13 -6 -2 -12l516 -242q18 -9 15 -29zM829 43q-4 -25 -26 -25h-760q-9 0 -15 7.5t-5 17.5l18 141q4 25 27 25h757
q10 0 16.5 -7t6.5 -18z" />
    <glyph glyph-name="greaterequal" unicode="&#x2265;" horiz-adv-x="923" 
d="M82 285q-12 -6 -19.5 0t-5.5 20l23 176q0 19 20 29l576 242q13 6 2 12l-516 244q-18 9 -15 28l21 176q2 14 11.5 20.5t19.5 0.5l716 -363q18 -11 15 -28l-21 -166q-3 -21 -20 -29zM45 18q-9 0 -15 7.5t-5 17.5l18 141q4 25 27 25h757q10 0 16.5 -7t6.5 -18l-19 -141
q-4 -25 -26 -25h-760z" />
    <glyph glyph-name="lozenge" unicode="&#x25ca;" horiz-adv-x="948" 
d="M360 -104q-21 0 -24 18l-223 786q-5 15 4 33l418 787q10 18 30 18h117q20 0 25 -18l225 -787q3 -19 -4 -33l-416 -786q-10 -18 -31 -18h-121zM446 156q3 -16 13 0l278 555q2 6 2 12l-143 551q-6 15 -12 0l-277 -551q-2 -6 -2 -12z" />
    <glyph glyph-name="i.loclTRK" horiz-adv-x="436" 
d="M322 1192q-51 0 -78.5 32.5t-20.5 84.5q6 53 41 85.5t86 32.5q49 0 74.5 -32.5t19.5 -85.5t-39.5 -85t-82.5 -32zM86 0q-10 0 -16 7t-4 18l120 997q1 10 9.5 17.5t17.5 7.5h184q9 0 15.5 -7.5t5.5 -17.5l-123 -997q-4 -25 -27 -25h-182z" />
    <glyph glyph-name="a.alt" horiz-adv-x="948" 
d="M563 1063q173 0 268 -95.5t76 -248.5l-86 -694q-4 -25 -26 -25h-183q-10 0 -16 7t-4 18l6 51q0 4 -1.5 6t-4.5 1.5t-6 -3.5q-101 -96 -256 -96q-48 0 -89.5 9t-80 31t-64.5 56t-37.5 89t-3.5 124q15 116 75.5 193.5t153 112t216.5 34.5h155q10 0 13 10l6 51
q9 76 -26.5 120t-108.5 44q-57 0 -98 -27.5t-56 -74.5q-6 -23 -29 -23l-192 12q-24 3 -21 23q29 131 145.5 213t274.5 82zM418 176q77 0 140 46.5t73 121.5l12 107q3 10 -8 10h-135q-87 0 -142.5 -39.5t-64.5 -112.5q-9 -65 26.5 -99t98.5 -34z" />
    <glyph glyph-name="a.sc" horiz-adv-x="999" 
d="M702 0q-21 0 -24 20l-19 160q0 8 -8 8h-338q-7 0 -10 -8l-59 -160q-9 -20 -31 -20h-180q-28 0 -19 27l453 1134q7 21 31 21h211q19 0 26 -21l176 -1134q1 -12 -5 -19.5t-17 -7.5h-187zM377 387q-3 -12 8 -12h240q13 0 10 12l-60 502q0 6 -4.5 6t-7.5 -6z" />
    <glyph glyph-name="aacute.sc" horiz-adv-x="999" 
d="M850 1569q15 0 18 -9.5t-6 -21.5l-166 -209q-13 -16 -30 -16h-144q-13 0 -17.5 7.5t3.5 20.5l141 211q14 17 33 17h168zM702 0q-21 0 -24 20l-19 160q0 8 -8 8h-338q-7 0 -10 -8l-59 -160q-9 -20 -31 -20h-180q-28 0 -19 27l453 1134q7 21 31 21h211q19 0 26 -21
l176 -1134q1 -12 -5 -19.5t-17 -7.5h-187zM377 387q-3 -12 8 -12h240q13 0 10 12l-60 502q0 6 -4.5 6t-7.5 -6z" />
    <glyph glyph-name="abreve.sc" horiz-adv-x="999" 
d="M612 1247q-93 0 -150 59t-54 150q0 25 24 25h78q22 0 22 -25q2 -43 27.5 -70.5t65.5 -27.5q41 0 73.5 27.5t44.5 70.5q6 25 29 25h78q24 0 18 -25q-20 -91 -91.5 -150t-164.5 -59zM702 0q-21 0 -24 20l-19 160q0 8 -8 8h-338q-7 0 -10 -8l-59 -160q-9 -20 -31 -20h-180
q-28 0 -19 27l453 1134q7 21 31 21h211q19 0 26 -21l176 -1134q1 -12 -5 -19.5t-17 -7.5h-187zM377 387q-3 -12 8 -12h240q13 0 10 12l-60 502q0 6 -4.5 6t-7.5 -6z" />
    <glyph glyph-name="uni01CE.sc" horiz-adv-x="999" 
d="M737 1300q-10 -16 -28 -16h-191q-20 0 -26 16l-109 211q-6 12 -1 21.5t17 9.5h131q21 0 27 -16l68 -133q1 -6 5 -6t7 6l98 133q11 16 31 16h125q14 0 17.5 -9.5t-5.5 -21.5zM702 0q-21 0 -24 20l-19 160q0 8 -8 8h-338q-7 0 -10 -8l-59 -160q-9 -20 -31 -20h-180
q-28 0 -19 27l453 1134q7 21 31 21h211q19 0 26 -21l176 -1134q1 -12 -5 -19.5t-17 -7.5h-187zM377 387q-3 -12 8 -12h240q13 0 10 12l-60 502q0 6 -4.5 6t-7.5 -6z" />
    <glyph glyph-name="acircumflex.sc" horiz-adv-x="999" 
d="M641 1452q-3 12 -12 0l-97 -131q-11 -16 -30 -16h-135q-14 0 -18 9t5 21l168 211q10 17 29 17h188q20 0 27 -17l121 -211q7 -12 1 -21t-20 -9h-135q-21 0 -26 16zM702 0q-21 0 -24 20l-19 160q0 8 -8 8h-338q-7 0 -10 -8l-59 -160q-9 -20 -31 -20h-180q-28 0 -19 27
l453 1134q7 21 31 21h211q19 0 26 -21l176 -1134q1 -12 -5 -19.5t-17 -7.5h-187zM377 387q-3 -12 8 -12h240q13 0 10 12l-60 502q0 6 -4.5 6t-7.5 -6z" />
    <glyph glyph-name="adieresis.sc" horiz-adv-x="999" 
d="M457 1321q-54 0 -84.5 35.5t-24.5 91.5q7 57 46 92t93 35t82.5 -35t22.5 -92q-8 -56 -45 -91.5t-90 -35.5zM793 1321q-55 0 -84 35.5t-23 91.5q8 57 45 92t92 35q54 0 83 -35t22 -92q-6 -56 -43.5 -91.5t-91.5 -35.5zM702 0q-21 0 -24 20l-19 160q0 8 -8 8h-338
q-7 0 -10 -8l-59 -160q-9 -20 -31 -20h-180q-28 0 -19 27l453 1134q7 21 31 21h211q19 0 26 -21l176 -1134q1 -12 -5 -19.5t-17 -7.5h-187zM377 387q-3 -12 8 -12h240q13 0 10 12l-60 502q0 6 -4.5 6t-7.5 -6z" />
    <glyph glyph-name="agrave.sc" horiz-adv-x="999" 
d="M709 1341q6 -13 -1 -20.5t-20 -7.5h-143q-17 0 -27 16l-115 209q-6 12 0 21.5t21 9.5h168q19 0 29 -17zM702 0q-21 0 -24 20l-19 160q0 8 -8 8h-338q-7 0 -10 -8l-59 -160q-9 -20 -31 -20h-180q-28 0 -19 27l453 1134q7 21 31 21h211q19 0 26 -21l176 -1134
q1 -12 -5 -19.5t-17 -7.5h-187zM377 387q-3 -12 8 -12h240q13 0 10 12l-60 502q0 6 -4.5 6t-7.5 -6z" />
    <glyph glyph-name="amacron.sc" horiz-adv-x="999" 
d="M862 1497q11 0 17.5 -7t5.5 -17l-15 -115q-1 -10 -9 -17.5t-17 -7.5h-449q-9 0 -15 7.5t-5 17.5l14 115q2 11 9.5 17.5t17.5 6.5h446zM702 0q-21 0 -24 20l-19 160q0 8 -8 8h-338q-7 0 -10 -8l-59 -160q-9 -20 -31 -20h-180q-28 0 -19 27l453 1134q7 21 31 21h211
q19 0 26 -21l176 -1134q1 -12 -5 -19.5t-17 -7.5h-187zM377 387q-3 -12 8 -12h240q13 0 10 12l-60 502q0 6 -4.5 6t-7.5 -6z" />
    <glyph glyph-name="aogonek.sc" horiz-adv-x="1021" 
d="M860 -250q27 6 27 -18v-76q0 -22 -21 -31q-35 -11 -73 -13t-78 5.5t-68 38.5t-33 82q-16 132 125 250q3 3 4 5.5t-0.5 4.5t-5.5 2h-35q-21 0 -24 20l-19 160q0 8 -8 8h-338q-7 0 -10 -8l-59 -160q-9 -20 -31 -20h-180q-28 0 -19 27l453 1134q7 21 31 21h211q19 0 26 -21
l176 -1134l2 -27h-2q-149 -109 -141 -197q3 -35 28 -48t62 -5zM377 387q-3 -12 8 -12h240q13 0 10 12l-60 502q0 6 -4.5 6t-7.5 -6z" />
    <glyph glyph-name="aring.sc" horiz-adv-x="999" 
d="M616 1290q-89 0 -143 64.5t-43 158.5q10 92 81 156t161 64q91 0 146 -64t44 -156q-12 -94 -83 -158.5t-163 -64.5zM657 1622q-43 0 -77.5 -31.5t-40.5 -77.5q-4 -46 22.5 -78t69.5 -32q44 0 79.5 32t39.5 78q6 46 -21.5 77.5t-71.5 31.5zM702 0q-21 0 -24 20l-19 160
q0 8 -8 8h-338q-7 0 -10 -8l-59 -160q-9 -20 -31 -20h-180q-28 0 -19 27l453 1134q7 21 31 21h211q19 0 26 -21l176 -1134q1 -12 -5 -19.5t-17 -7.5h-187zM377 387q-3 -12 8 -12h240q13 0 10 12l-60 502q0 6 -4.5 6t-7.5 -6z" />
    <glyph glyph-name="atilde.sc" horiz-adv-x="999" 
d="M563 1411q-49 0 -88 -47q-20 -23 -35 -8l-57 49q-16 16 -6 33q36 64 84.5 96.5t101.5 32.5q55 0 121 -47q1 -1 8 -6t9 -6.5t8.5 -5.5t9 -5.5t8.5 -5t10 -4.5t9.5 -3t11 -2.5t10.5 -0.5q49 0 86 47q13 22 33 8l59 -45q18 -14 4 -33q-41 -67 -93.5 -98t-102.5 -31
q-52 0 -113 45q-4 3 -11.5 8.5t-10.5 7.5t-9.5 6t-9.5 5.5l-8 4t-9 3t-9.5 1.5t-10.5 1zM702 0q-21 0 -24 20l-19 160q0 8 -8 8h-338q-7 0 -10 -8l-59 -160q-9 -20 -31 -20h-180q-28 0 -19 27l453 1134q7 21 31 21h211q19 0 26 -21l176 -1134q1 -12 -5 -19.5t-17 -7.5h-187z
M377 387q-3 -12 8 -12h240q13 0 10 12l-60 502q0 6 -4.5 6t-7.5 -6z" />
    <glyph glyph-name="ae.sc" horiz-adv-x="1499" 
d="M1522 1001q-2 -11 -9.5 -17.5t-17.5 -6.5h-459q-9 0 -12 -10l-31 -260q-1 -4 1 -7.5t7 -3.5h283q9 0 15.5 -7t5.5 -17l-21 -156q0 -10 -8 -17t-19 -7h-280q-8 0 -12 -11l-33 -266q0 -10 8 -10h461q9 0 15 -7.5t5 -17.5l-20 -155q-4 -25 -27 -25h-678q-9 0 -15 7.5
t-5 17.5l20 153q0 10 -10 10h-313q-9 0 -13 -8l-98 -162q-9 -18 -31 -18h-196q-13 0 -17.5 8t2.5 21l685 1134q13 19 30 19h785q10 0 16 -7t4 -18zM483 387q-4 -6 -1.5 -9t7.5 -3h220q12 0 12 10l59 483q1 7 -3 8.5t-9 -4.5z" />
    <glyph glyph-name="b.sc" horiz-adv-x="950" 
d="M768 616q-11 -6 -2 -12q141 -83 121 -272q-19 -162 -135 -247t-287 -85h-381q-10 0 -16.5 7t-4.5 18l138 1132q2 11 10 18t18 7h357q185 0 276.5 -80.5t71.5 -243.5q-20 -169 -166 -242zM420 977q-10 0 -10 -10l-33 -267q-3 -10 8 -10h154q69 0 115 38.5t55 105.5
q7 67 -29.5 105t-106.5 38h-153zM489 207q70 0 115.5 40t54.5 111q9 70 -27 113t-104 43h-166q-10 0 -10 -10l-35 -287q-3 -10 9 -10h163z" />
    <glyph glyph-name="c.sc" horiz-adv-x="933" 
d="M430 -14q-179 0 -273.5 106.5t-72.5 290.5l51 418q23 183 143.5 289t299.5 106q180 0 275.5 -103.5t72.5 -283.5v-2q-2 -11 -10 -19t-17 -8l-186 -8q-25 0 -21 21l2 20q10 83 -28.5 129.5t-112.5 48.5q-73 2 -124 -46.5t-60 -131.5l-56 -444q-10 -84 28.5 -131.5
t113.5 -47.5q73 0 123.5 47.5t60.5 131.5l2 18q3 23 27 23l184 -9q22 0 22 -12l-2 -14q-22 -179 -143 -284t-299 -105z" />
    <glyph glyph-name="cacute.sc" horiz-adv-x="933" 
d="M498 1327q-14 0 -18.5 7.5t3.5 21.5l140 211q13 16 32 16h168q15 0 18.5 -9.5t-5.5 -21.5l-166 -209q-13 -16 -31 -16h-141zM430 -14q-179 0 -273.5 106.5t-72.5 290.5l51 418q23 183 143.5 289t299.5 106q180 0 275.5 -103.5t72.5 -283.5v-2q-2 -11 -10 -19t-17 -8
l-186 -8q-25 0 -21 21l2 20q10 83 -28.5 129.5t-112.5 48.5q-73 2 -124 -46.5t-60 -131.5l-56 -444q-10 -84 28.5 -131.5t113.5 -47.5q73 0 123.5 47.5t60.5 131.5l2 18q3 23 27 23l184 -9q22 0 22 -12l-2 -14q-22 -179 -143 -284t-299 -105z" />
    <glyph glyph-name="ccaron.sc" horiz-adv-x="933" 
d="M492 1298q-17 0 -27 17l-109 211q-6 12 -0.5 21t19.5 9h131q18 0 24 -16l68 -133q4 -14 14 0l97 133q11 16 30 16h125q14 0 18 -9t-5 -21l-164 -211q-14 -17 -31 -17h-190zM430 -14q-179 0 -273.5 106.5t-72.5 290.5l51 418q23 183 143.5 289t299.5 106
q180 0 275.5 -103.5t72.5 -283.5v-2q-2 -11 -10 -19t-17 -8l-186 -8q-25 0 -21 21l2 20q10 83 -28.5 129.5t-112.5 48.5q-73 2 -124 -46.5t-60 -131.5l-56 -444q-10 -84 28.5 -131.5t113.5 -47.5q73 0 123.5 47.5t60.5 131.5l2 18q3 23 27 23l184 -9q22 0 22 -12l-2 -14
q-22 -179 -143 -284t-299 -105z" />
    <glyph glyph-name="ccedilla.sc" horiz-adv-x="933" 
d="M924 797q0 -6 -8 -11.5t-17 -5.5l-186 -8q-25 0 -21 21l2 20q10 83 -28.5 129.5t-112.5 48.5q-73 2 -124 -46.5t-60 -131.5l-56 -444q-10 -84 28.5 -131.5t113.5 -47.5q73 0 123.5 47.5t60.5 131.5l2 18q3 23 27 23l184 -9q22 0 22 -12l-2 -14q-20 -159 -117.5 -261
t-246.5 -122q-15 -3 -6 -12q88 -110 45 -232q-18 -51 -54 -82t-78 -38.5t-79.5 -5.5t-69.5 13q-18 9 -12 31l18 76q5 24 31 18q35 -8 63.5 5t39.5 49q25 81 -72 178q-2 2 -10 6q-130 31 -194 131.5t-46 253.5l51 418q23 183 143.5 289t299.5 106q180 0 275.5 -103.5
t72.5 -283.5z" />
    <glyph glyph-name="cdotaccent.sc" horiz-adv-x="933" 
d="M594 1319q-51 0 -78.5 32t-21.5 85q6 52 42 85t87 33q49 0 74.5 -32.5t19.5 -85.5t-40 -85t-83 -32zM430 -14q-179 0 -273.5 106.5t-72.5 290.5l51 418q23 183 143.5 289t299.5 106q180 0 275.5 -103.5t72.5 -283.5v-2q-2 -11 -10 -19t-17 -8l-186 -8q-25 0 -21 21l2 20
q10 83 -28.5 129.5t-112.5 48.5q-73 2 -124 -46.5t-60 -131.5l-56 -444q-10 -84 28.5 -131.5t113.5 -47.5q73 0 123.5 47.5t60.5 131.5l2 18q3 23 27 23l184 -9q22 0 22 -12l-2 -14q-22 -179 -143 -284t-299 -105z" />
    <glyph glyph-name="d.sc" horiz-adv-x="954" 
d="M84 0q-10 0 -16.5 7t-4.5 18l138 1132q2 11 10 18t18 7h365q177 0 271 -93t75 -249l-61 -496q-19 -156 -136 -250t-294 -94h-365zM317 215q-3 -10 9 -10l153 2q67 0 114.5 45t57.5 119l56 442q8 74 -29.5 119t-106.5 45h-151q-10 0 -10 -10z" />
    <glyph glyph-name="eth.sc" horiz-adv-x="1026" 
d="M668 1182q175 0 270 -93.5t76 -248.5l-62 -496q-20 -156 -137 -250t-293 -94h-364q-10 0 -16.5 7t-6.5 18l64 503q0 11 -11 11h-38q-11 0 -16.5 7t-4.5 17l12 99q2 11 9.5 17.5t17.5 6.5h39q9 0 12 10l55 461q1 10 9.5 17.5t17.5 7.5h367zM725 371l53 442q9 74 -27.5 119
t-105.5 45h-151q-10 0 -13 -10l-32 -271q0 -10 8 -10h106q11 0 16.5 -7t4.5 -17l-13 -99q-3 -24 -26 -24h-105q-8 0 -12 -11l-39 -313q0 -10 10 -10l152 2q68 0 116 44.5t58 119.5z" />
    <glyph glyph-name="dcaron.sc" horiz-adv-x="954" 
d="M483 1292q-19 0 -26 17l-109 211q-6 12 -0.5 21t17.5 9h131q20 0 26 -16l68 -133q2 -6 5.5 -6t6.5 6l98 133q11 16 31 16h125q14 0 17.5 -9t-5.5 -21l-166 -211q-10 -17 -28 -17h-191zM84 0q-10 0 -16.5 7t-4.5 18l138 1132q2 11 10 18t18 7h365q177 0 271 -93t75 -249
l-61 -496q-19 -156 -136 -250t-294 -94h-365zM317 215q-3 -10 9 -10l153 2q67 0 114.5 45t57.5 119l56 442q8 74 -29.5 119t-106.5 45h-151q-10 0 -10 -10z" />
    <glyph glyph-name="dcroat.sc" horiz-adv-x="1026" 
d="M668 1182q175 0 270 -93.5t76 -248.5l-62 -496q-20 -156 -137 -250t-293 -94h-364q-10 0 -16.5 7t-6.5 18l64 503q0 11 -11 11h-38q-11 0 -16.5 7t-4.5 17l12 99q2 11 9.5 17.5t17.5 6.5h39q9 0 12 10l55 461q1 10 9.5 17.5t17.5 7.5h367zM725 371l53 442q9 74 -27.5 119
t-105.5 45h-151q-10 0 -13 -10l-32 -271q0 -10 8 -10h106q11 0 16.5 -7t4.5 -17l-13 -99q-3 -24 -26 -24h-105q-8 0 -12 -11l-39 -313q0 -10 10 -10l152 2q68 0 116 44.5t58 119.5z" />
    <glyph glyph-name="e.sc" horiz-adv-x="892" 
d="M915 999q-3 -24 -26 -24h-469q-9 0 -12 -10l-31 -258q0 -11 8 -11h293q23 0 20 -24l-18 -156q-1 -10 -9.5 -17t-17.5 -7h-293q-8 0 -12 -11l-31 -266q-3 -10 9 -10h469q9 0 15 -7.5t5 -17.5l-18 -155q-1 -10 -9.5 -17.5t-19.5 -7.5h-684q-10 0 -16.5 7t-4.5 18l138 1132
q2 11 10 18t18 7h684q10 0 16.5 -7t4.5 -18z" />
    <glyph glyph-name="eacute.sc" horiz-adv-x="892" 
d="M817 1589q15 0 18 -9t-6 -21l-167 -209q-10 -17 -29 -17h-144q-14 0 -18.5 7.5t4.5 21.5l141 211q10 16 31 16h170zM915 999q-3 -24 -26 -24h-469q-9 0 -12 -10l-31 -258q0 -11 8 -11h293q23 0 20 -24l-18 -156q-1 -10 -9.5 -17t-17.5 -7h-293q-8 0 -12 -11l-31 -266
q-3 -10 9 -10h469q9 0 15 -7.5t5 -17.5l-18 -155q-1 -10 -9.5 -17.5t-19.5 -7.5h-684q-10 0 -16.5 7t-4.5 18l138 1132q2 11 10 18t18 7h684q10 0 16.5 -7t4.5 -18z" />
    <glyph glyph-name="ecaron.sc" horiz-adv-x="892" 
d="M705 1321q-13 -16 -31 -16h-191q-18 0 -24 16l-111 211q-5 12 0.5 21.5t18.5 9.5h131q16 0 26 -17l66 -133q7 -14 14 0l98 133q11 17 31 17h125q12 0 15.5 -9.5t-3.5 -21.5zM915 999q-3 -24 -26 -24h-469q-9 0 -12 -10l-31 -258q0 -11 8 -11h293q23 0 20 -24l-18 -156
q-1 -10 -9.5 -17t-17.5 -7h-293q-8 0 -12 -11l-31 -266q-3 -10 9 -10h469q9 0 15 -7.5t5 -17.5l-18 -155q-1 -10 -9.5 -17.5t-19.5 -7.5h-684q-10 0 -16.5 7t-4.5 18l138 1132q2 11 10 18t18 7h684q10 0 16.5 -7t4.5 -18z" />
    <glyph glyph-name="uni0229.sc" horiz-adv-x="892" 
d="M915 999q-3 -24 -26 -24h-469q-9 0 -12 -10l-31 -258q0 -11 8 -11h293q23 0 20 -24l-18 -156q-1 -10 -9.5 -17t-17.5 -7h-293q-8 0 -12 -11l-31 -266q-3 -10 9 -10h469q9 0 15 -7.5t5 -17.5l-18 -155q-1 -10 -9.5 -17.5t-19.5 -7.5h-256q-6 0 -8 -4t2 -8q84 -109 41 -226
q-18 -51 -54 -82t-78 -38.5t-79.5 -5t-69.5 13.5q-19 10 -14 31l20 75q6 25 31 19q35 -8 63.5 4.5t39.5 48.5q24 70 -60 168q-8 4 -14 4h-248q-10 0 -16.5 7t-4.5 18l138 1132q2 11 10 18t18 7h684q10 0 16.5 -7t4.5 -18z" />
    <glyph glyph-name="ecircumflex.sc" horiz-adv-x="892" 
d="M608 1473q-6 12 -12 0l-98 -132q-8 -16 -29 -16h-135q-14 0 -17.5 9.5t5.5 21.5l165 211q13 16 31 16h189q16 0 26 -16l121 -211q7 -12 1 -21.5t-21 -9.5h-136q-19 0 -24 16zM915 999q-3 -24 -26 -24h-469q-9 0 -12 -10l-31 -258q0 -11 8 -11h293q23 0 20 -24l-18 -156
q-1 -10 -9.5 -17t-17.5 -7h-293q-8 0 -12 -11l-31 -266q-3 -10 9 -10h469q9 0 15 -7.5t5 -17.5l-18 -155q-1 -10 -9.5 -17.5t-19.5 -7.5h-684q-10 0 -16.5 7t-4.5 18l138 1132q2 11 10 18t18 7h684q10 0 16.5 -7t4.5 -18z" />
    <glyph glyph-name="edieresis.sc" horiz-adv-x="892" 
d="M424 1341q-54 0 -84.5 35.5t-24.5 91.5q7 57 46.5 92t93.5 35t82 -35t20 -92q-6 -56 -43.5 -91.5t-89.5 -35.5zM758 1341q-54 0 -83.5 35.5t-21.5 91.5q6 57 44 92t94 35q54 0 82.5 -35t21.5 -92q-6 -56 -44.5 -91.5t-92.5 -35.5zM915 999q-3 -24 -26 -24h-469
q-9 0 -12 -10l-31 -258q0 -11 8 -11h293q23 0 20 -24l-18 -156q-1 -10 -9.5 -17t-17.5 -7h-293q-8 0 -12 -11l-31 -266q-3 -10 9 -10h469q9 0 15 -7.5t5 -17.5l-18 -155q-1 -10 -9.5 -17.5t-19.5 -7.5h-684q-10 0 -16.5 7t-4.5 18l138 1132q2 11 10 18t18 7h684
q10 0 16.5 -7t4.5 -18z" />
    <glyph glyph-name="edotaccent.sc" horiz-adv-x="892" 
d="M586 1325q-51 0 -78 32t-21 85t41 86t86 33q49 0 76 -33t19 -86q-6 -53 -40 -85t-83 -32zM915 999q-3 -24 -26 -24h-469q-9 0 -12 -10l-31 -258q0 -11 8 -11h293q23 0 20 -24l-18 -156q-1 -10 -9.5 -17t-17.5 -7h-293q-8 0 -12 -11l-31 -266q-3 -10 9 -10h469
q9 0 15 -7.5t5 -17.5l-18 -155q-1 -10 -9.5 -17.5t-19.5 -7.5h-684q-10 0 -16.5 7t-4.5 18l138 1132q2 11 10 18t18 7h684q10 0 16.5 -7t4.5 -18z" />
    <glyph glyph-name="egrave.sc" horiz-adv-x="892" 
d="M676 1362q6 -13 -1 -21t-20 -8h-143q-20 0 -27 17l-114 209q-6 12 -0.5 21t18.5 9h170q21 0 27 -16zM915 999q-3 -24 -26 -24h-469q-9 0 -12 -10l-31 -258q0 -11 8 -11h293q23 0 20 -24l-18 -156q-1 -10 -9.5 -17t-17.5 -7h-293q-8 0 -12 -11l-31 -266q-3 -10 9 -10h469
q9 0 15 -7.5t5 -17.5l-18 -155q-1 -10 -9.5 -17.5t-19.5 -7.5h-684q-10 0 -16.5 7t-4.5 18l138 1132q2 11 10 18t18 7h684q10 0 16.5 -7t4.5 -18z" />
    <glyph glyph-name="emacron.sc" horiz-adv-x="892" 
d="M829 1518q10 0 16.5 -7t4.5 -18l-12 -115q-1 -10 -9.5 -17t-19.5 -7h-447q-23 0 -20 24l14 115q4 25 27 25h446zM915 999q-3 -24 -26 -24h-469q-9 0 -12 -10l-31 -258q0 -11 8 -11h293q23 0 20 -24l-18 -156q-1 -10 -9.5 -17t-17.5 -7h-293q-8 0 -12 -11l-31 -266
q-3 -10 9 -10h469q9 0 15 -7.5t5 -17.5l-18 -155q-1 -10 -9.5 -17.5t-19.5 -7.5h-684q-10 0 -16.5 7t-4.5 18l138 1132q2 11 10 18t18 7h684q10 0 16.5 -7t4.5 -18z" />
    <glyph glyph-name="eogonek.sc" horiz-adv-x="892" 
d="M915 999q-3 -24 -26 -24h-469q-9 0 -12 -10l-31 -258q0 -11 8 -11h293q23 0 20 -24l-18 -156q-1 -10 -9.5 -17t-17.5 -7h-293q-8 0 -12 -11l-31 -266q-3 -10 9 -10h469q9 0 15 -7.5t5 -17.5l-18 -155q-1 -10 -9.5 -17.5t-19.5 -7.5h-274q-7 0 -15 -4q-116 -95 -108 -172
q1 -35 26.5 -48t61.5 -5q26 6 26 -19l2 -76q0 -21 -22 -30q-27 -8 -56.5 -12t-63.5 -1t-61 15.5t-47 40.5t-24 69q-13 124 102 230q6 4 4 8t-8 4h-227q-10 0 -16.5 7t-4.5 18l138 1132q2 11 10 18t18 7h684q10 0 16.5 -7t4.5 -18z" />
    <glyph glyph-name="f.sc" horiz-adv-x="851" 
d="M913 1001q-3 -24 -26 -24h-467q-10 0 -10 -10l-33 -260q0 -11 8 -11h293q23 0 20 -24l-18 -156q-1 -10 -9.5 -17t-17.5 -7h-293q-8 0 -12 -11l-55 -456q-4 -25 -27 -25h-182q-10 0 -16.5 7t-4.5 18l138 1132q2 11 10 18t18 7h682q10 0 16.5 -7t4.5 -18z" />
    <glyph glyph-name="g.sc" horiz-adv-x="989" 
d="M459 -14q-189 0 -289.5 105t-77.5 286l53 430q22 181 147.5 285t315.5 104q186 0 286 -104.5t77 -282.5l-2 -21q-2 -11 -9.5 -17.5t-17.5 -6.5h-180q-11 0 -16.5 7t-4.5 17l2 23q10 86 -33 133t-128 47q-86 0 -141.5 -48.5t-65.5 -139.5l-53 -430q-10 -87 33.5 -135
t127.5 -48q85 0 141 48.5t66 134.5l8 65q0 11 -10 11h-141q-9 0 -15.5 7t-5.5 17l17 129q4 25 26 25h357q10 0 16 -7t4 -18l-28 -225q-22 -181 -147 -286t-312 -105z" />
    <glyph glyph-name="gbreve.sc" horiz-adv-x="989" 
d="M614 1262q-93 0 -150 58.5t-54 149.5q0 25 24 25h78q10 0 16.5 -6.5t6.5 -18.5q2 -43 27.5 -70.5t64.5 -27.5q41 0 73.5 27.5t44.5 70.5q6 25 29 25h78q24 0 18 -25q-20 -91 -91.5 -149.5t-164.5 -58.5zM459 -14q-189 0 -289.5 105t-77.5 286l53 430q22 181 147.5 285
t315.5 104q186 0 286 -104.5t77 -282.5l-2 -21q-2 -11 -9.5 -17.5t-17.5 -6.5h-180q-11 0 -16.5 7t-4.5 17l2 23q10 86 -33 133t-128 47q-86 0 -141.5 -48.5t-65.5 -139.5l-53 -430q-10 -87 33.5 -135t127.5 -48q85 0 141 48.5t66 134.5l8 65q0 11 -10 11h-141q-9 0 -15.5 7
t-5.5 17l17 129q4 25 26 25h357q10 0 16 -7t4 -18l-28 -225q-22 -181 -147 -286t-312 -105z" />
    <glyph glyph-name="uni0123.sc" horiz-adv-x="989" 
d="M459 -14q-189 0 -289.5 105t-77.5 286l53 430q22 181 147.5 285t315.5 104q186 0 286 -104.5t77 -282.5l-2 -21q-2 -11 -9.5 -17.5t-17.5 -6.5h-180q-11 0 -16.5 7t-4.5 17l2 23q10 86 -33 133t-128 47q-86 0 -141.5 -48.5t-65.5 -139.5l-53 -430q-10 -87 33.5 -135
t127.5 -48q85 0 141 48.5t66 134.5l8 65q0 11 -10 11h-141q-9 0 -15.5 7t-5.5 17l17 129q4 25 26 25h357q10 0 16 -7t4 -18l-28 -225q-22 -181 -147 -286t-312 -105zM262 -381q-14 0 -18.5 7.5t4.5 21.5l139 211q13 16 33 16h168q15 0 18 -9.5t-6 -21.5l-166 -209
q-13 -16 -31 -16h-141z" />
    <glyph glyph-name="gdotaccent.sc" horiz-adv-x="989" 
d="M621 1319q-51 0 -78 32t-21 85t41 85.5t86 32.5q49 0 75.5 -32.5t18.5 -85.5q-6 -53 -39.5 -85t-82.5 -32zM459 -14q-189 0 -289.5 105t-77.5 286l53 430q22 181 147.5 285t315.5 104q186 0 286 -104.5t77 -282.5l-2 -21q-2 -11 -9.5 -17.5t-17.5 -6.5h-180
q-11 0 -16.5 7t-4.5 17l2 23q10 86 -33 133t-128 47q-86 0 -141.5 -48.5t-65.5 -139.5l-53 -430q-10 -87 33.5 -135t127.5 -48q85 0 141 48.5t66 134.5l8 65q0 11 -10 11h-141q-9 0 -15.5 7t-5.5 17l17 129q4 25 26 25h357q10 0 16 -7t4 -18l-28 -225q-22 -181 -147 -286
t-312 -105z" />
    </font>
</defs>
</svg>
